<?xml version="1.0" encoding="UTF-8" standalone="no"?><svg xmlns="http://www.w3.org/2000/svg" xmlns:xlink="http://www.w3.org/1999/xlink" contentScriptType="text/ecmascript" fill="#000000" width="1593" zoomAndPan="magnify" contentStyleType="text/css" viewBox="703.5 691.4 1593.0 1617.2" height="1617.2" data-name="Layer 1" preserveAspectRatio="xMidYMid meet" version="1"><g id="change1_1"><path fill="#197629" d="M784.92,1173.34a279.86,279.86,0,0,0,354.48-33.93,280.88,280.88,0,0,0,41.41-52.67c1-1.63,2-3.33,3.06-5.18a280.09,280.09,0,0,0,0-279.77c-1.06-1.85-2.07-3.55-3.07-5.19q-3.6-5.91-7.5-11.65A280.54,280.54,0,0,0,1143,747.59a5,5,0,0,0-7.16-.08h0a5,5,0,0,0-.07,7,270.51,270.51,0,0,1,36.51,47.31c1,1.56,1.91,3.19,2.94,5a270,270,0,0,1,0,269.79c-1,1.79-2,3.41-2.93,5a271.85,271.85,0,0,1-39.94,50.8c-104,104-272.44,105.11-377.83,3.42a5,5,0,0,0-7,.07h0a5,5,0,0,0,.08,7.16A280.65,280.65,0,0,0,784.92,1173.34Z"/></g><g id="change1_2"><circle fill="#197629" r="20.9" cx="1136.36" cy="1136.36"/></g><g id="change1_3"><circle fill="#197629" r="20.9" cx="1229.51" cy="1229.51"/></g><g id="change2_1"><circle fill="#c2f2ca" r="20.9" cx="1229.51" cy="1767.92"/></g><g id="change3_1"><circle fill="#8de39c" r="20.9" cx="1767.92" cy="1767.92"/></g><g id="change4_1"><circle fill="#59b168" r="20.9" cx="1767.92" cy="1229.51"/></g><g id="change2_2"><path fill="#c2f2ca" d="M1500,1167.1a333.48,333.48,0,0,0-79.2,9.48c-2.32.56-4.63,1.16-6.93,1.78a333.45,333.45,0,0,0-235.51,235.51c-.62,2.3-1.22,4.61-1.78,6.93a333.48,333.48,0,0,0,88,314.59q4.23,4.24,8.62,8.33c2.93,2.71,5.89,5.38,8.92,8s6.08,5.18,9.2,7.69c2.07,1.67,4.17,3.31,6.28,4.94s4.26,3.22,6.41,4.79q4.86,3.54,9.83,6.91a332.53,332.53,0,0,0,34.58,20.43q5.37,2.76,10.87,5.32a329.76,329.76,0,0,0,53.5,19.57q4,1.08,8,2.05a333.48,333.48,0,0,0,314.59-88q4.24-4.23,8.33-8.62c2.71-2.93,5.38-5.89,8-8.92s5.18-6.08,7.69-9.2c1.67-2.07,3.31-4.17,4.94-6.28s3.22-4.26,4.79-6.41q3.54-4.86,6.91-9.83a332.53,332.53,0,0,0,20.43-34.58q2.76-5.37,5.32-10.87a329.76,329.76,0,0,0,19.57-53.5q1.08-4,2.05-8a333.48,333.48,0,0,0,9.48-79.2C1832.9,1316.14,1683.85,1167.1,1500,1167.1Zm0,599.19c-147.06,0-266.29-119.23-266.29-266.29s119.23-266.29,266.29-266.29,266.29,119.23,266.29,266.29S1647.06,1766.29,1500,1766.29Z"/></g><g id="change1_4"><path fill="#197629" d="M780.45,780.45a228.58,228.58,0,0,0-33.77,42.94q-1.27,2.1-2.49,4.22a228.39,228.39,0,0,0,0,228.12c.81,1.41,1.64,2.82,2.49,4.21a228.43,228.43,0,0,0,195,109.73c2.73,0,5.47-.06,8.2-.15s5.47-.25,8.2-.44,5.45-.44,8.18-.73q2.71-.3,5.44-.65c1.81-.24,3.62-.51,5.42-.79q4.07-.63,8.11-1.42a224.66,224.66,0,0,0,26.63-6.84q3.95-1.28,7.85-2.69a226.24,226.24,0,0,0,35.39-16.44c1.62-.93,3.24-1.89,4.85-2.86a228.43,228.43,0,0,0,109.73-195c0-2.74-.06-5.47-.15-8.21s-.25-5.46-.44-8.19-.44-5.46-.73-8.18q-.3-2.73-.65-5.44c-.24-1.81-.51-3.62-.79-5.42q-.63-4.07-1.42-8.11a225.32,225.32,0,0,0-6.84-26.64q-1.28-3.94-2.69-7.84a226.24,226.24,0,0,0-16.44-35.39c-.93-1.63-1.89-3.25-2.86-4.86a228.58,228.58,0,0,0-33.77-42.94C1013.85,691.41,869.49,691.41,780.45,780.45Zm290.18,290.18a182.38,182.38,0,1,1,0-257.92A182.38,182.38,0,0,1,1070.63,1070.63Z"/></g><g id="change4_2"><path fill="#59b168" d="M1832.9,1500h-66.61c0-147.06-119.23-266.29-266.29-266.29V1167.1C1683.85,1167.1,1832.9,1316.14,1832.9,1500Z"/></g><g id="change1_5"><path fill="#197629" d="M1500,1167.1v66.61c-147.06,0-266.29,119.23-266.29,266.29H1167.1a333.48,333.48,0,0,1,9.48-79.2c.56-2.32,1.16-4.63,1.78-6.93a333.45,333.45,0,0,1,235.51-235.51c2.3-.62,4.61-1.22,6.93-1.78A333.48,333.48,0,0,1,1500,1167.1Z"/></g><g id="change3_2"><path fill="#8de39c" d="M1832.9,1500a333.48,333.48,0,0,1-9.48,79.2q-1,4-2.05,8a329.76,329.76,0,0,1-19.57,53.5q-2.57,5.49-5.32,10.87a332.53,332.53,0,0,1-20.43,34.58c-2.25,3.32-4.54,6.59-6.91,9.83q-2.36,3.22-4.79,6.41c-1.62,2.11-3.26,4.21-4.94,6.28q-3.77,4.68-7.69,9.2c-2.61,3-5.28,6-8,8.92s-5.5,5.81-8.33,8.62A331.81,331.81,0,0,1,1500,1832.9v-66.61c147.06,0,266.29-119.23,266.29-266.29Z"/></g><g id="change4_3"><path fill="#59b168" d="M2252.49,1135.83h0a5,5,0,0,0-7-.07c-105.39,101.69-273.85,100.55-377.83-3.42a271.85,271.85,0,0,1-39.94-50.8c-.94-1.56-1.91-3.18-2.93-5a270,270,0,0,1,0-269.79c1-1.78,2-3.41,2.94-5a270.51,270.51,0,0,1,36.51-47.31,5,5,0,0,0-.07-7h0a5,5,0,0,0-7.16.08A280.54,280.54,0,0,0,1826.69,785q-3.92,5.73-7.5,11.65c-1,1.64-2,3.34-3.07,5.19a280.09,280.09,0,0,0,0,279.77c1.06,1.85,2.06,3.55,3.06,5.18a280.88,280.88,0,0,0,41.41,52.67,279.86,279.86,0,0,0,354.48,33.93,280.65,280.65,0,0,0,37.33-30.35A5,5,0,0,0,2252.49,1135.83Z"/></g><g id="change4_4"><circle fill="#59b168" r="20.9" cx="1863.64" cy="1136.36"/></g><g id="change4_5"><path fill="#59b168" d="M1897.11,780.45a228.58,228.58,0,0,0-33.77,42.94c-1,1.61-1.93,3.23-2.86,4.86A226.24,226.24,0,0,0,1844,863.64q-1.41,3.9-2.69,7.84a225.32,225.32,0,0,0-6.84,26.64q-.79,4.05-1.42,8.11c-.28,1.8-.55,3.61-.79,5.42s-.45,3.62-.65,5.44c-.29,2.72-.54,5.45-.73,8.18s-.34,5.46-.44,8.19-.15,5.47-.15,8.21a228.43,228.43,0,0,0,109.73,195c1.61,1,3.23,1.93,4.85,2.86A226.24,226.24,0,0,0,1980.3,1156q3.9,1.41,7.85,2.69a224.66,224.66,0,0,0,26.63,6.84q4,.79,8.11,1.42c1.8.28,3.61.55,5.42.79s3.63.45,5.44.65c2.73.29,5.45.54,8.18.73s5.46.34,8.2.44,5.47.15,8.2.15a228.43,228.43,0,0,0,195-109.73c.85-1.39,1.68-2.8,2.49-4.21a228.39,228.39,0,0,0,0-228.12q-1.21-2.11-2.49-4.22a228.58,228.58,0,0,0-33.77-42.94C2130.51,691.41,1986.15,691.41,1897.11,780.45Zm32.26,32.26a182.38,182.38,0,1,1,0,257.92A182.38,182.38,0,0,1,1929.37,812.71Z"/></g><g id="change2_3"><path fill="#c2f2ca" d="M747.51,1864.17h0a5,5,0,0,0,7,.07c105.39-101.69,273.85-100.55,377.83,3.42a271.85,271.85,0,0,1,39.94,50.8c.94,1.56,1.91,3.18,2.93,5a270,270,0,0,1,0,269.79c-1,1.78-2,3.41-2.94,5a270.51,270.51,0,0,1-36.51,47.31,5,5,0,0,0,.07,7h0a5,5,0,0,0,7.16-.08,280.54,280.54,0,0,0,30.32-37.36q3.92-5.73,7.5-11.65c1-1.64,2-3.34,3.07-5.19a280.09,280.09,0,0,0,0-279.77c-1.06-1.85-2.06-3.55-3.06-5.18a280.88,280.88,0,0,0-41.41-52.67,279.86,279.86,0,0,0-354.48-33.93A280.65,280.65,0,0,0,747.59,1857,5,5,0,0,0,747.51,1864.17Z"/></g><g id="change2_4"><circle fill="#c2f2ca" r="20.9" cx="1136.36" cy="1863.64"/></g><g id="change2_5"><path fill="#c2f2ca" d="M1102.89,2219.55a228.58,228.58,0,0,0,33.77-42.94c1-1.61,1.93-3.23,2.86-4.86a226.24,226.24,0,0,0,16.44-35.39q1.41-3.9,2.69-7.84a225.32,225.32,0,0,0,6.84-26.64q.79-4.05,1.42-8.11c.28-1.8.55-3.61.79-5.42s.45-3.62.65-5.44c.29-2.72.54-5.45.73-8.18s.34-5.46.44-8.19.15-5.47.15-8.21a228.43,228.43,0,0,0-109.73-195c-1.61-1-3.23-1.93-4.85-2.86A226.24,226.24,0,0,0,1019.7,1844q-3.9-1.41-7.85-2.69a224.66,224.66,0,0,0-26.63-6.84q-4.05-.79-8.11-1.42c-1.8-.28-3.61-.55-5.42-.79s-3.63-.45-5.44-.65c-2.73-.29-5.45-.54-8.18-.73s-5.46-.34-8.2-.44-5.47-.15-8.2-.15a228.43,228.43,0,0,0-195,109.73c-.85,1.39-1.68,2.8-2.49,4.21a228.39,228.39,0,0,0,0,228.12q1.21,2.12,2.49,4.22a228.58,228.58,0,0,0,33.77,42.94C869.49,2308.59,1013.85,2308.59,1102.89,2219.55Zm-32.26-32.26a182.38,182.38,0,1,1,0-257.92A182.38,182.38,0,0,1,1070.63,2187.29Z"/></g><g id="change3_3"><path fill="#8de39c" d="M2215.08,1826.66a279.86,279.86,0,0,0-354.48,33.93,280.88,280.88,0,0,0-41.41,52.67c-1,1.63-2,3.33-3.06,5.18a280.09,280.09,0,0,0,0,279.77c1.06,1.85,2.07,3.55,3.07,5.19q3.6,5.91,7.5,11.65a280.54,280.54,0,0,0,30.32,37.36,5,5,0,0,0,7.16.08h0a5,5,0,0,0,.07-7,270.51,270.51,0,0,1-36.51-47.31c-1-1.56-1.91-3.19-2.94-5a270,270,0,0,1,0-269.79c1-1.79,2-3.41,2.93-5a271.85,271.85,0,0,1,39.94-50.8c104-104,272.44-105.11,377.83-3.42a5,5,0,0,0,7-.07h0a5,5,0,0,0-.08-7.16A280.65,280.65,0,0,0,2215.08,1826.66Z"/></g><g id="change3_4"><circle fill="#8de39c" r="20.9" cx="1863.64" cy="1863.64"/></g><g id="change3_5"><path fill="#8de39c" d="M2219.55,2219.55a228.58,228.58,0,0,0,33.77-42.94q1.28-2.1,2.49-4.22a228.39,228.39,0,0,0,0-228.12c-.81-1.41-1.64-2.82-2.49-4.21a228.43,228.43,0,0,0-195-109.73c-2.73,0-5.47.06-8.2.15s-5.47.25-8.2.44-5.45.44-8.18.73q-2.71.3-5.44.65c-1.81.24-3.62.51-5.42.79q-4.07.63-8.11,1.42a224.66,224.66,0,0,0-26.63,6.84q-3.95,1.28-7.85,2.69a226.24,226.24,0,0,0-35.39,16.44c-1.62.93-3.24,1.89-4.85,2.86a228.43,228.43,0,0,0-109.73,195c0,2.74.06,5.47.15,8.21s.25,5.46.44,8.19.44,5.46.73,8.18q.3,2.73.65,5.44c.24,1.81.51,3.62.79,5.42q.63,4.07,1.42,8.11a225.32,225.32,0,0,0,6.84,26.64q1.28,3.95,2.69,7.84a226.24,226.24,0,0,0,16.44,35.39c.93,1.63,1.89,3.25,2.86,4.86a228.58,228.58,0,0,0,33.77,42.94C1986.15,2308.59,2130.51,2308.59,2219.55,2219.55Zm-290.18-290.18a182.38,182.38,0,1,1,0,257.92A182.38,182.38,0,0,1,1929.37,1929.37Z"/></g><g id="change1_6"><path fill="#197629" d="M1177.94 1117.07H1187.94V1248.8H1177.94z" transform="rotate(-45 1182.94 1182.94)"/></g><g id="change2_6"><path fill="#c2f2ca" d="M1117.07 1812.06H1248.8V1822.06H1117.07z" transform="rotate(-45 1182.94 1817.06)"/></g><g id="change4_6"><path fill="#59b168" d="M1751.2 1177.94H1882.93V1187.94H1751.2z" transform="rotate(-45 1817.06 1182.94)"/></g><g id="change3_6"><path fill="#8de39c" d="M1812.06 1751.19H1822.06V1882.92H1812.06z" transform="rotate(-45 1817.06 1817.059)"/></g></svg>