<?xml version="1.0" encoding="UTF-8" standalone="no"?><svg xmlns="http://www.w3.org/2000/svg" xmlns:xlink="http://www.w3.org/1999/xlink" contentScriptType="text/ecmascript" fill="none" width="4492.4" zoomAndPan="magnify" style="fill: none" contentStyleType="text/css" viewBox="0.0 0.0 4492.4 4621.7" height="4621.7" preserveAspectRatio="xMidYMid meet" version="1"><g filter="url(#a)"><g id="change1_1"><path fill="#ee46d3" d="M2616.02 1300H1896.25C1577.9 1300 1319.83 1558.07 1319.83 1876.42C1319.83 2194.77 1577.9 2452.84 1896.25 2452.84H2616.02C2934.37 2452.84 3192.44 2194.77 3192.44 1876.42C3192.44 1558.07 2934.37 1300 2616.02 1300Z"/></g><g id="change2_1"><path fill="#1bc47d" d="M2372.75 2039.17H1941.26C1587.1 2039.17 1300 2326.27 1300 2680.43C1300 3034.59 1587.1 3321.69 1941.26 3321.69H2372.75C2726.91 3321.69 3014.01 3034.59 3014.01 2680.43C3014.01 2326.27 2726.91 2039.17 2372.75 2039.17Z"/></g><g id="change3_1"><path fill="#18a0fb" d="M2198.41 1398.56H1969.61C1632.64 1398.56 1359.48 1671.72 1359.48 2008.69C1359.48 2345.66 1632.64 2618.83 1969.61 2618.83H2198.41C2535.38 2618.83 2808.55 2345.66 2808.55 2008.69C2808.55 1671.72 2535.38 1398.56 2198.41 1398.56Z"/></g></g><defs><filter x="0" color-interpolation-filters="sRGB" y="0" width="4492.44" xlink:type="simple" filterUnits="userSpaceOnUse" xlink:actuate="onLoad" id="a" height="4621.69" xlink:show="other"><feFlood result="BackgroundImageFix" flood-opacity="0"/><feBlend result="shape" in2="BackgroundImageFix" in="SourceGraphic"/><feGaussianBlur stdDeviation="650" result="effect1_foregroundBlur_2340_29"/></filter></defs></svg>