<?xml version="1.0" encoding="UTF-8" standalone="no"?><svg xmlns="http://www.w3.org/2000/svg" xmlns:xlink="http://www.w3.org/1999/xlink" contentScriptType="text/ecmascript" fill="#000000" width="422.6" zoomAndPan="magnify" contentStyleType="text/css" viewBox="-0.1 0.0 422.6 434.6" height="434.6" data-name="Layer 1" preserveAspectRatio="xMidYMid meet" version="1"><defs><radialGradient gradientUnits="userSpaceOnUse" xlink:type="simple" r="214.24" xlink:actuate="onLoad" cx="211.19" id="a" cy="217.24" xlink:show="other"><stop stop-color="#1a1a1a" offset="0.37"/><stop stop-color="#f2f2f2" offset="1"/></radialGradient></defs><path fill="url(#a)" d="M290,0s0,0,0,0a0,0,0,0,0,0,0s0,0,0,0A0,0,0,0,0,290,0ZM106.18,13.17a.09.09,0,0,0-.08-.08.08.08,0,0,0-.07.08.07.07,0,0,0,.07.07A.08.08,0,0,0,106.18,13.17Zm13,.22a.22.22,0,0,0,0-.44.22.22,0,0,0,0,.44Zm13.14.21a.43.43,0,0,0,.43-.43.44.44,0,1,0-.87,0A.43.43,0,0,0,132.37,13.6Zm13.13.19a.62.62,0,1,0,0-1.24.62.62,0,0,0,0,1.24Zm13.13.14a.77.77,0,1,0-.77-.76A.76.76,0,0,0,158.63,13.93Zm13.13.15a.91.91,0,1,0-.91-.91A.91.91,0,0,0,171.76,14.08Zm13.13.07a1,1,0,1,0-1-1A1,1,0,0,0,184.89,14.15Zm13.13.07A1.06,1.06,0,1,0,197,13.17,1.06,1.06,0,0,0,198,14.22Zm13.13,0a1.06,1.06,0,1,0-1.06-1.05A1.06,1.06,0,0,0,211.15,14.22Zm13.13,0a1.06,1.06,0,1,0-1.05-1.05A1.06,1.06,0,0,0,224.28,14.22Zm13.13-.07a1,1,0,1,0-1-1A1,1,0,0,0,237.41,14.15Zm13.13-.07a.91.91,0,1,0-.91-.91A.91.91,0,0,0,250.54,14.08ZM263.67,14a.8.8,0,1,0,0-1.6.8.8,0,0,0,0,1.6Zm13.14-.15a.65.65,0,0,0,.65-.65.66.66,0,1,0-.65.65Zm13.13-.22a.43.43,0,0,0,.43-.43.44.44,0,0,0-.43-.44.44.44,0,0,0-.44.44A.44.44,0,0,0,289.94,13.6Zm13.13-.18a.25.25,0,0,0,.25-.25.26.26,0,0,0-.25-.26.26.26,0,0,0-.26.26A.26.26,0,0,0,303.07,13.42Zm13.2-.25a.07.07,0,1,0-.14,0,.07.07,0,0,0,.14,0ZM79.88,26.3a0,0,0,0,0,0,0s0,0,0,0a0,0,0,0,0,0,0S79.88,26.32,79.88,26.3ZM93,26.52a.22.22,0,1,0-.22-.22A.22.22,0,0,0,93,26.52Zm13.13.25a.48.48,0,0,0,.48-.47.49.49,0,0,0-.48-.48.48.48,0,0,0-.47.48A.47.47,0,0,0,106.1,26.77Zm13.13.26a.73.73,0,1,0-.72-.73A.73.73,0,0,0,119.23,27Zm13.14.25a1,1,0,1,0-1-1A1,1,0,0,0,132.37,27.28Zm13.13.18a1.17,1.17,0,1,0-1.17-1.16A1.16,1.16,0,0,0,145.5,27.46Zm13.13.19a1.35,1.35,0,1,0-1.35-1.35A1.35,1.35,0,0,0,158.63,27.65Zm13.13.1a1.46,1.46,0,1,0-1.46-1.45A1.45,1.45,0,0,0,171.76,27.75Zm13.13.11a1.57,1.57,0,1,0-1.57-1.56A1.56,1.56,0,0,0,184.89,27.86Zm13.13,0a1.6,1.6,0,1,0-1.6-1.6A1.6,1.6,0,0,0,198,27.9Zm13.13,0a1.64,1.64,0,1,0-1.64-1.64A1.64,1.64,0,0,0,211.15,27.94Zm13.13,0a1.6,1.6,0,1,0-1.6-1.6A1.6,1.6,0,0,0,224.28,27.9Zm13.13,0a1.57,1.57,0,1,0-1.56-1.56A1.56,1.56,0,0,0,237.41,27.86Zm13.13-.11a1.46,1.46,0,1,0-1.45-1.45A1.45,1.45,0,0,0,250.54,27.75Zm13.13-.1a1.35,1.35,0,1,0-1.34-1.35A1.35,1.35,0,0,0,263.67,27.65Zm13.14-.19a1.17,1.17,0,1,0-1.17-1.16A1.16,1.16,0,0,0,276.81,27.46Zm13.13-.18a1,1,0,1,0-1-1A1,1,0,0,0,289.94,27.28Zm13.13-.22a.76.76,0,0,0,.76-.76.77.77,0,0,0-.76-.77.78.78,0,0,0-.77.77A.77.77,0,0,0,303.07,27.06Zm13.13-.25a.51.51,0,1,0-.51-.51A.51.51,0,0,0,316.2,26.81Zm13.13-.29a.22.22,0,1,0-.22-.22A.22.22,0,0,0,329.33,26.52Zm13.17-.22a0,0,0,0,0-.08,0s0,0,0,0S342.5,26.32,342.5,26.3ZM66.78,39.43a.07.07,0,1,0-.07.07A.07.07,0,0,0,66.78,39.43Zm13.06.36a.36.36,0,1,0,0-.72.36.36,0,0,0,0,.72ZM93,40.12a.69.69,0,1,0-.69-.69A.69.69,0,0,0,93,40.12Zm13.13.29a1,1,0,1,0-1-1A1,1,0,0,0,106.1,40.41Zm13.13.26A1.24,1.24,0,1,0,118,39.43,1.24,1.24,0,0,0,119.23,40.67Zm13.14.25a1.49,1.49,0,1,0-1.5-1.49A1.49,1.49,0,0,0,132.37,40.92Zm13.13.22a1.71,1.71,0,1,0-1.72-1.71A1.72,1.72,0,0,0,145.5,41.14Zm13.13.18a1.89,1.89,0,1,0-1.9-1.89A1.89,1.89,0,0,0,158.63,41.32Zm13.13.15a2,2,0,1,0-2-2A2,2,0,0,0,171.76,41.47Zm13.13.11a2.15,2.15,0,1,0-2.15-2.15A2.15,2.15,0,0,0,184.89,41.58Zm13.13,0a2.19,2.19,0,1,0-2.18-2.18A2.17,2.17,0,0,0,198,41.61Zm13.13,0A2.19,2.19,0,1,0,209,39.43,2.18,2.18,0,0,0,211.15,41.61Zm13.13,0a2.19,2.19,0,1,0-2.18-2.18A2.18,2.18,0,0,0,224.28,41.61Zm13.13,0a2.15,2.15,0,1,0-2.15-2.15A2.15,2.15,0,0,0,237.41,41.58Zm13.13-.11a2,2,0,1,0-2-2A2,2,0,0,0,250.54,41.47Zm13.13-.15a1.89,1.89,0,1,0-1.89-1.89A1.9,1.9,0,0,0,263.67,41.32Zm13.14-.18a1.71,1.71,0,1,0-1.72-1.71A1.72,1.72,0,0,0,276.81,41.14ZM289.94,41a1.53,1.53,0,1,0-1.53-1.53A1.54,1.54,0,0,0,289.94,41Zm13.13-.26a1.28,1.28,0,1,0-1.28-1.27A1.27,1.27,0,0,0,303.07,40.7Zm13.13-.25a1,1,0,1,0-1-1A1,1,0,0,0,316.2,40.45Zm13.13-.29a.73.73,0,1,0-.73-.73A.73.73,0,0,0,329.33,40.16Zm13.13-.33a.4.4,0,1,0-.4-.4A.4.4,0,0,0,342.46,39.83Zm13.13-.29a.11.11,0,1,0-.11-.11A.11.11,0,0,0,355.59,39.54Zm-302,13.13a.11.11,0,1,0-.11-.11A.11.11,0,0,0,53.58,52.67ZM66.71,53a.47.47,0,1,0-.47-.47A.47.47,0,0,0,66.71,53Zm13.13.37a.84.84,0,1,0-.84-.84A.85.85,0,0,0,79.84,53.4ZM93,53.73a1.17,1.17,0,1,0-1.16-1.17A1.17,1.17,0,0,0,93,53.73Zm13.13.32a1.49,1.49,0,1,0-1.49-1.49A1.5,1.5,0,0,0,106.1,54.05Zm13.13.29a1.78,1.78,0,1,0-1.78-1.78A1.78,1.78,0,0,0,119.23,54.34Zm13.14.26a2,2,0,1,0-2-2A2,2,0,0,0,132.37,54.6Zm13.13.22a2.26,2.26,0,1,0-2.26-2.26A2.26,2.26,0,0,0,145.5,54.82Zm13.13.18a2.44,2.44,0,1,0-2.44-2.44A2.44,2.44,0,0,0,158.63,55Zm13.13.15a2.59,2.59,0,1,0-2.59-2.59A2.58,2.58,0,0,0,171.76,55.15Zm13.13.1a2.69,2.69,0,1,0-2.7-2.69A2.68,2.68,0,0,0,184.89,55.25Zm13.13.08a2.77,2.77,0,1,0-2.77-2.77A2.77,2.77,0,0,0,198,55.33Zm13.13,0a2.77,2.77,0,1,0-2.77-2.77A2.77,2.77,0,0,0,211.15,55.33Zm13.13,0a2.77,2.77,0,1,0-2.77-2.77A2.77,2.77,0,0,0,224.28,55.33Zm13.13-.08a2.69,2.69,0,1,0-2.69-2.69A2.69,2.69,0,0,0,237.41,55.25Zm13.13-.1A2.59,2.59,0,1,0,248,52.56,2.59,2.59,0,0,0,250.54,55.15ZM263.67,55a2.44,2.44,0,1,0-2.44-2.44A2.44,2.44,0,0,0,263.67,55Zm13.14-.18a2.26,2.26,0,1,0-2.26-2.26A2.26,2.26,0,0,0,276.81,54.82Zm13.13-.22a2,2,0,1,0-2-2A2,2,0,0,0,289.94,54.6Zm13.13-.26a1.78,1.78,0,1,0-1.79-1.78A1.78,1.78,0,0,0,303.07,54.34Zm13.13-.29a1.49,1.49,0,1,0-1.49-1.49A1.49,1.49,0,0,0,316.2,54.05Zm13.13-.29a1.2,1.2,0,1,0-1.2-1.2A1.2,1.2,0,0,0,329.33,53.76Zm13.13-.33a.87.87,0,1,0-.87-.87A.87.87,0,0,0,342.46,53.43Zm13.13-.36a.51.51,0,1,0-.51-.51A.51.51,0,0,0,355.59,53.07Zm13.13-.36a.15.15,0,1,0,0-.3.15.15,0,0,0,0,.3ZM40.45,65.8a.11.11,0,1,0-.11-.11A.11.11,0,0,0,40.45,65.8Zm13.13.4a.51.51,0,1,0-.51-.51A.51.51,0,0,0,53.58,66.2Zm13.13.4a.91.91,0,1,0-.91-.91A.91.91,0,0,0,66.71,66.6ZM79.84,67a1.28,1.28,0,1,0-1.27-1.28A1.28,1.28,0,0,0,79.84,67ZM93,67.33a1.64,1.64,0,1,0-1.64-1.64A1.63,1.63,0,0,0,93,67.33Zm13.13.33a2,2,0,1,0-2-2A2,2,0,0,0,106.1,67.66Zm13.13.29A2.26,2.26,0,1,0,117,65.69,2.26,2.26,0,0,0,119.23,68Zm13.14.29a2.55,2.55,0,1,0-2.55-2.55A2.55,2.55,0,0,0,132.37,68.24Zm13.13.22a2.77,2.77,0,1,0-2.77-2.77A2.77,2.77,0,0,0,145.5,68.46Zm13.13.22a3,3,0,1,0-3-3A3,3,0,0,0,158.63,68.68Zm13.13.14a3.13,3.13,0,1,0-3.13-3.13A3.13,3.13,0,0,0,171.76,68.82Zm13.13.15a3.28,3.28,0,1,0-3.28-3.28A3.28,3.28,0,0,0,184.89,69ZM198,69a3.35,3.35,0,1,0-3.35-3.35A3.35,3.35,0,0,0,198,69Zm13.13,0a3.35,3.35,0,1,0-3.35-3.35A3.35,3.35,0,0,0,211.15,69Zm13.13,0a3.35,3.35,0,1,0-3.35-3.35A3.35,3.35,0,0,0,224.28,69ZM237.41,69a3.28,3.28,0,1,0-3.27-3.28A3.28,3.28,0,0,0,237.41,69Zm13.13-.11a3.17,3.17,0,1,0-3.16-3.17A3.17,3.17,0,0,0,250.54,68.86Zm13.13-.18a3,3,0,1,0-3-3A3,3,0,0,0,263.67,68.68Zm13.14-.19a2.8,2.8,0,1,0-2.81-2.8A2.8,2.8,0,0,0,276.81,68.49Zm13.13-.25a2.55,2.55,0,1,0-2.55-2.55A2.55,2.55,0,0,0,289.94,68.24ZM303.07,68a2.29,2.29,0,1,0-2.3-2.29A2.29,2.29,0,0,0,303.07,68Zm13.13-.29a2,2,0,1,0-2-2A2,2,0,0,0,316.2,67.69Zm13.13-.32a1.68,1.68,0,1,0-1.68-1.68A1.68,1.68,0,0,0,329.33,67.37ZM342.46,67a1.31,1.31,0,1,0-1.31-1.31A1.31,1.31,0,0,0,342.46,67Zm13.13-.36a1,1,0,1,0-.95-1A1,1,0,0,0,355.59,66.64Zm13.13-.4a.55.55,0,0,0,0-1.1.55.55,0,0,0,0,1.1Zm13.13-.4a.15.15,0,0,0,.15-.15.15.15,0,0,0-.15-.14.14.14,0,0,0-.14.14A.15.15,0,0,0,381.85,65.84Zm-354.46,13a.07.07,0,1,0-.07.07A.07.07,0,0,0,27.39,78.82Zm13.06.48a.48.48,0,0,0,.47-.48.47.47,0,1,0-.94,0A.48.48,0,0,0,40.45,79.3Zm13.13.43a.91.91,0,1,0-.91-.91A.91.91,0,0,0,53.58,79.73Zm13.13.4a1.31,1.31,0,1,0-1.31-1.31A1.31,1.31,0,0,0,66.71,80.13Zm13.13.4a1.71,1.71,0,1,0-1.71-1.71A1.7,1.7,0,0,0,79.84,80.53ZM93,80.9a2.08,2.08,0,1,0-2.07-2.08A2.08,2.08,0,0,0,93,80.9Zm13.13.36a2.44,2.44,0,1,0-2.44-2.44A2.44,2.44,0,0,0,106.1,81.26Zm13.13.33a2.77,2.77,0,1,0-2.76-2.77A2.77,2.77,0,0,0,119.23,81.59Zm13.14.29a3.06,3.06,0,1,0-3.06-3.06A3.06,3.06,0,0,0,132.37,81.88Zm13.13.26a3.32,3.32,0,1,0-3.32-3.32A3.32,3.32,0,0,0,145.5,82.14Zm13.13.21a3.53,3.53,0,1,0-3.54-3.53A3.53,3.53,0,0,0,158.63,82.35Zm13.13.19A3.72,3.72,0,1,0,168,78.82,3.72,3.72,0,0,0,171.76,82.54Zm13.13.11a3.83,3.83,0,1,0-3.82-3.83A3.83,3.83,0,0,0,184.89,82.65Zm13.13.07a3.9,3.9,0,1,0-3.9-3.9A3.91,3.91,0,0,0,198,82.72Zm13.13,0a3.93,3.93,0,1,0-3.93-3.93A3.93,3.93,0,0,0,211.15,82.75Zm13.13,0a3.9,3.9,0,1,0-3.89-3.9A3.91,3.91,0,0,0,224.28,82.72Zm13.13-.07a3.83,3.83,0,1,0-3.82-3.83A3.84,3.84,0,0,0,237.41,82.65Zm13.13-.11a3.72,3.72,0,1,0-3.71-3.72A3.73,3.73,0,0,0,250.54,82.54Zm13.13-.19a3.53,3.53,0,1,0-3.53-3.53A3.54,3.54,0,0,0,263.67,82.35Zm13.14-.21a3.32,3.32,0,1,0-3.32-3.32A3.32,3.32,0,0,0,276.81,82.14Zm13.13-.26a3.06,3.06,0,1,0-3.06-3.06A3.05,3.05,0,0,0,289.94,81.88Zm13.13-.29a2.77,2.77,0,1,0-2.77-2.77A2.76,2.76,0,0,0,303.07,81.59Zm13.13-.29a2.48,2.48,0,1,0-2.48-2.48A2.47,2.47,0,0,0,316.2,81.3Zm13.13-.37a2.11,2.11,0,1,0-2.11-2.11A2.1,2.1,0,0,0,329.33,80.93Zm13.13-.36a1.75,1.75,0,1,0-1.75-1.75A1.75,1.75,0,0,0,342.46,80.57Zm13.13-.4a1.35,1.35,0,1,0-1.35-1.35A1.35,1.35,0,0,0,355.59,80.17Zm13.13-.4a.95.95,0,1,0,0-1.89.95.95,0,0,0,0,1.89Zm13.13-.44a.51.51,0,1,0-.51-.51A.51.51,0,0,0,381.85,79.33Zm13.13-.4a.11.11,0,1,0-.11-.11A.11.11,0,0,0,395,78.93ZM14.22,92a0,0,0,0,0,0,0s0,0,0,0a0,0,0,0,0,0,0S14.22,92,14.22,92Zm13.1.37a.37.37,0,0,0,.36-.37.36.36,0,0,0-.36-.36A.37.37,0,0,0,27,92,.38.38,0,0,0,27.32,92.32Zm13.13.47a.84.84,0,1,0-.84-.84A.84.84,0,0,0,40.45,92.79Zm13.13.44A1.28,1.28,0,1,0,52.31,92,1.27,1.27,0,0,0,53.58,93.23Zm13.13.43A1.71,1.71,0,1,0,65,92,1.7,1.7,0,0,0,66.71,93.66Zm13.13.4A2.11,2.11,0,1,0,77.73,92,2.1,2.1,0,0,0,79.84,94.06ZM93,94.47A2.52,2.52,0,1,0,90.46,92,2.51,2.51,0,0,0,93,94.47Zm13.13.36A2.88,2.88,0,1,0,103.23,92,2.88,2.88,0,0,0,106.1,94.83Zm13.13.36A3.24,3.24,0,1,0,116,92,3.24,3.24,0,0,0,119.23,95.19Zm13.14.29A3.53,3.53,0,1,0,128.83,92,3.53,3.53,0,0,0,132.37,95.48Zm13.13.3A3.83,3.83,0,1,0,141.67,92,3.83,3.83,0,0,0,145.5,95.78Zm13.13.21a4,4,0,1,0-4-4A4,4,0,0,0,158.63,96Zm13.13.22A4.26,4.26,0,1,0,167.5,92,4.26,4.26,0,0,0,171.76,96.21Zm13.13.15A4.41,4.41,0,1,0,180.48,92,4.4,4.4,0,0,0,184.89,96.36Zm13.13.07A4.48,4.48,0,1,0,193.54,92,4.48,4.48,0,0,0,198,96.43Zm13.13,0A4.52,4.52,0,1,0,206.64,92,4.52,4.52,0,0,0,211.15,96.47Zm13.13,0A4.48,4.48,0,1,0,219.8,92,4.47,4.47,0,0,0,224.28,96.43Zm13.13-.07A4.41,4.41,0,1,0,233,92,4.4,4.4,0,0,0,237.41,96.36Zm13.13-.15A4.26,4.26,0,1,0,246.28,92,4.25,4.25,0,0,0,250.54,96.21ZM263.67,96A4.08,4.08,0,1,0,259.6,92,4.07,4.07,0,0,0,263.67,96Zm13.14-.22A3.86,3.86,0,1,0,273,92,3.86,3.86,0,0,0,276.81,95.81Zm13.13-.29A3.57,3.57,0,1,0,286.37,92,3.56,3.56,0,0,0,289.94,95.52Zm13.13-.29A3.28,3.28,0,1,0,299.79,92,3.27,3.27,0,0,0,303.07,95.23Zm13.13-.36A2.92,2.92,0,1,0,313.29,92,2.91,2.91,0,0,0,316.2,94.87Zm13.13-.37A2.55,2.55,0,1,0,326.78,92,2.55,2.55,0,0,0,329.33,94.5Zm13.13-.4A2.15,2.15,0,1,0,340.31,92,2.15,2.15,0,0,0,342.46,94.1Zm13.13-.4A1.75,1.75,0,1,0,353.84,92,1.75,1.75,0,0,0,355.59,93.7Zm13.13-.44A1.31,1.31,0,1,0,367.41,92,1.3,1.3,0,0,0,368.72,93.26Zm13.13-.43A.88.88,0,1,0,381,92,.87.87,0,0,0,381.85,92.83ZM395,92.35a.4.4,0,1,0,0-.8.4.4,0,0,0,0,.8Zm13.17-.4s0,0,0,0a0,0,0,0,0,0,0s0,0,0,0A0,0,0,0,0,408.15,92Zm-394,13.35a.22.22,0,0,0,.22-.22.22.22,0,0,0-.44,0A.22.22,0,0,0,14.19,105.3Zm13.13.48a.7.7,0,1,0-.69-.7A.69.69,0,0,0,27.32,105.78Zm13.13.47a1.17,1.17,0,1,0-1.17-1.17A1.16,1.16,0,0,0,40.45,106.25Zm13.13.47a1.64,1.64,0,1,0-1.64-1.64A1.64,1.64,0,0,0,53.58,106.72Zm13.13.44a2.08,2.08,0,1,0-2.07-2.08A2.08,2.08,0,0,0,66.71,107.16Zm13.13.44a2.52,2.52,0,1,0-2.51-2.52A2.51,2.51,0,0,0,79.84,107.6ZM93,108a3,3,0,1,0-3-3A2.95,2.95,0,0,0,93,108Zm13.13.37a3.32,3.32,0,1,0-3.31-3.32A3.32,3.32,0,0,0,106.1,108.4Zm13.13.36a3.68,3.68,0,1,0-3.67-3.68A3.68,3.68,0,0,0,119.23,108.76Zm13.14.37a4,4,0,1,0-4.05-4A4,4,0,0,0,132.37,109.13Zm13.13.29a4.34,4.34,0,1,0-4.34-4.34A4.33,4.33,0,0,0,145.5,109.42Zm13.13.25a4.59,4.59,0,1,0-4.59-4.59A4.58,4.58,0,0,0,158.63,109.67Zm13.13.22a4.81,4.81,0,1,0-4.81-4.81A4.8,4.8,0,0,0,171.76,109.89Zm13.13.15a5,5,0,1,0-4.95-5A5,5,0,0,0,184.89,110Zm13.13.11a5.07,5.07,0,1,0-5.06-5.07A5.07,5.07,0,0,0,198,110.15Zm13.13,0a5.07,5.07,0,1,0-5.06-5.07A5.06,5.06,0,0,0,211.15,110.15Zm13.13,0a5.07,5.07,0,1,0-5.06-5.07A5.06,5.06,0,0,0,224.28,110.15Zm13.13-.11a5,5,0,1,0-4.95-5A5,5,0,0,0,237.41,110Zm13.13-.15a4.81,4.81,0,1,0-4.8-4.81A4.81,4.81,0,0,0,250.54,109.89Zm13.13-.18a4.63,4.63,0,1,0-4.62-4.63A4.63,4.63,0,0,0,263.67,109.71Zm13.14-.26a4.37,4.37,0,1,0-4.37-4.37A4.36,4.36,0,0,0,276.81,109.45Zm13.13-.32a4,4,0,1,0-4.05-4A4,4,0,0,0,289.94,109.13Zm13.13-.33a3.72,3.72,0,1,0-3.72-3.72A3.72,3.72,0,0,0,303.07,108.8Zm13.13-.37a3.35,3.35,0,1,0-3.35-3.35A3.35,3.35,0,0,0,316.2,108.43Zm13.13-.36a3,3,0,1,0-3-3A3,3,0,0,0,329.33,108.07Zm13.13-.44a2.55,2.55,0,1,0-2.55-2.55A2.55,2.55,0,0,0,342.46,107.63Zm13.13-.43a2.12,2.12,0,1,0-2.11-2.12A2.11,2.11,0,0,0,355.59,107.2Zm13.13-.44a1.68,1.68,0,1,0-1.67-1.68A1.68,1.68,0,0,0,368.72,106.76Zm13.13-.47a1.21,1.21,0,1,0-1.2-1.21A1.2,1.2,0,0,0,381.85,106.29Zm13.13-.48a.73.73,0,1,0-.72-.73A.72.72,0,0,0,395,105.81Zm13.13-.47a.26.26,0,0,0,.26-.26.26.26,0,0,0-.51,0A.26.26,0,0,0,408.11,105.34Zm-407,12.87a.07.07,0,0,0-.07-.07.08.08,0,0,0-.08.07.09.09,0,0,0,.08.08A.08.08,0,0,0,1.13,118.21Zm13.06.48a.48.48,0,0,0,0-1,.48.48,0,1,0,0,1Zm13.13.51a1,1,0,1,0-1-1A1,1,0,0,0,27.32,119.2Zm13.13.51a1.5,1.5,0,1,0-1.49-1.5A1.5,1.5,0,0,0,40.45,119.71Zm13.13.47a2,2,0,1,0-2-2A2,2,0,0,0,53.58,120.18Zm13.13.47a2.44,2.44,0,1,0-2.44-2.44A2.44,2.44,0,0,0,66.71,120.65Zm13.13.44A2.88,2.88,0,1,0,77,118.21,2.88,2.88,0,0,0,79.84,121.09Zm13.13.44a3.32,3.32,0,1,0-3.31-3.32A3.32,3.32,0,0,0,93,121.53Zm13.13.44a3.76,3.76,0,1,0-3.75-3.76A3.75,3.75,0,0,0,106.1,122Zm13.13.4a4.16,4.16,0,1,0-4.15-4.16A4.16,4.16,0,0,0,119.23,122.37Zm13.14.36a4.52,4.52,0,1,0-4.52-4.52A4.51,4.51,0,0,0,132.37,122.73Zm13.13.29a4.81,4.81,0,1,0-4.81-4.81A4.8,4.8,0,0,0,145.5,123Zm13.13.29a5.1,5.1,0,1,0-5.1-5.1A5.09,5.09,0,0,0,158.63,123.31Zm13.13.26a5.36,5.36,0,1,0-5.35-5.36A5.36,5.36,0,0,0,171.76,123.57Zm13.13.14a5.5,5.5,0,1,0-5.5-5.5A5.5,5.5,0,0,0,184.89,123.71Zm13.13.11a5.61,5.61,0,1,0-5.61-5.61A5.61,5.61,0,0,0,198,123.82Zm13.13,0a5.65,5.65,0,1,0-5.64-5.65A5.64,5.64,0,0,0,211.15,123.86Zm13.13,0a5.61,5.61,0,1,0-5.61-5.61A5.61,5.61,0,0,0,224.28,123.82Zm13.13-.07a5.54,5.54,0,1,0-5.53-5.54A5.54,5.54,0,0,0,237.41,123.75Zm13.13-.18a5.36,5.36,0,1,0-5.35-5.36A5.36,5.36,0,0,0,250.54,123.57Zm13.13-.22a5.14,5.14,0,1,0-5.13-5.14A5.14,5.14,0,0,0,263.67,123.35Zm13.14-.29a4.85,4.85,0,1,0-4.85-4.85A4.85,4.85,0,0,0,276.81,123.06Zm13.13-.33a4.52,4.52,0,1,0-4.52-4.52A4.51,4.51,0,0,0,289.94,122.73Zm13.13-.33a4.19,4.19,0,1,0-4.19-4.19A4.18,4.18,0,0,0,303.07,122.4Zm13.13-.4a3.79,3.79,0,1,0-3.79-3.79A3.79,3.79,0,0,0,316.2,122Zm13.13-.4a3.39,3.39,0,1,0-3.39-3.39A3.39,3.39,0,0,0,329.33,121.6Zm13.13-.47a2.92,2.92,0,1,0-2.91-2.92A2.91,2.91,0,0,0,342.46,121.13Zm13.13-.44a2.48,2.48,0,1,0-2.48-2.48A2.48,2.48,0,0,0,355.59,120.69Zm13.13-.47a2,2,0,1,0-2-2A2,2,0,0,0,368.72,120.22Zm13.13-.48a1.53,1.53,0,1,0-1.53-1.53A1.52,1.52,0,0,0,381.85,119.74Zm13.13-.51a1,1,0,1,0-1-1A1,1,0,0,0,395,119.23Zm13.13-.47a.55.55,0,1,0-.54-.55A.54.54,0,0,0,408.11,118.76Zm13.21-.55a.07.07,0,0,0-.07-.07.08.08,0,0,0-.08.07.09.09,0,0,0,.08.08A.08.08,0,0,0,421.32,118.21ZM1.06,131.56a.21.21,0,0,0,.21-.21.21.21,0,0,0-.21-.22.22.22,0,1,0,0,.43Zm13.13.51a.73.73,0,1,0-.73-.72A.73.73,0,0,0,14.19,132.07Zm13.13.51a1.24,1.24,0,1,0-1.24-1.23A1.24,1.24,0,0,0,27.32,132.58Zm13.13.55a1.79,1.79,0,1,0-1.79-1.78A1.78,1.78,0,0,0,40.45,133.13Zm13.13.47a2.26,2.26,0,1,0-2.26-2.25A2.26,2.26,0,0,0,53.58,133.6Zm13.13.51a2.77,2.77,0,1,0-2.77-2.76A2.77,2.77,0,0,0,66.71,134.11Zm13.13.48a3.25,3.25,0,1,0-3.24-3.24A3.24,3.24,0,0,0,79.84,134.59ZM93,135a3.68,3.68,0,1,0-3.68-3.67A3.67,3.67,0,0,0,93,135Zm13.13.48a4.16,4.16,0,1,0-4.15-4.15A4.15,4.15,0,0,0,106.1,135.5Zm13.13.4a4.56,4.56,0,1,0-4.55-4.55A4.56,4.56,0,0,0,119.23,135.9Zm13.14.4a5,5,0,1,0-5-5A5,5,0,0,0,132.37,136.3Zm13.13.36a5.32,5.32,0,1,0-5.32-5.31A5.31,5.31,0,0,0,145.5,136.66Zm13.13.29a5.61,5.61,0,1,0-5.61-5.6A5.6,5.6,0,0,0,158.63,137Zm13.13.26a5.87,5.87,0,1,0-5.86-5.86A5.86,5.86,0,0,0,171.76,137.21Zm13.13.18a6,6,0,1,0-6-6A6,6,0,0,0,184.89,137.39Zm13.13.15a6.19,6.19,0,1,0-6.19-6.19A6.19,6.19,0,0,0,198,137.54Zm13.13,0a6.23,6.23,0,1,0-6.23-6.22A6.23,6.23,0,0,0,211.15,137.57Zm13.13,0a6.19,6.19,0,1,0-6.19-6.19A6.19,6.19,0,0,0,224.28,137.54Zm13.13-.11a6.08,6.08,0,1,0-6.08-6.08A6.08,6.08,0,0,0,237.41,137.43Zm13.13-.19a5.9,5.9,0,1,0-5.89-5.89A5.9,5.9,0,0,0,250.54,137.24Zm13.13-.25a5.65,5.65,0,1,0-5.64-5.64A5.65,5.65,0,0,0,263.67,137Zm13.14-.33a5.32,5.32,0,1,0-5.32-5.31A5.31,5.31,0,0,0,276.81,136.66Zm13.13-.33a5,5,0,1,0-5-5A5,5,0,0,0,289.94,136.33Zm13.13-.4a4.59,4.59,0,1,0-4.59-4.58A4.59,4.59,0,0,0,303.07,135.93Zm13.13-.4a4.19,4.19,0,1,0-4.19-4.18A4.19,4.19,0,0,0,316.2,135.53Zm13.13-.43a3.75,3.75,0,1,0-3.75-3.75A3.75,3.75,0,0,0,329.33,135.1Zm13.13-.48a3.28,3.28,0,1,0-3.28-3.27A3.27,3.27,0,0,0,342.46,134.62Zm13.13-.47a2.81,2.81,0,1,0-2.8-2.8A2.8,2.8,0,0,0,355.59,134.15Zm13.13-.47a2.33,2.33,0,1,0-2.33-2.33A2.33,2.33,0,0,0,368.72,133.68Zm13.13-.51a1.82,1.82,0,1,0-1.82-1.82A1.82,1.82,0,0,0,381.85,133.17Zm13.13-.51a1.32,1.32,0,1,0-1.31-1.31A1.31,1.31,0,0,0,395,132.66Zm13.13-.51a.81.81,0,1,0-.8-.8A.8.8,0,0,0,408.11,132.15Zm13.14-.55a.26.26,0,0,0,0-.51.26.26,0,1,0,0,.51ZM1.06,144.91a.43.43,0,0,0,.43-.43.44.44,0,1,0-.87,0A.43.43,0,0,0,1.06,144.91Zm13.13.55a1,1,0,1,0-1-1A1,1,0,0,0,14.19,145.46Zm13.13.51a1.5,1.5,0,1,0-1.5-1.49A1.49,1.49,0,0,0,27.32,146Zm13.13.55a2,2,0,1,0-2-2A2,2,0,0,0,40.45,146.52Zm13.13.51A2.55,2.55,0,1,0,51,144.48,2.55,2.55,0,0,0,53.58,147Zm13.13.51a3.06,3.06,0,1,0-3.06-3.06A3.06,3.06,0,0,0,66.71,147.54Zm13.13.47a3.54,3.54,0,1,0-3.53-3.53A3.53,3.53,0,0,0,79.84,148Zm13.13.51a4,4,0,1,0-4-4A4,4,0,0,0,93,148.52Zm13.13.47a4.52,4.52,0,1,0-4.51-4.51A4.51,4.51,0,0,0,106.1,149Zm13.13.44a5,5,0,1,0-5-5A5,5,0,0,0,119.23,149.43Zm13.14.4a5.36,5.36,0,1,0-5.36-5.35A5.36,5.36,0,0,0,132.37,149.83Zm13.13.4a5.76,5.76,0,1,0-5.76-5.75A5.76,5.76,0,0,0,145.5,150.23Zm13.13.33a6.08,6.08,0,1,0-6.08-6.08A6.08,6.08,0,0,0,158.63,150.56Zm105,0a6.12,6.12,0,1,0-6.11-6.11A6.12,6.12,0,0,0,263.67,150.59Zm13.14-.32a5.79,5.79,0,1,0-5.79-5.79A5.79,5.79,0,0,0,276.81,150.27Zm13.13-.4a5.39,5.39,0,1,0-5.39-5.39A5.4,5.4,0,0,0,289.94,149.87Zm13.13-.41a5,5,0,1,0-5-5A5,5,0,0,0,303.07,149.46ZM316.2,149a4.55,4.55,0,1,0-4.55-4.55A4.55,4.55,0,0,0,316.2,149Zm13.13-.48a4.08,4.08,0,1,0-4.08-4.07A4.08,4.08,0,0,0,329.33,148.55Zm13.13-.47a3.61,3.61,0,1,0-3.6-3.6A3.6,3.6,0,0,0,342.46,148.08Zm13.13-.51a3.1,3.1,0,1,0-3.09-3.09A3.09,3.09,0,0,0,355.59,147.57Zm13.13-.51a2.59,2.59,0,1,0-2.58-2.58A2.59,2.59,0,0,0,368.72,147.06Zm13.13-.51a2.08,2.08,0,1,0-2.07-2.07A2.08,2.08,0,0,0,381.85,146.55ZM395,146a1.53,1.53,0,1,0-1.53-1.53A1.53,1.53,0,0,0,395,146Zm13.13-.51a1,1,0,1,0-1-1A1,1,0,0,0,408.11,145.5Zm13.14-.55a.47.47,0,0,0,.47-.47.48.48,0,1,0-1,0A.47.47,0,0,0,421.25,145ZM1.06,158.23a.62.62,0,1,0,0-1.24.62.62,0,0,0,0,1.24Zm13.13.54A1.17,1.17,0,1,0,13,157.61,1.16,1.16,0,0,0,14.19,158.77Zm13.13.55a1.71,1.71,0,1,0-1.71-1.71A1.72,1.72,0,0,0,27.32,159.32Zm13.13.54a2.26,2.26,0,1,0-2.26-2.25A2.26,2.26,0,0,0,40.45,159.86Zm13.13.51a2.77,2.77,0,1,0-2.77-2.76A2.76,2.76,0,0,0,53.58,160.37Zm13.13.55a3.32,3.32,0,1,0-3.31-3.31A3.31,3.31,0,0,0,66.71,160.92Zm13.13.51A3.83,3.83,0,1,0,76,157.61,3.82,3.82,0,0,0,79.84,161.43Zm13.13.51a4.34,4.34,0,1,0-4.33-4.33A4.33,4.33,0,0,0,93,161.94Zm13.13.47a4.81,4.81,0,1,0-4.8-4.8A4.8,4.8,0,0,0,106.1,162.41Zm13.13.51a5.32,5.32,0,1,0-5.31-5.31A5.32,5.32,0,0,0,119.23,162.92Zm13.14.44a5.76,5.76,0,1,0-5.76-5.75A5.76,5.76,0,0,0,132.37,163.36Zm13.13.44a6.19,6.19,0,1,0-6.19-6.19A6.19,6.19,0,0,0,145.5,163.8Zm131.31,0a6.23,6.23,0,1,0-6.23-6.22A6.22,6.22,0,0,0,276.81,163.83Zm13.13-.43a5.79,5.79,0,1,0-5.79-5.79A5.8,5.8,0,0,0,289.94,163.4Zm13.13-.44a5.36,5.36,0,1,0-5.36-5.35A5.36,5.36,0,0,0,303.07,163Zm13.13-.47a4.88,4.88,0,1,0-4.88-4.88A4.89,4.89,0,0,0,316.2,162.49Zm13.13-.51a4.37,4.37,0,1,0-4.37-4.37A4.37,4.37,0,0,0,329.33,162Zm13.13-.51a3.86,3.86,0,1,0-3.86-3.86A3.86,3.86,0,0,0,342.46,161.47Zm13.13-.51a3.35,3.35,0,1,0-3.35-3.35A3.35,3.35,0,0,0,355.59,161Zm13.13-.51a2.84,2.84,0,1,0-2.84-2.84A2.84,2.84,0,0,0,368.72,160.45Zm13.13-.55a2.3,2.3,0,1,0-2.29-2.29A2.3,2.3,0,0,0,381.85,159.9Zm13.13-.54a1.75,1.75,0,1,0-1.74-1.75A1.75,1.75,0,0,0,395,159.36Zm13.13-.55a1.2,1.2,0,1,0-1.2-1.2A1.21,1.21,0,0,0,408.11,158.81Zm13.14-.55a.65.65,0,0,0,.65-.65.66.66,0,1,0-.65.65ZM1.06,171.5a.76.76,0,0,0,.76-.76.77.77,0,1,0-.76.76Zm13.13.59a1.35,1.35,0,1,0-1.35-1.35A1.35,1.35,0,0,0,14.19,172.09Zm13.13.54a1.89,1.89,0,1,0-1.9-1.89A1.89,1.89,0,0,0,27.32,172.63Zm13.13.55A2.44,2.44,0,1,0,38,170.74,2.44,2.44,0,0,0,40.45,173.18Zm13.13.54a3,3,0,1,0-3-3A3,3,0,0,0,53.58,173.72Zm13.13.55a3.53,3.53,0,1,0-3.53-3.53A3.53,3.53,0,0,0,66.71,174.27Zm13.13.51a4,4,0,1,0-4-4A4,4,0,0,0,79.84,174.78Zm13.13.55a4.59,4.59,0,1,0-4.59-4.59A4.59,4.59,0,0,0,93,175.33Zm13.13.51a5.1,5.1,0,1,0-5.09-5.1A5.1,5.1,0,0,0,106.1,175.84Zm13.13.51a5.61,5.61,0,1,0-5.6-5.61A5.61,5.61,0,0,0,119.23,176.35Zm13.14.47a6.08,6.08,0,1,0-6.09-6.08A6.08,6.08,0,0,0,132.37,176.82Zm157.57.07a6.16,6.16,0,1,0-6.16-6.15A6.15,6.15,0,0,0,289.94,176.89Zm13.13-.51a5.65,5.65,0,1,0-5.65-5.64A5.64,5.64,0,0,0,303.07,176.38Zm13.13-.51a5.14,5.14,0,1,0-5.14-5.13A5.13,5.13,0,0,0,316.2,175.87Zm13.13-.51a4.63,4.63,0,1,0-4.62-4.62A4.62,4.62,0,0,0,329.33,175.36Zm13.13-.51a4.12,4.12,0,1,0-4.11-4.11A4.11,4.11,0,0,0,342.46,174.85Zm13.13-.54a3.57,3.57,0,1,0-3.57-3.57A3.57,3.57,0,0,0,355.59,174.31Zm13.13-.55a3,3,0,1,0-3-3A3,3,0,0,0,368.72,173.76Zm13.13-.55a2.48,2.48,0,1,0-2.47-2.47A2.47,2.47,0,0,0,381.85,173.21Zm13.13-.54a1.93,1.93,0,1,0-1.93-1.93A1.93,1.93,0,0,0,395,172.67Zm13.13-.55a1.39,1.39,0,1,0-1.38-1.38A1.38,1.38,0,0,0,408.11,172.12Zm13.14-.54a.84.84,0,1,0-.84-.84A.84.84,0,0,0,421.25,171.58ZM1.06,184.78a.91.91,0,1,0-.91-.91A.91.91,0,0,0,1.06,184.78Zm13.13.55a1.46,1.46,0,1,0-1.46-1.46A1.46,1.46,0,0,0,14.19,185.33Zm13.13.58a2,2,0,1,0-2-2A2,2,0,0,0,27.32,185.91Zm13.13.54a2.59,2.59,0,1,0-2.59-2.58A2.57,2.57,0,0,0,40.45,186.45Zm13.13.55a3.13,3.13,0,1,0-3.13-3.13A3.13,3.13,0,0,0,53.58,187Zm13.13.58A3.71,3.71,0,1,0,63,183.87,3.71,3.71,0,0,0,66.71,187.58Zm13.13.55a4.26,4.26,0,1,0-4.26-4.26A4.26,4.26,0,0,0,79.84,188.13Zm13.13.55a4.81,4.81,0,1,0-4.8-4.81A4.81,4.81,0,0,0,93,188.68Zm13.13.54a5.35,5.35,0,1,0-5.35-5.35A5.35,5.35,0,0,0,106.1,189.22Zm13.13.51a5.86,5.86,0,1,0-5.86-5.86A5.86,5.86,0,0,0,119.23,189.73Zm183.84.07a5.94,5.94,0,1,0-5.94-5.93A5.93,5.93,0,0,0,303.07,189.8Zm13.13-.54a5.39,5.39,0,1,0-5.39-5.39A5.39,5.39,0,0,0,316.2,189.26Zm13.13-.55a4.84,4.84,0,1,0-4.84-4.84A4.84,4.84,0,0,0,329.33,188.71Zm13.13-.54a4.3,4.3,0,1,0-4.3-4.3A4.31,4.31,0,0,0,342.46,188.17Zm13.13-.55a3.75,3.75,0,1,0-3.75-3.75A3.75,3.75,0,0,0,355.59,187.62Zm13.13-.55a3.2,3.2,0,1,0-3.2-3.2A3.21,3.21,0,0,0,368.72,187.07Zm13.13-.58a2.62,2.62,0,1,0-2.62-2.62A2.62,2.62,0,0,0,381.85,186.49Zm13.13-.55a2.08,2.08,0,1,0-2.07-2.07A2.07,2.07,0,0,0,395,185.94Zm13.13-.54a1.53,1.53,0,1,0-1.52-1.53A1.53,1.53,0,0,0,408.11,185.4Zm13.14-.58a.95.95,0,1,0-.95-.95A.95.95,0,0,0,421.25,184.82ZM1.06,198a1,1,0,1,0-1-1A1,1,0,0,0,1.06,198Zm13.13.59A1.57,1.57,0,1,0,12.62,197,1.56,1.56,0,0,0,14.19,198.57Zm13.13.58A2.15,2.15,0,1,0,25.17,197,2.15,2.15,0,0,0,27.32,199.15Zm13.13.54a2.69,2.69,0,1,0-2.7-2.69A2.68,2.68,0,0,0,40.45,199.69Zm13.13.59A3.28,3.28,0,1,0,50.3,197,3.28,3.28,0,0,0,53.58,200.28Zm13.13.54A3.82,3.82,0,1,0,62.89,197,3.82,3.82,0,0,0,66.71,200.82Zm13.13.59a4.41,4.41,0,1,0-4.4-4.41A4.42,4.42,0,0,0,79.84,201.41ZM93,202A4.95,4.95,0,1,0,88,197,4.94,4.94,0,0,0,93,202Zm13.13.55a5.5,5.5,0,1,0-5.49-5.5A5.5,5.5,0,0,0,106.1,202.5Zm13.13.54a6,6,0,1,0-6-6A6,6,0,0,0,119.23,203Zm183.84.08A6.12,6.12,0,1,0,297,197,6.11,6.11,0,0,0,303.07,203.12Zm13.13-.55a5.57,5.57,0,1,0-5.57-5.57A5.57,5.57,0,0,0,316.2,202.57Zm13.13-.58a5,5,0,1,0-5-5A5,5,0,0,0,329.33,202Zm13.13-.55A4.44,4.44,0,1,0,338,197,4.44,4.44,0,0,0,342.46,201.44Zm13.13-.54a3.9,3.9,0,1,0-3.9-3.9A3.91,3.91,0,0,0,355.59,200.9Zm13.13-.59a3.31,3.31,0,1,0-3.31-3.31A3.32,3.32,0,0,0,368.72,200.31Zm13.13-.58a2.73,2.73,0,1,0-2.73-2.73A2.73,2.73,0,0,0,381.85,199.73Zm13.13-.55A2.18,2.18,0,1,0,392.8,197,2.18,2.18,0,0,0,395,199.18Zm13.13-.58a1.6,1.6,0,1,0-1.6-1.6A1.6,1.6,0,0,0,408.11,198.6Zm13.14-.54a1.06,1.06,0,1,0-1.06-1.06A1.06,1.06,0,0,0,421.25,198.06Zm-420.19,11a1.06,1.06,0,1,0,1,1A1.05,1.05,0,0,0,1.06,209.08Zm13.13,2.65a1.6,1.6,0,1,0-1.61-1.6A1.6,1.6,0,0,0,14.19,211.73ZM27.32,208a2.19,2.19,0,1,0,2.18,2.18A2.18,2.18,0,0,0,27.32,208Zm13.13-.59a2.77,2.77,0,1,0,2.77,2.77A2.77,2.77,0,0,0,40.45,207.36Zm13.13-.58a3.35,3.35,0,1,0,3.35,3.35A3.35,3.35,0,0,0,53.58,206.78ZM66.71,214a3.9,3.9,0,1,0-3.9-3.9A3.91,3.91,0,0,0,66.71,214Zm13.13.58a4.48,4.48,0,1,0-4.48-4.48A4.49,4.49,0,0,0,79.84,214.61ZM93,205.07A5.06,5.06,0,1,0,98,210.13,5.07,5.07,0,0,0,93,205.07Zm13.13,10.67a5.61,5.61,0,1,0-5.6-5.61A5.61,5.61,0,0,0,106.1,215.74Zm13.13.58a6.19,6.19,0,1,0-6.19-6.19A6.19,6.19,0,0,0,119.23,216.32Zm183.84,0a6.23,6.23,0,1,0-6.23-6.23A6.22,6.22,0,0,0,303.07,216.36Zm13.13-.55a5.68,5.68,0,1,0-5.68-5.68A5.68,5.68,0,0,0,316.2,215.81Zm13.13-.58a5.1,5.1,0,1,0-5.1-5.1A5.1,5.1,0,0,0,329.33,215.23Zm13.13-.58a4.52,4.52,0,1,0-4.52-4.52A4.53,4.53,0,0,0,342.46,214.65Zm13.13-.55a4,4,0,1,0-4-4A4,4,0,0,0,355.59,214.1Zm13.13-.58a3.39,3.39,0,1,0-3.38-3.39A3.39,3.39,0,0,0,368.72,213.52Zm13.13-.58a2.81,2.81,0,1,0-2.8-2.81A2.81,2.81,0,0,0,381.85,212.94Zm13.13-.55a2.26,2.26,0,1,0-2.25-2.26A2.26,2.26,0,0,0,395,212.39Zm13.13-.58a1.68,1.68,0,1,0-1.67-1.68A1.68,1.68,0,0,0,408.11,211.81Zm13.14-.59a1.09,1.09,0,1,0-1.1-1.09A1.09,1.09,0,0,0,421.25,211.22Zm-420.19,11a1.06,1.06,0,1,0,1,1A1.05,1.05,0,0,0,1.06,222.21Zm13.13-.59a1.64,1.64,0,1,0,1.64,1.64A1.64,1.64,0,0,0,14.19,221.62Zm13.13-.54a2.19,2.19,0,1,0,2.18,2.18A2.19,2.19,0,0,0,27.32,221.08Zm13.13-.59a2.77,2.77,0,1,0,2.77,2.77A2.77,2.77,0,0,0,40.45,220.49Zm13.13-.58a3.35,3.35,0,1,0,3.35,3.35A3.35,3.35,0,0,0,53.58,219.91Zm13.13-.58a3.93,3.93,0,1,0,3.93,3.93A3.93,3.93,0,0,0,66.71,219.33Zm13.13-.58a4.52,4.52,0,1,0,4.52,4.51A4.51,4.51,0,0,0,79.84,218.75ZM93,218.2A5.06,5.06,0,1,0,98,223.26,5.07,5.07,0,0,0,93,218.2Zm13.13-.58a5.65,5.65,0,1,0,5.65,5.64A5.65,5.65,0,0,0,106.1,217.62Zm13.13-.58a6.23,6.23,0,1,0,6.23,6.22A6.22,6.22,0,0,0,119.23,217Zm190.14,6.22a6.3,6.3,0,0,1-12.6.14,6.83,6.83,0,0,1-5,6.45,6.8,6.8,0,0,1-.36,13.18,6.66,6.66,0,1,1-7.77,8.72,7.22,7.22,0,0,1-4.21,4.48,7,7,0,0,1,4.18,5.1,6.45,6.45,0,1,1,0,2.65,7,7,0,0,1-5.12,5.41,6.62,6.62,0,1,1-8,8.32,7.1,7.1,0,0,1-4.87,4.87,6.62,6.62,0,1,1-8.32,8,7,7,0,0,1-5.41,5.12,6.45,6.45,0,1,1-2.65,0,7,7,0,0,1-5.11-4.18,7.2,7.2,0,0,1-4.47,4.21,6.66,6.66,0,1,1-8.72,7.77,6.8,6.8,0,0,1-13.19.36,6.83,6.83,0,0,1-6.45,5,6.3,6.3,0,1,1-.26,0,6.83,6.83,0,0,1-6.45-5,6.8,6.8,0,0,1-13.19-.36,6.66,6.66,0,1,1-8.72-7.77,7.21,7.21,0,0,1-4.49-4.26,6.93,6.93,0,0,1-5.19,4.21,6.45,6.45,0,1,1-2.44,0,6.91,6.91,0,0,1-5.52-5.24,6.58,6.58,0,1,1-8.17-7.9,7,7,0,0,1-5-5,6.59,6.59,0,1,1-7.91-8.18,6.93,6.93,0,0,1-5.26-5.64,6.41,6.41,0,1,1,0-2.19,6.91,6.91,0,0,1,4.28-5.33,7.23,7.23,0,0,1-4.31-4.59A6.62,6.62,0,1,1,131,243a6.76,6.76,0,0,1-.37-13.18,6.8,6.8,0,0,1,.07-13.19,6.73,6.73,0,0,1,.42-13.15,6.63,6.63,0,1,1,7.51-8.57,7.16,7.16,0,0,1,4.4-4.64,6.89,6.89,0,0,1-4.39-5.57,6.37,6.37,0,1,1,0-1.72,6.88,6.88,0,0,1,5.41-5.87,6.56,6.56,0,1,1,7.76-8A7,7,0,0,1,157,164a6.55,6.55,0,1,1,8-7.76,6.9,6.9,0,0,1,5.88-5.41,6.38,6.38,0,1,1,1.71,0,6.89,6.89,0,0,1,5.58,4.39,7.16,7.16,0,0,1,4.64-4.4,6.62,6.62,0,1,1,8.57-7.51,6.73,6.73,0,0,1,13.15-.42,6.8,6.8,0,0,1,13.18-.07,6.77,6.77,0,0,1,13.19.37,6.63,6.63,0,1,1,8.61,7.61,7.18,7.18,0,0,1,4.58,4.32,6.93,6.93,0,0,1,5.34-4.29,6.41,6.41,0,1,1,2.19,0,6.94,6.94,0,0,1,5.64,5.27,6.58,6.58,0,1,1,8.18,7.9,7.05,7.05,0,0,1,5,5,6.59,6.59,0,1,1,7.9,8.18,6.89,6.89,0,0,1,5.24,5.51,6.44,6.44,0,1,1,0,2.44,6.93,6.93,0,0,1-4.21,5.19,7.23,7.23,0,0,1,4.26,4.5,6.66,6.66,0,1,1,7.77,8.71,6.8,6.8,0,0,1,.36,13.19,6.83,6.83,0,0,1,5,6.45,6.3,6.3,0,0,1,12.6.13Zm-21.29,6.59a6.88,6.88,0,0,1-4.39-3.8,7.46,7.46,0,0,1-3.5,3.82,7.37,7.37,0,0,1,3.47,3.88A6.82,6.82,0,0,1,288.08,229.85Zm-13.92,26.38a7.27,7.27,0,0,1-3.61-3.13,7.73,7.73,0,0,1-3.08,3.18,7.43,7.43,0,0,1,3,3.45A7,7,0,0,1,274.16,256.23Zm-13.54,13.19a7.48,7.48,0,0,1-3.26-2.86,7.91,7.91,0,0,1-2.91,2.92,7.4,7.4,0,0,1,2.86,3.25A7.18,7.18,0,0,1,260.62,269.42Zm-14,.06a7.82,7.82,0,0,1-2.43-2.18,8.45,8.45,0,0,1-2.25,2.21,7.85,7.85,0,0,1,2.21,2.48A7.33,7.33,0,0,1,246.64,269.48Zm-12.8,13.18a7.81,7.81,0,0,1-2.89-2.58,7.84,7.84,0,0,1-2.76,2.61,7.44,7.44,0,0,1,2.74,3.09A7.19,7.19,0,0,1,233.84,282.66Zm-13.46,0a8,8,0,0,1-2.62-2.38,8.09,8.09,0,0,1-2.56,2.38,7.61,7.61,0,0,1,2.56,2.84A7.38,7.38,0,0,1,220.38,282.69Zm-13.27,0a8.13,8.13,0,0,1-2.57-2.38,7.87,7.87,0,0,1-2.62,2.38,7.38,7.38,0,0,1,2.62,2.84A7.55,7.55,0,0,1,207.11,282.69Zm-13,0a7.84,7.84,0,0,1-2.78-2.65,7.8,7.8,0,0,1-2.9,2.6,7.25,7.25,0,0,1,2.94,3.14A7.51,7.51,0,0,1,194.11,282.69Zm-13.7-13.18a8.32,8.32,0,0,1-2.31-2.27,8,8,0,0,1-2.51,2.24,7.3,7.3,0,0,1,2.54,2.58A7.74,7.74,0,0,1,180.41,269.51Zm-12.49,0a7.85,7.85,0,0,1-3-3,7.4,7.4,0,0,1-3.35,2.93,7.07,7.07,0,0,1,3.4,3.4A7.32,7.32,0,0,1,167.92,269.48Zm-13-13.22a7.76,7.76,0,0,1-3.15-3.27,7.24,7.24,0,0,1-3.74,3.24,6.92,6.92,0,0,1,3.76,3.59A7.49,7.49,0,0,1,154.93,256.26Zm-12.69-26.41a7.42,7.42,0,0,1-3.6-3.94,6.84,6.84,0,0,1-4.57,3.94,6.79,6.79,0,0,1,4.57,4A7.29,7.29,0,0,1,142.24,229.85ZM134,216.66a6.83,6.83,0,0,1,4.64,4,7.37,7.37,0,0,1,3.6-3.93,7.37,7.37,0,0,1-3.62-4.06A6.75,6.75,0,0,1,134,216.66Zm13.93-26.36a7.15,7.15,0,0,1,3.83,3.28,7.62,7.62,0,0,1,3.21-3.34,7.29,7.29,0,0,1-3.16-3.63A6.89,6.89,0,0,1,147.93,190.3Zm13.58-13.2a7.48,7.48,0,0,1,3.43,3,7.84,7.84,0,0,1,3.05-3,7.37,7.37,0,0,1-3-3.43A7,7,0,0,1,161.51,177.1Zm14,0a7.81,7.81,0,0,1,2.58,2.3,8.22,8.22,0,0,1,2.37-2.33,7.85,7.85,0,0,1-2.34-2.62A7.45,7.45,0,0,1,175.52,177.05Zm12.79-13.18a7.74,7.74,0,0,1,3,2.72,7.86,7.86,0,0,1,2.87-2.74,7.37,7.37,0,0,1-2.87-3.23A7.14,7.14,0,0,1,188.31,163.87Zm13.51,0a7.93,7.93,0,0,1,2.72,2.49,8.05,8.05,0,0,1,2.71-2.51,7.29,7.29,0,0,1-2.68-3A7.38,7.38,0,0,1,201.82,163.85Zm13.24,0a8.11,8.11,0,0,1,2.7,2.51,7.93,7.93,0,0,1,2.72-2.49,7.29,7.29,0,0,1-2.74-3A7.43,7.43,0,0,1,215.06,163.83Zm13,0a7.86,7.86,0,0,1,2.87,2.74,7.73,7.73,0,0,1,3-2.7,7.15,7.15,0,0,1-3-3.23A7.28,7.28,0,0,1,228.08,163.85ZM241.86,177a8.14,8.14,0,0,1,2.35,2.29,7.78,7.78,0,0,1,2.5-2.24,7.39,7.39,0,0,1-2.56-2.62A7.84,7.84,0,0,1,241.86,177Zm12.52.05a7.83,7.83,0,0,1,3,3,7.46,7.46,0,0,1,3.35-2.93,7,7,0,0,1-3.4-3.39A7.43,7.43,0,0,1,254.38,177.05Zm13,13.19a7.71,7.71,0,0,1,3.13,3.22,7.25,7.25,0,0,1,3.68-3.18,7,7,0,0,1-3.71-3.57A7.41,7.41,0,0,1,267.4,190.24Zm6,39.63a7.53,7.53,0,0,1-2.84-2.56,8,8,0,0,1-2.38,2.56,8.08,8.08,0,0,1,2.38,2.62A7.31,7.31,0,0,1,273.42,229.87Zm-13.55,26.41a7.92,7.92,0,0,1-2.47-2.21,8.45,8.45,0,0,1-2.21,2.25,7.78,7.78,0,0,1,2.17,2.43A7.5,7.5,0,0,1,259.87,256.28Zm-14,0a8.31,8.31,0,0,1-1.64-1.49,9.35,9.35,0,0,1-1.54,1.54,9,9,0,0,1,1.49,1.64A7.53,7.53,0,0,1,245.9,256.32Zm-13,13.19a8.14,8.14,0,0,1-1.86-1.7,8.83,8.83,0,0,1-1.81,1.75A7.9,7.9,0,0,1,231,271.5,7.9,7.9,0,0,1,232.87,269.51Zm-13.5.05a8.38,8.38,0,0,1-1.61-1.48,8.48,8.48,0,0,1-1.57,1.48,8.18,8.18,0,0,1,1.57,1.7A8.11,8.11,0,0,1,219.37,269.56Zm-13.26,0a8.8,8.8,0,0,1-1.57-1.48,8.63,8.63,0,0,1-1.6,1.48,8.32,8.32,0,0,1,1.6,1.7A8.18,8.18,0,0,1,206.11,269.56Zm-13,0a8.82,8.82,0,0,1-1.83-1.78,8.23,8.23,0,0,1-1.9,1.73,7.84,7.84,0,0,1,2,2A8.12,8.12,0,0,1,193.1,269.56Zm-13.46-13.2a8.55,8.55,0,0,1-1.59-1.59,8.69,8.69,0,0,1-1.71,1.55,8.11,8.11,0,0,1,1.76,1.75A8.34,8.34,0,0,1,179.64,256.36Zm-12.46,0a8.17,8.17,0,0,1-2.3-2.35,7.71,7.71,0,0,1-2.56,2.29,7.47,7.47,0,0,1,2.62,2.56A7.67,7.67,0,0,1,167.18,256.32Zm-12.7-13.26a7.78,7.78,0,0,1-2.74-2.87,7.28,7.28,0,0,1-3.19,2.85,7.21,7.21,0,0,1,3.23,3A7.73,7.73,0,0,1,154.48,243.06Zm-5.72-26.38a7.29,7.29,0,0,1,3,2.68,8.05,8.05,0,0,1,2.51-2.71,7.93,7.93,0,0,1-2.49-2.72A7.32,7.32,0,0,1,148.76,216.68Zm13.53-26.44a7.85,7.85,0,0,1,2.62,2.34,8.22,8.22,0,0,1,2.33-2.37,7.6,7.6,0,0,1-2.3-2.58A7.45,7.45,0,0,1,162.29,190.24Zm14,0a8.23,8.23,0,0,1,1.78,1.6,8.89,8.89,0,0,1,1.65-1.65,8.15,8.15,0,0,1-1.6-1.77A7.71,7.71,0,0,1,176.27,190.21Zm13-13.19a8.17,8.17,0,0,1,2,1.81,8.57,8.57,0,0,1,1.93-1.87,7.74,7.74,0,0,1-1.88-2.07A7.81,7.81,0,0,1,189.31,177Zm13.5-.06a8.52,8.52,0,0,1,1.71,1.57,8.17,8.17,0,0,1,1.68-1.59,8,8,0,0,1-1.66-1.81A7.71,7.71,0,0,1,202.81,177Zm13.29,0a8.47,8.47,0,0,1,1.66,1.56,8.13,8.13,0,0,1,1.7-1.56,7.69,7.69,0,0,1-1.7-1.81A8,8,0,0,1,216.1,176.94Zm13,0a8.91,8.91,0,0,1,1.9,1.83,8.22,8.22,0,0,1,2-1.77,7.92,7.92,0,0,1-2-2.11A7.83,7.83,0,0,1,229.11,176.94Zm13.55,13.22a8.86,8.86,0,0,1,1.59,1.59,8.34,8.34,0,0,1,1.71-1.54,7.69,7.69,0,0,1-1.75-1.76A8.42,8.42,0,0,1,242.66,190.16Zm12.47.05a8.32,8.32,0,0,1,2.27,2.31,7.71,7.71,0,0,1,2.54-2.28,7.47,7.47,0,0,1-2.58-2.54A7.79,7.79,0,0,1,255.13,190.21Zm12.8,13.23a7.87,7.87,0,0,1,2.65,2.79,7.38,7.38,0,0,1,3.09-2.74,7.28,7.28,0,0,1-3.14-3A7.8,7.8,0,0,1,267.93,203.44Zm5.49,13.22a7.46,7.46,0,0,1-2.84-2.62,8,8,0,0,1-2.38,2.61,8.13,8.13,0,0,1,2.38,2.57A7.37,7.37,0,0,1,273.42,216.66Zm-14,26.41a8.08,8.08,0,0,1-1.93-1.76,8.58,8.58,0,0,1-1.75,1.81,8.14,8.14,0,0,1,1.7,1.86A7.65,7.65,0,0,1,259.38,243.07Zm-27.27,13.3a8.58,8.58,0,0,1-1-1,9,9,0,0,1-1,1,9,9,0,0,1,1,1.07A8.39,8.39,0,0,1,232.11,256.37Zm-39.84.06a8,8,0,0,1-1.06-1,8.92,8.92,0,0,1-1.07,1,8.35,8.35,0,0,1,1.13,1.17A8,8,0,0,1,192.27,256.43Zm-25.61-13.31a8.91,8.91,0,0,1-1.83-1.9,7.83,7.83,0,0,1-2.05,1.84,7.77,7.77,0,0,1,2.1,2A8.32,8.32,0,0,1,166.66,243.12Zm-3.88-39.66a7.74,7.74,0,0,1,2.07,1.88,8.57,8.57,0,0,1,1.87-1.93,8.17,8.17,0,0,1-1.81-2A7.81,7.81,0,0,1,162.78,203.46Zm14-.05a8.8,8.8,0,0,1,1.16,1.05,9.27,9.27,0,0,1,1.12-1.14,8.47,8.47,0,0,1-1-1.13A8.48,8.48,0,0,1,176.8,203.41Zm13.28-13.25a9.21,9.21,0,0,1,1.13,1,10,10,0,0,1,1.14-1.12,8.21,8.21,0,0,1-1-1.16A8.49,8.49,0,0,1,190.08,190.16Zm39.9-.07a9.19,9.19,0,0,1,1.09,1.07,8.71,8.71,0,0,1,1.1-1A8.15,8.15,0,0,1,231,189,8.39,8.39,0,0,1,230,190.09Zm25.69,13.29a8.63,8.63,0,0,1,1.78,1.84,8,8,0,0,1,2-1.78,7.68,7.68,0,0,1-2-2A8.25,8.25,0,0,1,255.67,203.38Zm3.48,13.27a8.32,8.32,0,0,1-1.7-1.6,8.63,8.63,0,0,1-1.48,1.6,8.8,8.8,0,0,1,1.48,1.57A8.18,8.18,0,0,1,259.15,216.65Zm-27.63,26.53c-.16-.14-.32-.28-.48-.44l-.41.42c.15.15.3.31.44.47Zm-65.13-13.31a8.18,8.18,0,0,1-1.56-1.66,8,8,0,0,1-1.81,1.66,7.9,7.9,0,0,1,1.81,1.7A8.39,8.39,0,0,1,166.39,229.87Zm24.31-26.55c.19.17.38.34.56.52.15-.17.3-.32.46-.47-.18-.18-.35-.37-.51-.56A6.14,6.14,0,0,1,190.7,203.32Zm53.62,12.57a8.94,8.94,0,0,1-.67.71,6.38,6.38,0,0,1,.72.75,8.09,8.09,0,0,1,.74-.7A9.45,9.45,0,0,1,244.32,215.89Zm-13.15,14-.22-.21a.52.52,0,0,0-.1.11l.19.21Zm-40.12-13.31.26.24.17-.19-.22-.24Zm40-.14c-.06.07-.12.15-.19.22l.1.1.22-.2Zm-13.32.22Zm-13.16,0h0l0,0h0Zm-13.33,13.4.22-.24-.14-.16-.26.23Zm13.36-.24Zm13.13,0Zm13.35-27c-.15.17-.3.34-.47.5.16.15.3.29.44.44l.51-.46Q231.3,203.08,231.07,202.84Zm-13.28.32a3,3,0,0,1-.24.26l.17.15c.07-.08.16-.15.24-.23S217.85,203.22,217.79,203.16Zm-13.28,0-.2.21.25.22.19-.17ZM178,215.8a7.48,7.48,0,0,1-.86.83,7.13,7.13,0,0,1,.85.8,9.94,9.94,0,0,1,.78-.81A10,10,0,0,1,178,215.8Zm0,14.89a9.33,9.33,0,0,1,.75-.79,9.82,9.82,0,0,1-.78-.8,8.57,8.57,0,0,1-.82.77A9.38,9.38,0,0,1,178,230.69Zm13.23,13c.15-.17.3-.34.46-.5l-.44-.44c-.16.16-.33.31-.51.46C190.89,243.33,191.05,243.49,191.21,243.66Zm13.28-.38.2-.22-.1-.1-.22.2Zm13.32,0,.12-.12-.21-.2a.52.52,0,0,0-.11.1Zm26.51-12.64a8.08,8.08,0,0,1,.79-.76c-.26-.22-.5-.46-.74-.7a8.44,8.44,0,0,1-.72.75A7.5,7.5,0,0,1,244.32,230.64Zm-.07-28.39a8.23,8.23,0,0,1-1,1.07,8.76,8.76,0,0,1,1,1.06,8.71,8.71,0,0,1,1.1-1A8.35,8.35,0,0,1,244.25,202.25Zm-26.49-13a10.09,10.09,0,0,1-.77.83,9.7,9.7,0,0,1,.8.77,9.33,9.33,0,0,1,.79-.75A8.23,8.23,0,0,1,217.76,189.24Zm-13.24,0a9.66,9.66,0,0,1-.83.86,10,10,0,0,1,.82.77,8.45,8.45,0,0,1,.81-.77A8.07,8.07,0,0,1,204.52,189.21ZM163,216.65a7.77,7.77,0,0,1,1.81,1.67,8.22,8.22,0,0,1,1.59-1.69,8.44,8.44,0,0,1-1.57-1.7A7.88,7.88,0,0,1,163,216.65Zm15,27.63a8.71,8.71,0,0,1,1-1.1,8.48,8.48,0,0,1-1.07-1.09,8.39,8.39,0,0,1-1.12,1A8.15,8.15,0,0,1,178.05,244.28Zm26.49,13a8.18,8.18,0,0,1,.69-.75,8.27,8.27,0,0,1-.74-.71q-.35.34-.72.66A8.34,8.34,0,0,1,204.54,257.23Zm13.22,0a8.34,8.34,0,0,1,.77-.8q-.37-.31-.72-.66a8.27,8.27,0,0,1-.74.71A8.18,8.18,0,0,1,217.76,257.23Zm26.5-13a8.32,8.32,0,0,1,1.12-1.1,9.75,9.75,0,0,1-1.06-1,9,9,0,0,1-1,1A8.58,8.58,0,0,1,244.26,244.22Zm14.89-14.35a8.18,8.18,0,0,1-1.7-1.57,8.86,8.86,0,0,1-1.48,1.58,8,8,0,0,1,1.48,1.6A8.11,8.11,0,0,1,259.15,229.87Zm-110.39,0a7.29,7.29,0,0,1,3,2.74,8,8,0,0,1,2.49-2.72,8.11,8.11,0,0,1-2.51-2.7A7.43,7.43,0,0,1,148.76,229.85Zm-.25-26.39a7.37,7.37,0,0,1,3.23,2.87,7.86,7.86,0,0,1,2.74-2.87,7.72,7.72,0,0,1-2.72-3A7.12,7.12,0,0,1,148.51,203.46ZM273.67,243a7.44,7.44,0,0,1-3.09-2.74,8,8,0,0,1-2.62,2.77,7.73,7.73,0,0,1,2.59,2.88A7.19,7.19,0,0,1,273.67,243Zm14.41-26.36a6.85,6.85,0,0,1-4.42-3.9,7.41,7.41,0,0,1-3.47,3.88,7.42,7.42,0,0,1,3.5,3.82A6.85,6.85,0,0,1,288.08,216.68Zm-8.14-13.19a7.34,7.34,0,0,1,3.72,4,6.81,6.81,0,0,1,4.79-4,6.68,6.68,0,0,1-4.79-4.27A7.25,7.25,0,0,1,279.94,203.49Zm-13.3-26.39A7.45,7.45,0,0,1,270.5,181a6.93,6.93,0,0,1,4.74-3.89,6.58,6.58,0,0,1-4.77-4.62A7,7,0,0,1,266.64,177.1Zm-13.26-13.19a7.38,7.38,0,0,1,3.93,3.86,7,7,0,0,1,4.58-3.82,6.58,6.58,0,0,1-4.61-4.78A6.92,6.92,0,0,1,253.38,163.91Zm-12.5,0a7.76,7.76,0,0,1,3.27,3.15,7.44,7.44,0,0,1,3.56-3.13,6.94,6.94,0,0,1-3.6-3.76A7.19,7.19,0,0,1,240.88,163.89Zm-14.06-13.14a7.36,7.36,0,0,1,4.11,3.81,7.19,7.19,0,0,1,4.37-3.81,6.64,6.64,0,0,1-4.38-4.94A6.78,6.78,0,0,1,226.82,150.75Zm-13,0a7.42,7.42,0,0,1,3.94,3.6,7.29,7.29,0,0,1,4-3.6,6.81,6.81,0,0,1-4-4.57A6.81,6.81,0,0,1,213.8,150.75Zm-13.29,0a7.37,7.37,0,0,1,4.06,3.62,7.37,7.37,0,0,1,3.93-3.6,6.81,6.81,0,0,1-3.95-4.64A6.75,6.75,0,0,1,200.51,150.73Zm-13.57,0a7.15,7.15,0,0,1,4.41,3.83,7.37,7.37,0,0,1,4.18-3.87,6.72,6.72,0,0,1-4.13-5A6.63,6.63,0,0,1,186.94,150.77ZM174.5,163.92a7.38,7.38,0,0,1,3.63,3.16,7.65,7.65,0,0,1,3.33-3.21,7.13,7.13,0,0,1-3.27-3.83A6.89,6.89,0,0,1,174.5,163.92Zm-14.24,0a7,7,0,0,1,4.73,3.91,7.39,7.39,0,0,1,4-3.94,6.9,6.9,0,0,1-4-4.9A6.55,6.55,0,0,1,160.26,164Zm-13.35,13.19a6.9,6.9,0,0,1,4.9,4,7.36,7.36,0,0,1,3.93-4,7,7,0,0,1-3.9-4.73A6.59,6.59,0,0,1,146.91,177.14Zm-13.33,26.37a6.74,6.74,0,0,1,5,4.13,7.33,7.33,0,0,1,3.87-4.18,7.15,7.15,0,0,1-3.83-4.4A6.62,6.62,0,0,1,133.58,203.51ZM142.45,243a7.33,7.33,0,0,1-3.81-4.11,6.78,6.78,0,0,1-4.94,4.1,6.64,6.64,0,0,1,4.94,4.38A7.19,7.19,0,0,1,142.45,243Zm13.21,26.38a7.38,7.38,0,0,1-3.86-3.93,6.9,6.9,0,0,1-4.74,3.9,6.6,6.6,0,0,1,4.78,4.61A7,7,0,0,1,155.66,269.42Zm13.26,13.19a7.42,7.42,0,0,1-3.93-3.86,7,7,0,0,1-4.58,3.83,6.58,6.58,0,0,1,4.61,4.77A6.94,6.94,0,0,1,168.92,282.61Zm12.43,0a7.75,7.75,0,0,1-3.22-3.12,7.41,7.41,0,0,1-3.54,3.09,7,7,0,0,1,3.58,3.71A7.21,7.21,0,0,1,181.35,282.64Zm14,13.13a7.4,7.4,0,0,1-4-3.72,7.2,7.2,0,0,1-4.26,3.72,6.68,6.68,0,0,1,4.27,4.79A6.83,6.83,0,0,1,195.37,295.77Zm13,0a7.46,7.46,0,0,1-3.82-3.5,7.38,7.38,0,0,1-3.87,3.47,6.88,6.88,0,0,1,3.9,4.42A6.86,6.86,0,0,1,208.36,295.8Zm13.27,0a7.38,7.38,0,0,1-3.87-3.47,7.46,7.46,0,0,1-3.82,3.5,6.84,6.84,0,0,1,3.79,4.39A6.88,6.88,0,0,1,221.63,295.77Zm13.56,0a7.2,7.2,0,0,1-4.26-3.72,7.4,7.4,0,0,1-4,3.72,6.83,6.83,0,0,1,4,4.79A6.68,6.68,0,0,1,235.19,295.77Zm12.43-13.16a7.46,7.46,0,0,1-3.45-3,7.71,7.71,0,0,1-3.18,3.07,7.21,7.21,0,0,1,3.12,3.61A7,7,0,0,1,247.62,282.61Zm14.13,0a7.12,7.12,0,0,1-4.44-3.74,7.4,7.4,0,0,1-3.84,3.77,7,7,0,0,1,3.81,4.6A6.63,6.63,0,0,1,261.75,282.58Zm13.35-13.19a7,7,0,0,1-4.6-3.81,7.4,7.4,0,0,1-3.77,3.84,7.12,7.12,0,0,1,3.74,4.44A6.63,6.63,0,0,1,275.1,269.39ZM288.45,243a6.81,6.81,0,0,1-4.79-4,7.36,7.36,0,0,1-3.72,4,7.23,7.23,0,0,1,3.72,4.26A6.68,6.68,0,0,1,288.45,243Zm27.75-25.48a5.72,5.72,0,1,0,5.71,5.71A5.71,5.71,0,0,0,316.2,217.55Zm13.13.58a5.14,5.14,0,1,0,5.13,5.13A5.13,5.13,0,0,0,329.33,218.13Zm13.13.54a4.59,4.59,0,1,0,4.59,4.59A4.6,4.6,0,0,0,342.46,218.67Zm13.13.59a4,4,0,1,0,4,4A4,4,0,0,0,355.59,219.26Zm13.13.58a3.42,3.42,0,1,0,3.42,3.42A3.42,3.42,0,0,0,368.72,219.84Zm13.13.58a2.84,2.84,0,1,0,2.84,2.84A2.84,2.84,0,0,0,381.85,220.42ZM395,221a2.3,2.3,0,1,0,2.3,2.29A2.3,2.3,0,0,0,395,221Zm13.13.58a1.71,1.71,0,1,0,1.72,1.71A1.72,1.72,0,0,0,408.11,221.55Zm13.14.58a1.13,1.13,0,1,0,1.12,1.13A1.13,1.13,0,0,0,421.25,222.13ZM1.06,235.34a1.06,1.06,0,1,0,1,1A1.05,1.05,0,0,0,1.06,235.34Zm13.13-.55a1.61,1.61,0,1,0,1.6,1.6A1.61,1.61,0,0,0,14.19,234.79Zm13.13-.58a2.19,2.19,0,1,0,2.18,2.18A2.19,2.19,0,0,0,27.32,234.21Zm13.13-.58a2.77,2.77,0,1,0,2.77,2.76A2.76,2.76,0,0,0,40.45,233.63ZM53.58,233a3.35,3.35,0,1,0,3.35,3.35A3.35,3.35,0,0,0,53.58,233Zm13.13-.54a3.9,3.9,0,1,0,3.9,3.89A3.9,3.9,0,0,0,66.71,232.5Zm13.13-.59a4.48,4.48,0,1,0,4.48,4.48A4.49,4.49,0,0,0,79.84,231.91ZM93,231.33A5.06,5.06,0,1,0,98,236.39,5.07,5.07,0,0,0,93,231.33Zm13.13-.54a5.61,5.61,0,1,0,5.61,5.6A5.6,5.6,0,0,0,106.1,230.79Zm13.13-.59a6.19,6.19,0,1,0,6.19,6.19A6.19,6.19,0,0,0,119.23,230.2Zm183.84-.07a6.27,6.27,0,1,0,6.26,6.26A6.27,6.27,0,0,0,303.07,230.13Zm13.13.58a5.68,5.68,0,1,0,5.68,5.68A5.68,5.68,0,0,0,316.2,230.71Zm13.13.59a5.1,5.1,0,1,0,5.1,5.09A5.09,5.09,0,0,0,329.33,231.3Zm13.13.54a4.55,4.55,0,1,0,4.55,4.55A4.55,4.55,0,0,0,342.46,231.84Zm13.13.58a4,4,0,1,0,4,4A4,4,0,0,0,355.59,232.42Zm13.13.59a3.39,3.39,0,1,0,3.39,3.38A3.38,3.38,0,0,0,368.72,233Zm13.13.58a2.81,2.81,0,1,0,2.81,2.8A2.8,2.8,0,0,0,381.85,233.59Zm13.13.55a2.26,2.26,0,1,0,2.26,2.25A2.25,2.25,0,0,0,395,234.14Zm13.13.58a1.68,1.68,0,1,0,1.68,1.67A1.67,1.67,0,0,0,408.11,234.72Zm13.14.58a1.1,1.1,0,1,0,1.09,1.09A1.09,1.09,0,0,0,421.25,235.3ZM1.06,248.54a1,1,0,1,0,1,1A1,1,0,0,0,1.06,248.54ZM14.19,248a1.57,1.57,0,1,0,1.56,1.56A1.56,1.56,0,0,0,14.19,248Zm13.13-.58a2.15,2.15,0,1,0,2.15,2.14A2.14,2.14,0,0,0,27.32,247.38Zm13.13-.55a2.7,2.7,0,1,0,2.69,2.69A2.7,2.7,0,0,0,40.45,246.83Zm13.13-.58a3.28,3.28,0,1,0,3.28,3.27A3.27,3.27,0,0,0,53.58,246.25Zm13.13-.55a3.83,3.83,0,1,0,3.82,3.82A3.82,3.82,0,0,0,66.71,245.7Zm13.13-.58a4.41,4.41,0,1,0,4.41,4.4A4.4,4.4,0,0,0,79.84,245.12ZM93,244.57a5,5,0,1,0,5,5A5,5,0,0,0,93,244.57ZM106.1,244a5.54,5.54,0,1,0,5.54,5.53A5.54,5.54,0,0,0,106.1,244Zm13.13-.55a6.08,6.08,0,1,0,6.09,6.08A6.09,6.09,0,0,0,119.23,243.44Zm183.84,0a6.12,6.12,0,1,0,6.11,6.11A6.12,6.12,0,0,0,303.07,243.41Zm13.13.54a5.57,5.57,0,1,0,5.57,5.57A5.57,5.57,0,0,0,316.2,244Zm13.13.55a5,5,0,1,0,5,5A5,5,0,0,0,329.33,244.5Zm13.13.58a4.45,4.45,0,1,0,4.44,4.44A4.44,4.44,0,0,0,342.46,245.08Zm13.13.55a3.9,3.9,0,1,0,3.9,3.89A3.9,3.9,0,0,0,355.59,245.63Zm13.13.58a3.32,3.32,0,1,0,3.32,3.31A3.31,3.31,0,0,0,368.72,246.21Zm13.13.55a2.77,2.77,0,1,0,2.77,2.76A2.76,2.76,0,0,0,381.85,246.76Zm13.13.58a2.19,2.19,0,1,0,2.19,2.18A2.19,2.19,0,0,0,395,247.34Zm13.13.58a1.61,1.61,0,1,0,1.61,1.6A1.6,1.6,0,0,0,408.11,247.92Zm13.14.55a1.06,1.06,0,1,0,1.05,1.05A1.05,1.05,0,0,0,421.25,248.47ZM1.06,261.74a.92.92,0,1,0,.91.91A.91.91,0,0,0,1.06,261.74Zm13.13-.54a1.46,1.46,0,1,0,1.45,1.45A1.45,1.45,0,0,0,14.19,261.2Zm13.13-.58a2,2,0,1,0,2,2A2,2,0,0,0,27.32,260.62Zm13.13-.55A2.59,2.59,0,1,0,43,262.65,2.59,2.59,0,0,0,40.45,260.07Zm13.13-.58a3.17,3.17,0,1,0,3.17,3.16A3.17,3.17,0,0,0,53.58,259.49Zm13.13-.55a3.72,3.72,0,1,0,3.71,3.71A3.71,3.71,0,0,0,66.71,258.94Zm13.13-.55a4.27,4.27,0,1,0,4.26,4.26A4.26,4.26,0,0,0,79.84,258.39ZM93,257.85a4.81,4.81,0,1,0,4.81,4.8A4.8,4.8,0,0,0,93,257.85Zm13.13-.55a5.36,5.36,0,1,0,5.36,5.35A5.36,5.36,0,0,0,106.1,257.3Zm13.13-.54a5.9,5.9,0,1,0,5.9,5.89A5.89,5.89,0,0,0,119.23,256.76Zm183.84,0a5.94,5.94,0,1,0,5.93,5.93A5.94,5.94,0,0,0,303.07,256.72Zm13.13.55a5.39,5.39,0,1,0,5.39,5.38A5.38,5.38,0,0,0,316.2,257.27Zm13.13.51a4.88,4.88,0,1,0,4.88,4.87A4.87,4.87,0,0,0,329.33,257.78Zm13.13.58a4.3,4.3,0,1,0,4.3,4.29A4.3,4.3,0,0,0,342.46,258.36Zm13.13.54a3.76,3.76,0,1,0,3.75,3.75A3.75,3.75,0,0,0,355.59,258.9Zm13.13.55a3.21,3.21,0,1,0,3.21,3.2A3.2,3.2,0,0,0,368.72,259.45Zm13.13.55a2.66,2.66,0,1,0,2.66,2.65A2.66,2.66,0,0,0,381.85,260Zm13.13.58a2.08,2.08,0,1,0,2.08,2.07A2.07,2.07,0,0,0,395,260.58Zm13.13.55a1.53,1.53,0,1,0,1.53,1.52A1.52,1.52,0,0,0,408.11,261.13Zm13.14.58a.95.95,0,1,0,.94.94A.94.94,0,0,0,421.25,261.71ZM1.06,275a.81.81,0,1,0,.8.81A.81.81,0,0,0,1.06,275Zm13.13-.54a1.35,1.35,0,1,0,1.34,1.35A1.34,1.34,0,0,0,14.19,274.44Zm13.13-.55a1.9,1.9,0,1,0,1.89,1.9A1.9,1.9,0,0,0,27.32,273.89Zm13.13-.54a2.44,2.44,0,1,0,2.44,2.44A2.44,2.44,0,0,0,40.45,273.35Zm13.13-.55a3,3,0,1,0,3,3A3,3,0,0,0,53.58,272.8Zm13.13-.55a3.54,3.54,0,1,0,3.53,3.54A3.54,3.54,0,0,0,66.71,272.25Zm13.13-.54a4.08,4.08,0,1,0,4.08,4.08A4.08,4.08,0,0,0,79.84,271.71ZM93,271.16a4.63,4.63,0,1,0,4.63,4.63A4.62,4.62,0,0,0,93,271.16Zm13.13-.51a5.14,5.14,0,1,0,5.14,5.14A5.14,5.14,0,0,0,106.1,270.65Zm13.13-.51a5.65,5.65,0,1,0,5.65,5.65A5.65,5.65,0,0,0,119.23,270.14Zm13.14-.47a6.12,6.12,0,1,0,6.11,6.12A6.12,6.12,0,0,0,132.37,269.67Zm157.57,0a6.16,6.16,0,1,0,6.15,6.16A6.16,6.16,0,0,0,289.94,269.63Zm13.13.48a5.68,5.68,0,1,0,5.68,5.68A5.68,5.68,0,0,0,303.07,270.11Zm13.13.51a5.17,5.17,0,1,0,5.17,5.17A5.16,5.16,0,0,0,316.2,270.62Zm13.13.51a4.66,4.66,0,1,0,4.66,4.66A4.66,4.66,0,0,0,329.33,271.13Zm13.13.54a4.12,4.12,0,1,0,4.11,4.12A4.11,4.11,0,0,0,342.46,271.67Zm13.13.51a3.61,3.61,0,1,0,3.61,3.61A3.61,3.61,0,0,0,355.59,272.18Zm13.13.55a3.06,3.06,0,1,0,3.06,3.06A3.06,3.06,0,0,0,368.72,272.73Zm13.13.54a2.52,2.52,0,1,0,2.52,2.52A2.52,2.52,0,0,0,381.85,273.27Zm13.13.55a2,2,0,1,0,2,2A2,2,0,0,0,395,273.82Zm13.13.58a1.39,1.39,0,1,0,1.39,1.39A1.38,1.38,0,0,0,408.11,274.4Zm13.14.55a.84.84,0,1,0,.83.84A.83.83,0,0,0,421.25,275ZM1.06,288.26a.66.66,0,1,0,.65.66A.65.65,0,0,0,1.06,288.26Zm13.13-.51a1.17,1.17,0,1,0,1.16,1.17A1.17,1.17,0,0,0,14.19,287.75Zm13.13-.54A1.71,1.71,0,1,0,29,288.92,1.7,1.7,0,0,0,27.32,287.21Zm13.13-.55a2.26,2.26,0,1,0,2.26,2.26A2.26,2.26,0,0,0,40.45,286.66Zm13.13-.55a2.81,2.81,0,1,0,2.8,2.81A2.8,2.8,0,0,0,53.58,286.11Zm13.13-.51A3.32,3.32,0,1,0,70,288.92,3.32,3.32,0,0,0,66.71,285.6Zm13.13-.54a3.86,3.86,0,1,0,3.86,3.86A3.86,3.86,0,0,0,79.84,285.06ZM93,284.55a4.37,4.37,0,1,0,4.37,4.37A4.37,4.37,0,0,0,93,284.55Zm13.13-.48a4.85,4.85,0,1,0,4.85,4.85A4.85,4.85,0,0,0,106.1,284.07Zm13.13-.47a5.32,5.32,0,1,0,5.32,5.32A5.32,5.32,0,0,0,119.23,283.6Zm13.14-.47a5.79,5.79,0,1,0,5.78,5.79A5.79,5.79,0,0,0,132.37,283.13Zm13.13-.44a6.23,6.23,0,1,0,6.22,6.23A6.23,6.23,0,0,0,145.5,282.69Zm131.31,0a6.27,6.27,0,1,0,6.26,6.27A6.27,6.27,0,0,0,276.81,282.65Zm13.13.44a5.83,5.83,0,1,0,5.82,5.83A5.83,5.83,0,0,0,289.94,283.09Zm13.13.44a5.39,5.39,0,1,0,5.39,5.39A5.39,5.39,0,0,0,303.07,283.53Zm13.13.51a4.88,4.88,0,1,0,4.88,4.88A4.87,4.87,0,0,0,316.2,284Zm13.13.47a4.41,4.41,0,1,0,4.4,4.41A4.41,4.41,0,0,0,329.33,284.51Zm13.13.51a3.9,3.9,0,1,0,3.9,3.9A3.91,3.91,0,0,0,342.46,285Zm13.13.51a3.39,3.39,0,1,0,3.39,3.39A3.39,3.39,0,0,0,355.59,285.53Zm13.13.55a2.84,2.84,0,1,0,2.84,2.84A2.84,2.84,0,0,0,368.72,286.08Zm13.13.51a2.33,2.33,0,1,0,2.33,2.33A2.33,2.33,0,0,0,381.85,286.59Zm13.13.54a1.79,1.79,0,1,0,1.79,1.79A1.79,1.79,0,0,0,395,287.13Zm13.13.55a1.24,1.24,0,1,0,1.24,1.24A1.23,1.23,0,0,0,408.11,287.68Zm13.14.54a.7.7,0,1,0,.69.7A.7.7,0,0,0,421.25,288.22ZM1.06,301.61a.44.44,0,0,0-.44.44.43.43,0,0,0,.44.43.43.43,0,0,0,.43-.43A.44.44,0,0,0,1.06,301.61Zm13.13-.55a1,1,0,1,0,1,1A1,1,0,0,0,14.19,301.06Zm13.13-.54a1.53,1.53,0,1,0,1.53,1.53A1.52,1.52,0,0,0,27.32,300.52ZM40.45,300a2,2,0,1,0,2,2A2,2,0,0,0,40.45,300Zm13.13-.51a2.55,2.55,0,1,0,2.55,2.55A2.55,2.55,0,0,0,53.58,299.5ZM66.71,299a3.06,3.06,0,1,0,3.06,3.06A3.06,3.06,0,0,0,66.71,299Zm13.13-.51a3.57,3.57,0,1,0,3.57,3.57A3.57,3.57,0,0,0,79.84,298.48ZM93,298a4,4,0,1,0,4,4A4,4,0,0,0,93,298Zm13.13-.48a4.52,4.52,0,1,0,4.52,4.52A4.51,4.51,0,0,0,106.1,297.53Zm13.13-.47a5,5,0,1,0,5,5A5,5,0,0,0,119.23,297.06Zm13.14-.4a5.39,5.39,0,1,0,5.38,5.39A5.39,5.39,0,0,0,132.37,296.66Zm13.13-.4a5.79,5.79,0,1,0,5.79,5.79A5.79,5.79,0,0,0,145.5,296.26Zm13.13-.37a6.16,6.16,0,1,0,6.15,6.16A6.16,6.16,0,0,0,158.63,295.89Zm105,0a6.16,6.16,0,1,0,6.16,6.16A6.16,6.16,0,0,0,263.67,295.89Zm13.14.33a5.83,5.83,0,1,0,5.82,5.83A5.83,5.83,0,0,0,276.81,296.22Zm13.13.37a5.46,5.46,0,1,0,5.46,5.46A5.46,5.46,0,0,0,289.94,296.59Zm13.13.43a5,5,0,1,0,5,5A5,5,0,0,0,303.07,297Zm13.13.48a4.55,4.55,0,1,0,4.55,4.55A4.54,4.54,0,0,0,316.2,297.5Zm13.13.43a4.12,4.12,0,1,0,4.11,4.12A4.13,4.13,0,0,0,329.33,297.93Zm13.13.51a3.61,3.61,0,1,0,3.6,3.61A3.61,3.61,0,0,0,342.46,298.44Zm13.13.48a3.13,3.13,0,1,0,3.13,3.13A3.13,3.13,0,0,0,355.59,298.92Zm13.13.51a2.62,2.62,0,1,0,2.62,2.62A2.62,2.62,0,0,0,368.72,299.43Zm13.13.54a2.08,2.08,0,1,0,2.08,2.08A2.08,2.08,0,0,0,381.85,300Zm13.13.51a1.57,1.57,0,1,0,1.57,1.57A1.56,1.56,0,0,0,395,300.48Zm13.13.55a1,1,0,1,0,1,1A1,1,0,0,0,408.11,301Zm13.14.51a.51.51,0,0,0,0,1,.51.51,0,0,0,0-1ZM1.06,314.92a.26.26,0,0,0-.26.26.26.26,0,0,0,.26.25.25.25,0,0,0,.25-.25A.26.26,0,0,0,1.06,314.92Zm13.13-.51a.77.77,0,0,0-.77.77.77.77,0,1,0,.77-.77Zm13.13-.51a1.28,1.28,0,1,0,1.27,1.28A1.28,1.28,0,0,0,27.32,313.9Zm13.13-.51a1.79,1.79,0,1,0,1.78,1.79A1.79,1.79,0,0,0,40.45,313.39Zm13.13-.51a2.3,2.3,0,1,0,2.29,2.3A2.29,2.29,0,0,0,53.58,312.88Zm13.13-.47a2.77,2.77,0,1,0,2.77,2.77A2.77,2.77,0,0,0,66.71,312.41Zm13.13-.51a3.28,3.28,0,1,0,3.28,3.28A3.28,3.28,0,0,0,79.84,311.9ZM93,311.46a3.72,3.72,0,1,0,3.72,3.72A3.72,3.72,0,0,0,93,311.46ZM106.1,311a4.19,4.19,0,1,0,4.19,4.19A4.19,4.19,0,0,0,106.1,311Zm13.13-.4a4.59,4.59,0,1,0,4.59,4.59A4.58,4.58,0,0,0,119.23,310.59Zm13.14-.4a5,5,0,1,0,5,5A5,5,0,0,0,132.37,310.19Zm13.13-.36a5.35,5.35,0,1,0,5.35,5.35A5.35,5.35,0,0,0,145.5,309.83Zm13.13-.3a5.65,5.65,0,1,0,5.64,5.65A5.65,5.65,0,0,0,158.63,309.53Zm13.13-.29a5.94,5.94,0,1,0,5.93,5.94A5.94,5.94,0,0,0,171.76,309.24Zm13.13-.18a6.12,6.12,0,1,0,6.12,6.12A6.12,6.12,0,0,0,184.89,309.06ZM198,309a6.23,6.23,0,1,0,6.23,6.23A6.23,6.23,0,0,0,198,309Zm26.26,0a6.26,6.26,0,1,0,6.26,6.26A6.26,6.26,0,0,0,224.28,308.92Zm13.13.14a6.12,6.12,0,1,0,6.12,6.12A6.11,6.11,0,0,0,237.41,309.06Zm13.13.18a5.94,5.94,0,1,0,5.94,5.94A5.94,5.94,0,0,0,250.54,309.24Zm13.13.26a5.68,5.68,0,1,0,5.68,5.68A5.68,5.68,0,0,0,263.67,309.5Zm13.14.29a5.39,5.39,0,1,0,5.38,5.39A5.39,5.39,0,0,0,276.81,309.79Zm13.13.36a5,5,0,1,0,5,5A5,5,0,0,0,289.94,310.15Zm13.13.4a4.63,4.63,0,1,0,4.62,4.63A4.63,4.63,0,0,0,303.07,310.55Zm13.13.4a4.23,4.23,0,1,0,4.22,4.23A4.24,4.24,0,0,0,316.2,311Zm13.13.48a3.75,3.75,0,1,0,3.75,3.75A3.75,3.75,0,0,0,329.33,311.43Zm13.13.44a3.31,3.31,0,1,0,3.31,3.31A3.31,3.31,0,0,0,342.46,311.87Zm13.13.47a2.84,2.84,0,1,0,2.84,2.84A2.84,2.84,0,0,0,355.59,312.34Zm13.13.51a2.33,2.33,0,1,0,2.33,2.33A2.33,2.33,0,0,0,368.72,312.85Zm13.13.51a1.82,1.82,0,1,0,1.82,1.82A1.82,1.82,0,0,0,381.85,313.36Zm13.13.51a1.31,1.31,0,1,0,1.31,1.31A1.31,1.31,0,0,0,395,313.87Zm13.13.51a.8.8,0,1,0,.81.8A.8.8,0,0,0,408.11,314.38Zm13.14.51a.29.29,0,1,0,.29.29A.29.29,0,0,0,421.25,314.89ZM1,328.31a.08.08,0,0,0,.08.07.07.07,0,0,0,0-.14A.08.08,0,0,0,1,328.31Zm13.21-.51a.51.51,0,1,0,.51.51A.51.51,0,0,0,14.19,327.8Zm13.13-.51a1,1,0,1,0,1,1A1,1,0,0,0,27.32,327.29Zm13.13-.47a1.49,1.49,0,1,0,1.49,1.49A1.48,1.48,0,0,0,40.45,326.82Zm13.13-.51a2,2,0,1,0,2,2A2,2,0,0,0,53.58,326.31Zm13.13-.48a2.48,2.48,0,1,0,2.48,2.48A2.48,2.48,0,0,0,66.71,325.83Zm13.13-.43a2.91,2.91,0,1,0,2.91,2.91A2.91,2.91,0,0,0,79.84,325.4ZM93,325a3.35,3.35,0,1,0,3.35,3.35A3.35,3.35,0,0,0,93,325Zm13.13-.44a3.79,3.79,0,1,0,3.79,3.79A3.79,3.79,0,0,0,106.1,324.52Zm13.13-.4a4.19,4.19,0,1,0,4.19,4.19A4.19,4.19,0,0,0,119.23,324.12Zm13.14-.36a4.55,4.55,0,1,0,4.55,4.55A4.56,4.56,0,0,0,132.37,323.76Zm13.13-.33a4.88,4.88,0,1,0,4.88,4.88A4.87,4.87,0,0,0,145.5,323.43Zm13.13-.25a5.13,5.13,0,1,0,5.13,5.13A5.13,5.13,0,0,0,158.63,323.18Zm13.13-.26a5.39,5.39,0,1,0,5.39,5.39A5.39,5.39,0,0,0,171.76,322.92Zm13.13-.18a5.57,5.57,0,1,0,5.57,5.57A5.57,5.57,0,0,0,184.89,322.74Zm13.13-.11a5.68,5.68,0,1,0,5.68,5.68A5.68,5.68,0,0,0,198,322.63Zm13.13,0a5.72,5.72,0,1,0,5.72,5.72A5.72,5.72,0,0,0,211.15,322.59Zm13.13,0a5.68,5.68,0,1,0,5.68,5.68A5.68,5.68,0,0,0,224.28,322.63Zm13.13.11a5.57,5.57,0,1,0,5.57,5.57A5.57,5.57,0,0,0,237.41,322.74Zm13.13.18a5.39,5.39,0,1,0,5.39,5.39A5.39,5.39,0,0,0,250.54,322.92Zm13.13.22a5.17,5.17,0,1,0,5.17,5.17A5.17,5.17,0,0,0,263.67,323.14Zm13.14.29a4.88,4.88,0,1,0,4.87,4.88A4.87,4.87,0,0,0,276.81,323.43Zm13.13.33a4.55,4.55,0,1,0,4.55,4.55A4.56,4.56,0,0,0,289.94,323.76Zm13.13.33a4.22,4.22,0,1,0,4.22,4.22A4.22,4.22,0,0,0,303.07,324.09Zm13.13.4a3.82,3.82,0,1,0,3.82,3.82A3.82,3.82,0,0,0,316.2,324.49Zm13.13.43a3.39,3.39,0,1,0,3.39,3.39A3.39,3.39,0,0,0,329.33,324.92Zm13.13.44a2.95,2.95,0,1,0,3,2.95A2.95,2.95,0,0,0,342.46,325.36Zm13.13.44a2.51,2.51,0,1,0,2.51,2.51A2.51,2.51,0,0,0,355.59,325.8Zm13.13.47a2,2,0,1,0,2,2A2,2,0,0,0,368.72,326.27Zm13.13.47a1.57,1.57,0,1,0,1.57,1.57A1.56,1.56,0,0,0,381.85,326.74Zm13.13.51a1.06,1.06,0,1,0,1.06,1.06A1.06,1.06,0,0,0,395,327.25Zm13.13.51a.55.55,0,1,0,.55.55A.55.55,0,0,0,408.11,327.76Zm13.14.44a.11.11,0,0,0,0,.22.11.11,0,0,0,0-.22Zm-407.06,13a.22.22,0,1,0,.22.22A.22.22,0,0,0,14.19,341.22Zm13.13-.51a.73.73,0,1,0,.73.73A.73.73,0,0,0,27.32,340.71Zm13.13-.47a1.2,1.2,0,1,0,1.2,1.2A1.2,1.2,0,0,0,40.45,340.24Zm13.13-.47a1.68,1.68,0,1,0,1.67,1.67A1.68,1.68,0,0,0,53.58,339.77Zm13.13-.44a2.11,2.11,0,1,0,2.11,2.11A2.1,2.1,0,0,0,66.71,339.33Zm13.13-.44a2.55,2.55,0,1,0,2.55,2.55A2.55,2.55,0,0,0,79.84,338.89ZM93,338.45a3,3,0,1,0,3,3A3,3,0,0,0,93,338.45Zm13.13-.4a3.39,3.39,0,1,0,3.39,3.39A3.38,3.38,0,0,0,106.1,338.05Zm13.13-.36a3.75,3.75,0,1,0,3.75,3.75A3.75,3.75,0,0,0,119.23,337.69Zm13.14-.33a4.08,4.08,0,1,0,4.07,4.08A4.08,4.08,0,0,0,132.37,337.36Zm13.13-.29a4.37,4.37,0,1,0,4.37,4.37A4.37,4.37,0,0,0,145.5,337.07Zm13.13-.25a4.62,4.62,0,1,0,4.62,4.62A4.62,4.62,0,0,0,158.63,336.82Zm13.13-.22a4.84,4.84,0,1,0,4.84,4.84A4.84,4.84,0,0,0,171.76,336.6Zm13.13-.15a5,5,0,1,0,5,5A5,5,0,0,0,184.89,336.45Zm13.13-.11a5.1,5.1,0,1,0,5.1,5.1A5.1,5.1,0,0,0,198,336.34Zm13.13,0a5.13,5.13,0,1,0,5.13,5.13A5.13,5.13,0,0,0,211.15,336.31Zm13.13,0a5.1,5.1,0,1,0,5.1,5.1A5.11,5.11,0,0,0,224.28,336.34Zm13.13.08a5,5,0,1,0,5,5A5,5,0,0,0,237.41,336.42Zm13.13.14a4.88,4.88,0,1,0,4.88,4.88A4.89,4.89,0,0,0,250.54,336.56Zm13.13.22a4.66,4.66,0,1,0,4.66,4.66A4.66,4.66,0,0,0,263.67,336.78Zm13.14.25a4.41,4.41,0,1,0,4.4,4.41A4.41,4.41,0,0,0,276.81,337Zm13.13.3a4.11,4.11,0,1,0,4.11,4.11A4.11,4.11,0,0,0,289.94,337.33Zm13.13.36a3.75,3.75,0,1,0,3.75,3.75A3.75,3.75,0,0,0,303.07,337.69Zm13.13.36a3.39,3.39,0,1,0,3.38,3.39A3.39,3.39,0,0,0,316.2,338.05Zm13.13.37a3,3,0,1,0,3,3A3,3,0,0,0,329.33,338.42Zm13.13.44a2.59,2.59,0,1,0,2.59,2.58A2.58,2.58,0,0,0,342.46,338.86Zm13.13.43a2.15,2.15,0,1,0,2.15,2.15A2.15,2.15,0,0,0,355.59,339.29Zm13.13.44a1.71,1.71,0,1,0,1.71,1.71A1.72,1.72,0,0,0,368.72,339.73Zm13.13.47a1.24,1.24,0,1,0,1.24,1.24A1.25,1.25,0,0,0,381.85,340.2Zm13.13.48a.76.76,0,0,0-.76.76.77.77,0,1,0,.76-.76Zm13.13.47a.29.29,0,1,0,.3.29A.29.29,0,0,0,408.11,341.15Zm-394,13.42a0,0,0,0,0,0,0s0,0,0,0,0,0,0,0A0,0,0,0,0,14.15,354.57Zm13.17-.4a.4.4,0,1,0,.4.4A.4.4,0,0,0,27.32,354.17Zm13.13-.47a.88.88,0,1,0,.87.87A.88.88,0,0,0,40.45,353.7Zm13.13-.44a1.31,1.31,0,1,0,1.31,1.31A1.31,1.31,0,0,0,53.58,353.26Zm13.13-.44a1.75,1.75,0,1,0,1.75,1.75A1.76,1.76,0,0,0,66.71,352.82Zm13.13-.4A2.15,2.15,0,1,0,82,354.57,2.15,2.15,0,0,0,79.84,352.42ZM93,352a2.55,2.55,0,1,0,2.55,2.55A2.55,2.55,0,0,0,93,352Zm13.13-.36a2.91,2.91,0,1,0,2.92,2.91A2.91,2.91,0,0,0,106.1,351.66Zm13.13-.37a3.28,3.28,0,1,0,3.28,3.28A3.27,3.27,0,0,0,119.23,351.29Zm13.14-.32a3.61,3.61,0,1,0,3.6,3.6A3.6,3.6,0,0,0,132.37,351Zm13.13-.26a3.86,3.86,0,1,0,3.86,3.86A3.86,3.86,0,0,0,145.5,350.71Zm13.13-.25a4.12,4.12,0,1,0,4.11,4.11A4.11,4.11,0,0,0,158.63,350.46Zm13.13-.19a4.3,4.3,0,1,0,4.29,4.3A4.31,4.31,0,0,0,171.76,350.27Zm13.13-.14a4.44,4.44,0,1,0,4.44,4.44A4.44,4.44,0,0,0,184.89,350.13Zm13.13-.07a4.52,4.52,0,1,0,4.51,4.51A4.52,4.52,0,0,0,198,350.06Zm13.13-.08a4.59,4.59,0,1,0,4.59,4.59A4.6,4.6,0,0,0,211.15,350Zm13.13,0a4.55,4.55,0,1,0,4.55,4.55A4.55,4.55,0,0,0,224.28,350Zm13.13.11a4.44,4.44,0,1,0,4.44,4.44A4.44,4.44,0,0,0,237.41,350.13Zm13.13.14a4.3,4.3,0,1,0,4.3,4.3A4.3,4.3,0,0,0,250.54,350.27Zm13.13.19a4.12,4.12,0,1,0,4.12,4.11A4.11,4.11,0,0,0,263.67,350.46Zm13.14.22a3.9,3.9,0,1,0,3.89,3.89A3.89,3.89,0,0,0,276.81,350.68Zm13.13.29a3.61,3.61,0,1,0,3.6,3.6A3.61,3.61,0,0,0,289.94,351Zm13.13.29a3.31,3.31,0,1,0,3.31,3.31A3.32,3.32,0,0,0,303.07,351.26Zm13.13.36a2.95,2.95,0,1,0,2.95,2.95A2.95,2.95,0,0,0,316.2,351.62Zm13.13.37a2.59,2.59,0,1,0,2.58,2.58A2.58,2.58,0,0,0,329.33,352Zm13.13.4a2.19,2.19,0,1,0,2.18,2.18A2.17,2.17,0,0,0,342.46,352.39Zm13.13.4a1.79,1.79,0,1,0,1.79,1.78A1.78,1.78,0,0,0,355.59,352.79Zm13.13.43a1.35,1.35,0,1,0,1.35,1.35A1.36,1.36,0,0,0,368.72,353.22Zm13.13.44a.91.91,0,1,0,.91.91A.91.91,0,0,0,381.85,353.66Zm13.13.47a.44.44,0,1,0,.44.44A.44.44,0,0,0,395,354.13Zm13.06.44a.07.07,0,0,0,.07.07.07.07,0,1,0,0-.14A.07.07,0,0,0,408,354.57Zm-380.72,13a.11.11,0,1,0,.11.11A.11.11,0,0,0,27.32,367.59Zm13.13-.4a.51.51,0,1,0,.51.51A.51.51,0,0,0,40.45,367.19Zm13.13-.43a.95.95,0,1,0,1,.94A.95.95,0,0,0,53.58,366.76Zm13.13-.41a1.35,1.35,0,1,0,1.35,1.35A1.36,1.36,0,0,0,66.71,366.35Zm13.13-.4a1.75,1.75,0,1,0,1.75,1.75A1.76,1.76,0,0,0,79.84,366ZM93,365.59a2.11,2.11,0,1,0,2.11,2.11A2.12,2.12,0,0,0,93,365.59Zm13.13-.36a2.48,2.48,0,1,0,2.48,2.47A2.47,2.47,0,0,0,106.1,365.23Zm13.13-.33a2.81,2.81,0,1,0,2.81,2.8A2.8,2.8,0,0,0,119.23,364.9Zm13.14-.29a3.1,3.1,0,1,0,3.09,3.09A3.09,3.09,0,0,0,132.37,364.61Zm13.13-.26a3.35,3.35,0,1,0,3.35,3.35A3.35,3.35,0,0,0,145.5,364.35Zm13.13-.22a3.57,3.57,0,1,0,3.57,3.57A3.57,3.57,0,0,0,158.63,364.13Zm13.13-.18a3.75,3.75,0,1,0,3.75,3.75A3.75,3.75,0,0,0,171.76,364Zm13.13-.14a3.9,3.9,0,1,0,3.89,3.89A3.9,3.9,0,0,0,184.89,363.81Zm13.13-.08a4,4,0,1,0,4,4A4,4,0,0,0,198,363.73Zm13.13,0a4,4,0,1,0,4,4A4,4,0,0,0,211.15,363.7Zm13.13,0a4,4,0,1,0,4,4A4,4,0,0,0,224.28,363.73Zm13.13.08a3.9,3.9,0,1,0,3.9,3.89A3.89,3.89,0,0,0,237.41,363.81Zm13.13.14a3.75,3.75,0,1,0,3.75,3.75A3.75,3.75,0,0,0,250.54,364Zm13.13.15a3.61,3.61,0,1,0,3.61,3.6A3.6,3.6,0,0,0,263.67,364.1Zm13.14.22a3.39,3.39,0,1,0,3.38,3.38A3.38,3.38,0,0,0,276.81,364.32Zm13.13.25a3.13,3.13,0,1,0,3.13,3.13A3.14,3.14,0,0,0,289.94,364.57Zm13.13.29a2.84,2.84,0,1,0,2.84,2.84A2.84,2.84,0,0,0,303.07,364.86Zm13.13.33a2.51,2.51,0,1,0,2.51,2.51A2.51,2.51,0,0,0,316.2,365.19Zm13.13.36a2.15,2.15,0,1,0,2.15,2.15A2.15,2.15,0,0,0,329.33,365.55Zm13.13.37a1.79,1.79,0,1,0,1.78,1.78A1.78,1.78,0,0,0,342.46,365.92Zm13.13.4A1.39,1.39,0,1,0,357,367.7,1.38,1.38,0,0,0,355.59,366.32Zm13.13.4a1,1,0,0,0,0,2,1,1,0,1,0,0-2Zm13.13.44a.54.54,0,0,0-.54.54.55.55,0,0,0,.54.55.55.55,0,0,0,.55-.55A.55.55,0,0,0,381.85,367.16Zm13.13.4a.14.14,0,0,0-.14.14.15.15,0,0,0,.14.15.15.15,0,0,0,.15-.15A.15.15,0,0,0,395,367.56ZM40.45,380.69a.15.15,0,0,0-.15.14.15.15,0,0,0,.15.15.15.15,0,0,0,.14-.15A.14.14,0,0,0,40.45,380.69Zm13.13-.4a.55.55,0,0,0-.55.54.55.55,0,0,0,1.1,0A.55.55,0,0,0,53.58,380.29Zm13.13-.4a.95.95,0,1,0,1,.94A.95.95,0,0,0,66.71,379.89Zm13.13-.37a1.31,1.31,0,1,0,1.31,1.31A1.31,1.31,0,0,0,79.84,379.52ZM93,379.16a1.68,1.68,0,1,0,1.68,1.67A1.67,1.67,0,0,0,93,379.16Zm13.13-.33a2,2,0,1,0,2,2A2,2,0,0,0,106.1,378.83Zm13.13-.33a2.33,2.33,0,1,0,2.33,2.33A2.34,2.34,0,0,0,119.23,378.5Zm13.14-.25a2.59,2.59,0,1,0,2.58,2.58A2.59,2.59,0,0,0,132.37,378.25ZM145.5,378a2.84,2.84,0,1,0,2.84,2.84A2.84,2.84,0,0,0,145.5,378Zm13.13-.18a3,3,0,1,0,3,3A3,3,0,0,0,158.63,377.81Zm13.13-.18a3.21,3.21,0,1,0,3.2,3.2A3.21,3.21,0,0,0,171.76,377.63Zm13.13-.11a3.32,3.32,0,1,0,3.31,3.31A3.31,3.31,0,0,0,184.89,377.52Zm13.13-.07a3.39,3.39,0,1,0,3.39,3.38A3.38,3.38,0,0,0,198,377.45Zm13.13,0a3.43,3.43,0,1,0,3.42,3.42A3.42,3.42,0,0,0,211.15,377.41Zm13.13,0a3.39,3.39,0,1,0,3.39,3.38A3.38,3.38,0,0,0,224.28,377.45Zm13.13.07a3.32,3.32,0,1,0,3.32,3.31A3.31,3.31,0,0,0,237.41,377.52Zm13.13.11a3.21,3.21,0,1,0,3.21,3.2A3.2,3.2,0,0,0,250.54,377.63Zm13.13.14a3.06,3.06,0,1,0,3.06,3.06A3.06,3.06,0,0,0,263.67,377.77Zm13.14.22a2.84,2.84,0,1,0,2.84,2.84A2.84,2.84,0,0,0,276.81,378Zm13.13.22a2.62,2.62,0,1,0,2.62,2.62A2.63,2.63,0,0,0,289.94,378.21Zm13.13.29a2.33,2.33,0,1,0,2.33,2.33A2.33,2.33,0,0,0,303.07,378.5Zm13.13.29a2,2,0,1,0,2,2A2,2,0,0,0,316.2,378.79Zm13.13.33a1.71,1.71,0,1,0,1.71,1.71A1.71,1.71,0,0,0,329.33,379.12Zm13.13.37a1.35,1.35,0,1,0,1.35,1.34A1.35,1.35,0,0,0,342.46,379.49Zm13.13.36a1,1,0,1,0,1,1A1,1,0,0,0,355.59,379.85Zm13.13.4a.59.59,0,1,0,.58.58A.58.58,0,0,0,368.72,380.25Zm13.13.4a.18.18,0,0,0-.18.18.18.18,0,1,0,.36,0A.18.18,0,0,0,381.85,380.65ZM53.58,393.82a.15.15,0,0,0-.15.14.15.15,0,0,0,.3,0A.15.15,0,0,0,53.58,393.82Zm13.13-.37a.51.51,0,0,0-.51.51.51.51,0,1,0,1,0A.51.51,0,0,0,66.71,393.45Zm13.13-.36a.88.88,0,0,0,0,1.75.88.88,0,1,0,0-1.75ZM93,392.76a1.21,1.21,0,1,0,1.2,1.2A1.2,1.2,0,0,0,93,392.76Zm13.13-.33a1.53,1.53,0,1,0,1.53,1.53A1.54,1.54,0,0,0,106.1,392.43Zm13.13-.29a1.82,1.82,0,1,0,1.82,1.82A1.83,1.83,0,0,0,119.23,392.14Zm13.14-.25a2.08,2.08,0,1,0,2.07,2.07A2.08,2.08,0,0,0,132.37,391.89Zm13.13-.22a2.3,2.3,0,1,0,2.29,2.29A2.3,2.3,0,0,0,145.5,391.67Zm13.13-.18A2.48,2.48,0,1,0,161.1,394,2.48,2.48,0,0,0,158.63,391.49Zm13.13-.15a2.63,2.63,0,1,0,2.62,2.62A2.62,2.62,0,0,0,171.76,391.34Zm13.13-.11a2.74,2.74,0,1,0,2.73,2.73A2.73,2.73,0,0,0,184.89,391.23Zm13.13-.07a2.81,2.81,0,1,0,2.8,2.8A2.8,2.8,0,0,0,198,391.16Zm13.13,0A2.84,2.84,0,1,0,214,394,2.84,2.84,0,0,0,211.15,391.12Zm13.13,0a2.81,2.81,0,1,0,2.81,2.8A2.8,2.8,0,0,0,224.28,391.16Zm13.13,0a2.77,2.77,0,1,0,2.77,2.76A2.76,2.76,0,0,0,237.41,391.2Zm13.13.11A2.66,2.66,0,1,0,253.2,394,2.65,2.65,0,0,0,250.54,391.31Zm13.13.14a2.52,2.52,0,1,0,2.52,2.51A2.52,2.52,0,0,0,263.67,391.45Zm13.14.18a2.33,2.33,0,1,0,2.33,2.33A2.33,2.33,0,0,0,276.81,391.63Zm13.13.26A2.08,2.08,0,1,0,292,394,2.08,2.08,0,0,0,289.94,391.89Zm13.13.25a1.82,1.82,0,1,0,1.82,1.82A1.82,1.82,0,0,0,303.07,392.14Zm13.13.26a1.57,1.57,0,1,0,1.56,1.56A1.56,1.56,0,0,0,316.2,392.4Zm13.13.33a1.24,1.24,0,1,0,1.24,1.23A1.24,1.24,0,0,0,329.33,392.73Zm13.13.32a.91.91,0,1,0,.91.91A.91.91,0,0,0,342.46,393.05Zm13.13.37a.55.55,0,1,0,.55.54A.55.55,0,0,0,355.59,393.42Zm13.13.36a.18.18,0,0,0-.18.18.18.18,0,1,0,.36,0A.18.18,0,0,0,368.72,393.78ZM66.71,407a.1.1,0,0,0-.11.11.11.11,0,0,0,.22,0A.1.1,0,0,0,66.71,407Zm13.13-.3a.41.41,0,1,0,.4.41A.4.4,0,0,0,79.84,406.69ZM93,406.37a.73.73,0,1,0,.73.73A.73.73,0,0,0,93,406.37Zm13.13-.29a1,1,0,1,0,1,1A1,1,0,0,0,106.1,406.08Zm13.13-.3a1.32,1.32,0,1,0,1.31,1.32A1.32,1.32,0,0,0,119.23,405.78Zm13.14-.21a1.53,1.53,0,1,0,1.52,1.53A1.52,1.52,0,0,0,132.37,405.57Zm13.13-.22a1.75,1.75,0,1,0,1.74,1.75A1.75,1.75,0,0,0,145.5,405.35Zm13.13-.18a1.93,1.93,0,1,0,1.93,1.93A1.92,1.92,0,0,0,158.63,405.17Zm13.13-.15a2.08,2.08,0,1,0,2.07,2.08A2.08,2.08,0,0,0,171.76,405Zm13.13-.11a2.19,2.19,0,1,0,2.18,2.19A2.19,2.19,0,0,0,184.89,404.91Zm13.13-.07a2.26,2.26,0,1,0,2.26,2.26A2.26,2.26,0,0,0,198,404.84Zm13.13,0a2.3,2.3,0,1,0,2.29,2.3A2.29,2.29,0,0,0,211.15,404.8Zm13.13,0a2.26,2.26,0,1,0,2.26,2.26A2.26,2.26,0,0,0,224.28,404.84Zm13.13.07a2.19,2.19,0,1,0,2.19,2.19A2.19,2.19,0,0,0,237.41,404.91Zm13.13.11a2.08,2.08,0,1,0,2.08,2.08A2.08,2.08,0,0,0,250.54,405Zm13.13.11a2,2,0,1,0,2,2A2,2,0,0,0,263.67,405.13Zm13.14.18a1.79,1.79,0,1,0,1.78,1.79A1.79,1.79,0,0,0,276.81,405.31Zm13.13.22a1.57,1.57,0,1,0,1.56,1.57A1.57,1.57,0,0,0,289.94,405.53Zm13.13.25a1.32,1.32,0,1,0,1.31,1.32A1.31,1.31,0,0,0,303.07,405.78Zm13.13.26a1.06,1.06,0,1,0,1.05,1.06A1.05,1.05,0,0,0,316.2,406Zm13.13.29a.77.77,0,1,0,0,1.53.77.77,0,0,0,0-1.53Zm13.13.33a.44.44,0,1,0,.44.44A.44.44,0,0,0,342.46,406.66Zm13.13.29a.14.14,0,0,0-.14.15.14.14,0,0,0,.14.14.15.15,0,0,0,.15-.14A.15.15,0,0,0,355.59,407ZM79.81,420.23a0,0,0,0,0,0,0s0,0,0,0a0,0,0,0,0,0,0S79.81,420.21,79.81,420.23ZM93,420a.26.26,0,0,0-.25.26.25.25,0,0,0,.25.25.26.26,0,0,0,.26-.25A.26.26,0,0,0,93,420Zm13.13-.29a.55.55,0,1,0,.55.55A.54.54,0,0,0,106.1,419.68Zm13.13-.25a.8.8,0,0,0,0,1.6.8.8,0,1,0,0-1.6Zm13.14-.22a1,1,0,1,0,1,1A1,1,0,0,0,132.37,419.21ZM145.5,419a1.21,1.21,0,1,0,1.2,1.21A1.21,1.21,0,0,0,145.5,419Zm13.13-.18a1.39,1.39,0,1,0,1.38,1.39A1.39,1.39,0,0,0,158.63,418.84Zm13.13-.14a1.53,1.53,0,1,0,1.53,1.53A1.52,1.52,0,0,0,171.76,418.7Zm13.13-.08a1.61,1.61,0,1,0,1.6,1.61A1.6,1.6,0,0,0,184.89,418.62Zm13.13-.07a1.68,1.68,0,1,0,1.67,1.68A1.68,1.68,0,0,0,198,418.55Zm13.13,0a1.72,1.72,0,1,0,1.71,1.72A1.72,1.72,0,0,0,211.15,418.51Zm13.13,0a1.68,1.68,0,1,0,1.68,1.68A1.68,1.68,0,0,0,224.28,418.55Zm13.13.07a1.61,1.61,0,1,0,1.6,1.61A1.61,1.61,0,0,0,237.41,418.62Zm13.13.08a1.53,1.53,0,1,0,1.53,1.53A1.53,1.53,0,0,0,250.54,418.7Zm13.13.14a1.39,1.39,0,1,0,1.39,1.39A1.38,1.38,0,0,0,263.67,418.84Zm13.14.15a1.24,1.24,0,1,0,1.23,1.24A1.23,1.23,0,0,0,276.81,419Zm13.13.22a1,1,0,0,0,0,2,1,1,0,0,0,0-2Zm13.13.22a.8.8,0,1,0,0,1.6.8.8,0,1,0,0-1.6Zm13.13.25a.55.55,0,1,0,0,1.09.55.55,0,0,0,0-1.09Zm13.13.25a.3.3,0,0,0-.29.3.29.29,0,1,0,.58,0A.3.3,0,0,0,329.33,419.93Zm13.06.3a.07.07,0,0,0,.14,0,.07.07,0,1,0-.14,0ZM106,433.36a.07.07,0,0,0,.07.07.08.08,0,0,0,.08-.07.09.09,0,0,0-.08-.08A.08.08,0,0,0,106,433.36Zm13.2-.26a.26.26,0,0,0-.25.26.25.25,0,0,0,.25.25.26.26,0,0,0,.26-.25A.26.26,0,0,0,119.23,433.1Zm13.14-.22a.48.48,0,0,0-.48.48.48.48,0,0,0,1,0A.48.48,0,0,0,132.37,432.88Zm13.13-.18a.66.66,0,1,0,.65.66A.65.65,0,0,0,145.5,432.7Zm13.13-.18a.84.84,0,1,0,.83.84A.83.83,0,0,0,158.63,432.52Zm13.13-.11a.95.95,0,1,0,0,1.89.95.95,0,0,0,0-1.89Zm13.13-.11a1.06,1.06,0,1,0,1.06,1.06A1.06,1.06,0,0,0,184.89,432.3Zm13.13,0a1.1,1.1,0,1,0,1.09,1.1A1.09,1.09,0,0,0,198,432.26Zm13.13,0a1.13,1.13,0,1,0,1.13,1.13A1.13,1.13,0,0,0,211.15,432.23Zm13.13,0a1.1,1.1,0,1,0,1.09,1.1A1.09,1.09,0,0,0,224.28,432.26Zm13.13,0a1.06,1.06,0,1,0,1.06,1.06A1.05,1.05,0,0,0,237.41,432.3Zm13.13.11a.95.95,0,1,0,1,.95A.94.94,0,0,0,250.54,432.41Zm13.13.11a.84.84,0,1,0,.84.84A.83.83,0,0,0,263.67,432.52Zm13.14.15a.69.69,0,1,0,.69.69A.69.69,0,0,0,276.81,432.67Zm13.13.18a.51.51,0,1,0,0,1,.51.51,0,0,0,0-1Zm13.13.22a.29.29,0,1,0,.29.29A.29.29,0,0,0,303.07,433.07Zm13.13.18a.11.11,0,1,0,.11.11A.11.11,0,0,0,316.2,433.25Z"/></svg>