<?xml version="1.0" encoding="UTF-8" standalone="no"?><svg xmlns="http://www.w3.org/2000/svg" xmlns:xlink="http://www.w3.org/1999/xlink" contentScriptType="text/ecmascript" fill="#045388" width="611.6" zoomAndPan="magnify" contentStyleType="text/css" viewBox="0.0 0.0 611.6 500.0" height="500" preserveAspectRatio="xMidYMid meet" version="1"><defs><clipPath id="a"><path d="M 0 0 L 611.648438 0 L 611.648438 500 L 0 500 Z M 0 0"/></clipPath></defs><g><g id="change1_1"><path fill="#0098cf" d="M 553.207031 107.476562 L 553.207031 84.457031 C 553.207031 78.148438 548.070312 73.015625 541.773438 73.015625 C 541.773438 73.015625 281.390625 72.992188 278.269531 73.015625 C 271.488281 73.015625 266.3125 68.238281 256.894531 59.5625 C 241.792969 45.609375 216.503906 22.277344 181.597656 19.722656 L 67.863281 19.746094 C 61.566406 19.746094 56.4375 24.878906 56.4375 31.191406 L 56.4375 107.460938 C 115.214844 107.492188 518.496094 107.507812 553.207031 107.476562"/></g><g id="change2_1"><path fill="#18a0fb" d="M 591.769531 138.410156 C 592.261719 131.898438 590.320312 127.574219 583.902344 127.179688 C 583.316406 127.140625 577.09375 127.113281 566.386719 127.089844 C 483.160156 126.914062 128.933594 127.105469 44.4375 127.164062 C 33.242188 127.171875 26.761719 127.175781 26.296875 127.179688 C 19.773438 127.199219 19.898438 131.808594 19.90625 138.519531 C 19.96875 191.441406 19.640625 415.523438 19.90625 474.164062 C 19.929688 476.996094 24.210938 480.25 27.945312 480.25 L 581.835938 480.25 C 586.664062 480.25 591.769531 476.042969 591.769531 474.195312 C 591.992188 425.714844 591.058594 202.824219 591.769531 138.410156"/></g><g id="change3_1" clip-path="url(#a)"><path fill="inherit" d="M 56.4375 31.191406 C 56.4375 24.878906 61.566406 19.746094 67.863281 19.746094 L 181.597656 19.722656 C 216.503906 22.277344 241.792969 45.609375 256.894531 59.5625 C 266.3125 68.238281 271.488281 73.015625 278.269531 73.015625 C 281.390625 72.992188 541.773438 73.015625 541.773438 73.015625 C 548.070312 73.015625 553.207031 78.148438 553.207031 84.457031 L 553.207031 107.476562 C 518.496094 107.507812 115.214844 107.492188 56.4375 107.460938 Z M 27.945312 480.25 C 24.210938 480.25 19.929688 476.996094 19.90625 474.164062 C 19.640625 415.523438 19.96875 191.441406 19.90625 138.519531 C 19.898438 131.808594 19.773438 127.199219 26.296875 127.179688 C 26.761719 127.175781 33.242188 127.171875 44.4375 127.164062 C 128.933594 127.105469 483.160156 126.914062 566.386719 127.089844 C 577.09375 127.113281 583.316406 127.140625 583.902344 127.179688 C 590.320312 127.574219 592.261719 131.898438 591.769531 138.410156 C 591.058594 202.824219 591.992188 425.714844 591.769531 474.195312 C 591.769531 476.042969 586.664062 480.25 581.835938 480.25 Z M 611.511719 138.929688 C 612.46875 126.796875 608.304688 119.523438 604.644531 115.558594 C 601.210938 111.847656 594.835938 107.429688 583.300781 107.429688 C 582.535156 107.4375 579.019531 107.445312 572.949219 107.460938 L 572.949219 84.460938 C 572.949219 67.265625 558.960938 53.269531 541.773438 53.269531 C 541.773438 53.269531 286.957031 53.242188 279.71875 53.261719 C 277.703125 51.886719 273.640625 48.136719 270.296875 45.066406 C 253.300781 29.359375 224.847656 3.085938 182.320312 0 L 67.863281 0 C 50.667969 0 36.6875 13.992188 36.6875 31.191406 L 36.6875 107.445312 C 30.640625 107.4375 26.957031 107.4375 26.132812 107.429688 C 16.667969 107.429688 -1.898438 107.773438 0.15625 138.558594 C 0.09375 194.128906 -0.105469 415.574219 0.15625 474.273438 C 0.234375 487.976562 13.226562 500 27.945312 500 L 581.835938 500 C 595.816406 500 611.484375 488.976562 611.519531 474.261719 C 611.75 425.757812 610.808594 202.894531 611.511719 138.929688"/></g></g></svg>