<?xml version="1.0" encoding="utf-8"?>
<svg xmlns="http://www.w3.org/2000/svg" width="500" zoomAndPan="magnify" viewBox="14.757 61.977 344.503 71.909" height="250" preserveAspectRatio="xMidYMid meet" version="1.0">
  <defs>
    <g/>
    <clipPath id="cb02389a60">
      <path d="M 29 5 L 156.871094 5 L 156.871094 28.773438 L 29 28.773438 Z M 29 5 " clip-rule="nonzero"/>
    </clipPath>
    <clipPath id="3922f5216a">
      <path d="M 87 0.03125 L 102 0.03125 L 102 19 L 87 19 Z M 87 0.03125 " clip-rule="nonzero"/>
    </clipPath>
    <clipPath id="1459397bbb">
      <path d="M 114 5 L 127.871094 5 L 127.871094 19 L 114 19 Z M 114 5 " clip-rule="nonzero"/>
    </clipPath>
    <clipPath id="ab7f94b9a9">
      <rect x="0" width="128" y="0" height="24"/>
    </clipPath>
    <clipPath id="3de17eba2e">
      <path d="M 0.554688 1.097656 L 8.144531 1.097656 L 8.144531 28.632812 L 0.554688 28.632812 Z M 0.554688 1.097656 " clip-rule="nonzero"/>
    </clipPath>
    <clipPath id="8a6e075f26">
      <path d="M 4.351562 1.097656 C 6.445312 1.097656 8.144531 2.796875 8.144531 4.890625 L 8.144531 24.8125 C 8.144531 26.90625 6.445312 28.605469 4.351562 28.605469 C 2.253906 28.605469 0.554688 26.90625 0.554688 24.8125 L 0.554688 4.890625 C 0.554688 2.796875 2.253906 1.097656 4.351562 1.097656 Z M 4.351562 1.097656 " clip-rule="nonzero"/>
    </clipPath>
    <clipPath id="23b4ab4bd7">
      <path d="M 0.554688 0.0976562 L 8.144531 0.0976562 L 8.144531 27.605469 L 0.554688 27.605469 Z M 0.554688 0.0976562 " clip-rule="nonzero"/>
    </clipPath>
    <clipPath id="c3b86c7ad7">
      <path d="M 4.351562 0.0976562 C 6.445312 0.0976562 8.144531 1.796875 8.144531 3.890625 L 8.144531 23.8125 C 8.144531 25.90625 6.445312 27.605469 4.351562 27.605469 C 2.253906 27.605469 0.554688 25.90625 0.554688 23.8125 L 0.554688 3.890625 C 0.554688 1.796875 2.253906 0.0976562 4.351562 0.0976562 Z M 4.351562 0.0976562 " clip-rule="nonzero"/>
    </clipPath>
    <radialGradient gradientTransform="matrix(1, 0, 0, 1, 0.556395, 0.0972231)" gradientUnits="userSpaceOnUse" r="28.536042" cx="0" id="ab0a28eafb" cy="0">
      <stop stop-opacity="1" stop-color="rgb(59.802246%, 98.764038%, 89.421082%)" offset="0"/>
      <stop stop-opacity="1" stop-color="rgb(60.139465%, 98.667908%, 89.442444%)" offset="0.0156"/>
      <stop stop-opacity="1" stop-color="rgb(60.429382%, 98.583984%, 89.460754%)" offset="0.0273"/>
      <stop stop-opacity="1" stop-color="rgb(60.719299%, 98.501587%, 89.479065%)" offset="0.0391"/>
      <stop stop-opacity="1" stop-color="rgb(61.00769%, 98.419189%, 89.497375%)" offset="0.0508"/>
      <stop stop-opacity="1" stop-color="rgb(61.297607%, 98.336792%, 89.517212%)" offset="0.0625"/>
      <stop stop-opacity="1" stop-color="rgb(61.587524%, 98.254395%, 89.535522%)" offset="0.0742"/>
      <stop stop-opacity="1" stop-color="rgb(61.875916%, 98.170471%, 89.553833%)" offset="0.0859"/>
      <stop stop-opacity="1" stop-color="rgb(62.165833%, 98.088074%, 89.572144%)" offset="0.0977"/>
      <stop stop-opacity="1" stop-color="rgb(62.45575%, 98.005676%, 89.590454%)" offset="0.1094"/>
      <stop stop-opacity="1" stop-color="rgb(62.744141%, 97.923279%, 89.608765%)" offset="0.1211"/>
      <stop stop-opacity="1" stop-color="rgb(63.034058%, 97.839355%, 89.627075%)" offset="0.1328"/>
      <stop stop-opacity="1" stop-color="rgb(63.323975%, 97.756958%, 89.645386%)" offset="0.1445"/>
      <stop stop-opacity="1" stop-color="rgb(63.612366%, 97.674561%, 89.663696%)" offset="0.1563"/>
      <stop stop-opacity="1" stop-color="rgb(63.902283%, 97.592163%, 89.682007%)" offset="0.168"/>
      <stop stop-opacity="1" stop-color="rgb(64.1922%, 97.509766%, 89.700317%)" offset="0.1797"/>
      <stop stop-opacity="1" stop-color="rgb(64.482117%, 97.425842%, 89.718628%)" offset="0.1914"/>
      <stop stop-opacity="1" stop-color="rgb(64.770508%, 97.343445%, 89.736938%)" offset="0.2031"/>
      <stop stop-opacity="1" stop-color="rgb(65.060425%, 97.261047%, 89.755249%)" offset="0.2148"/>
      <stop stop-opacity="1" stop-color="rgb(65.350342%, 97.17865%, 89.77356%)" offset="0.2266"/>
      <stop stop-opacity="1" stop-color="rgb(65.638733%, 97.094727%, 89.79187%)" offset="0.2383"/>
      <stop stop-opacity="1" stop-color="rgb(65.92865%, 97.012329%, 89.810181%)" offset="0.25"/>
      <stop stop-opacity="1" stop-color="rgb(66.169739%, 96.943665%, 89.826965%)" offset="0.2617"/>
      <stop stop-opacity="1" stop-color="rgb(66.363525%, 96.888733%, 89.839172%)" offset="0.2695"/>
      <stop stop-opacity="1" stop-color="rgb(66.555786%, 96.833801%, 89.851379%)" offset="0.2773"/>
      <stop stop-opacity="1" stop-color="rgb(66.748047%, 96.77887%, 89.863586%)" offset="0.2852"/>
      <stop stop-opacity="1" stop-color="rgb(66.941833%, 96.723938%, 89.875793%)" offset="0.293"/>
      <stop stop-opacity="1" stop-color="rgb(67.134094%, 96.66748%, 89.888%)" offset="0.3008"/>
      <stop stop-opacity="1" stop-color="rgb(67.327881%, 96.612549%, 89.900208%)" offset="0.3086"/>
      <stop stop-opacity="1" stop-color="rgb(67.520142%, 96.557617%, 89.912415%)" offset="0.3164"/>
      <stop stop-opacity="1" stop-color="rgb(67.713928%, 96.502686%, 89.924622%)" offset="0.3242"/>
      <stop stop-opacity="1" stop-color="rgb(67.906189%, 96.447754%, 89.936829%)" offset="0.332"/>
      <stop stop-opacity="1" stop-color="rgb(68.099976%, 96.392822%, 89.949036%)" offset="0.3398"/>
      <stop stop-opacity="1" stop-color="rgb(68.292236%, 96.336365%, 89.961243%)" offset="0.3477"/>
      <stop stop-opacity="1" stop-color="rgb(68.486023%, 96.281433%, 89.97345%)" offset="0.3555"/>
      <stop stop-opacity="1" stop-color="rgb(68.678284%, 96.226501%, 89.985657%)" offset="0.3633"/>
      <stop stop-opacity="1" stop-color="rgb(68.87207%, 96.17157%, 89.997864%)" offset="0.3711"/>
      <stop stop-opacity="1" stop-color="rgb(69.160461%, 96.089172%, 90.016174%)" offset="0.3789"/>
      <stop stop-opacity="1" stop-color="rgb(69.546509%, 95.977783%, 90.040588%)" offset="0.3945"/>
      <stop stop-opacity="1" stop-color="rgb(69.932556%, 95.86792%, 90.065002%)" offset="0.4102"/>
      <stop stop-opacity="1" stop-color="rgb(70.318604%, 95.758057%, 90.089417%)" offset="0.4258"/>
      <stop stop-opacity="1" stop-color="rgb(70.704651%, 95.648193%, 90.113831%)" offset="0.4414"/>
      <stop stop-opacity="1" stop-color="rgb(71.090698%, 95.536804%, 90.138245%)" offset="0.457"/>
      <stop stop-opacity="1" stop-color="rgb(71.476746%, 95.426941%, 90.164185%)" offset="0.4727"/>
      <stop stop-opacity="1" stop-color="rgb(71.862793%, 95.317078%, 90.188599%)" offset="0.4883"/>
      <stop stop-opacity="1" stop-color="rgb(72.200012%, 95.219421%, 90.209961%)" offset="0.5039"/>
      <stop stop-opacity="1" stop-color="rgb(72.489929%, 95.137024%, 90.228271%)" offset="0.5156"/>
      <stop stop-opacity="1" stop-color="rgb(72.779846%, 95.054626%, 90.246582%)" offset="0.5273"/>
      <stop stop-opacity="1" stop-color="rgb(73.068237%, 94.972229%, 90.264893%)" offset="0.5391"/>
      <stop stop-opacity="1" stop-color="rgb(73.358154%, 94.889832%, 90.283203%)" offset="0.5508"/>
      <stop stop-opacity="1" stop-color="rgb(73.648071%, 94.805908%, 90.301514%)" offset="0.5625"/>
      <stop stop-opacity="1" stop-color="rgb(73.936462%, 94.723511%, 90.319824%)" offset="0.5742"/>
      <stop stop-opacity="1" stop-color="rgb(74.226379%, 94.641113%, 90.338135%)" offset="0.5859"/>
      <stop stop-opacity="1" stop-color="rgb(74.516296%, 94.558716%, 90.356445%)" offset="0.5977"/>
      <stop stop-opacity="1" stop-color="rgb(74.804688%, 94.474792%, 90.374756%)" offset="0.6094"/>
      <stop stop-opacity="1" stop-color="rgb(75.094604%, 94.392395%, 90.393066%)" offset="0.6211"/>
      <stop stop-opacity="1" stop-color="rgb(75.335693%, 94.32373%, 90.408325%)" offset="0.6328"/>
      <stop stop-opacity="1" stop-color="rgb(75.52948%, 94.268799%, 90.420532%)" offset="0.6406"/>
      <stop stop-opacity="1" stop-color="rgb(75.721741%, 94.213867%, 90.432739%)" offset="0.6484"/>
      <stop stop-opacity="1" stop-color="rgb(75.914001%, 94.158936%, 90.444946%)" offset="0.6563"/>
      <stop stop-opacity="1" stop-color="rgb(76.107788%, 94.104004%, 90.458679%)" offset="0.6641"/>
      <stop stop-opacity="1" stop-color="rgb(76.300049%, 94.047546%, 90.470886%)" offset="0.6719"/>
      <stop stop-opacity="1" stop-color="rgb(76.493835%, 93.992615%, 90.483093%)" offset="0.6797"/>
      <stop stop-opacity="1" stop-color="rgb(76.686096%, 93.937683%, 90.4953%)" offset="0.6875"/>
      <stop stop-opacity="1" stop-color="rgb(76.976013%, 93.855286%, 90.513611%)" offset="0.6953"/>
      <stop stop-opacity="1" stop-color="rgb(77.362061%, 93.743896%, 90.538025%)" offset="0.7109"/>
      <stop stop-opacity="1" stop-color="rgb(77.748108%, 93.634033%, 90.562439%)" offset="0.7266"/>
      <stop stop-opacity="1" stop-color="rgb(78.134155%, 93.52417%, 90.586853%)" offset="0.7422"/>
      <stop stop-opacity="1" stop-color="rgb(78.471375%, 93.42804%, 90.608215%)" offset="0.7578"/>
      <stop stop-opacity="1" stop-color="rgb(78.761292%, 93.344116%, 90.626526%)" offset="0.7695"/>
      <stop stop-opacity="1" stop-color="rgb(79.051208%, 93.261719%, 90.644836%)" offset="0.7813"/>
      <stop stop-opacity="1" stop-color="rgb(79.3396%, 93.179321%, 90.663147%)" offset="0.793"/>
      <stop stop-opacity="1" stop-color="rgb(79.629517%, 93.096924%, 90.681458%)" offset="0.8047"/>
      <stop stop-opacity="1" stop-color="rgb(79.870605%, 93.028259%, 90.696716%)" offset="0.8164"/>
      <stop stop-opacity="1" stop-color="rgb(80.062866%, 92.971802%, 90.708923%)" offset="0.8242"/>
      <stop stop-opacity="1" stop-color="rgb(80.256653%, 92.91687%, 90.72113%)" offset="0.832"/>
      <stop stop-opacity="1" stop-color="rgb(80.448914%, 92.861938%, 90.733337%)" offset="0.8398"/>
      <stop stop-opacity="1" stop-color="rgb(80.738831%, 92.779541%, 90.751648%)" offset="0.8477"/>
      <stop stop-opacity="1" stop-color="rgb(81.124878%, 92.669678%, 90.776062%)" offset="0.8633"/>
      <stop stop-opacity="1" stop-color="rgb(81.462097%, 92.572021%, 90.79895%)" offset="0.8789"/>
      <stop stop-opacity="1" stop-color="rgb(81.752014%, 92.489624%, 90.817261%)" offset="0.8906"/>
      <stop stop-opacity="1" stop-color="rgb(82.041931%, 92.407227%, 90.835571%)" offset="0.9023"/>
      <stop stop-opacity="1" stop-color="rgb(82.28302%, 92.338562%, 90.85083%)" offset="0.9141"/>
      <stop stop-opacity="1" stop-color="rgb(82.475281%, 92.28363%, 90.863037%)" offset="0.9219"/>
      <stop stop-opacity="1" stop-color="rgb(82.765198%, 92.199707%, 90.881348%)" offset="0.9297"/>
      <stop stop-opacity="1" stop-color="rgb(83.102417%, 92.103577%, 90.90271%)" offset="0.9453"/>
      <stop stop-opacity="1" stop-color="rgb(83.343506%, 92.034912%, 90.917969%)" offset="0.957"/>
      <stop stop-opacity="1" stop-color="rgb(83.633423%, 91.952515%, 90.936279%)" offset="0.9648"/>
      <stop stop-opacity="1" stop-color="rgb(83.92334%, 91.870117%, 90.95459%)" offset="0.9805"/>
      <stop stop-opacity="1" stop-color="rgb(84.164429%, 91.799927%, 90.969849%)" offset="0.9883"/>
      <stop stop-opacity="1" stop-color="rgb(84.309387%, 91.758728%, 90.979004%)" offset="1"/>
    </radialGradient>
    <clipPath id="f35bb13a34">
      <rect x="0" width="9" y="0" height="28"/>
    </clipPath>
    <clipPath id="158a0457ba">
      <path d="M 8.144531 10 L 17.847656 10 L 17.847656 19.703125 L 8.144531 19.703125 Z M 8.144531 10 " clip-rule="nonzero"/>
    </clipPath>
    <clipPath id="bd4215416d">
      <path d="M 12.996094 10 C 10.316406 10 8.144531 12.171875 8.144531 14.851562 C 8.144531 17.53125 10.316406 19.703125 12.996094 19.703125 C 15.675781 19.703125 17.847656 17.53125 17.847656 14.851562 C 17.847656 12.171875 15.675781 10 12.996094 10 Z M 12.996094 10 " clip-rule="nonzero"/>
    </clipPath>
    <clipPath id="c2835cc1a5">
      <path d="M 0.144531 0 L 9.847656 0 L 9.847656 9.703125 L 0.144531 9.703125 Z M 0.144531 0 " clip-rule="nonzero"/>
    </clipPath>
    <clipPath id="1a3badcd50">
      <path d="M 4.996094 0 C 2.316406 0 0.144531 2.171875 0.144531 4.851562 C 0.144531 7.53125 2.316406 9.703125 4.996094 9.703125 C 7.675781 9.703125 9.847656 7.53125 9.847656 4.851562 C 9.847656 2.171875 7.675781 0 4.996094 0 Z M 4.996094 0 " clip-rule="nonzero"/>
    </clipPath>
    <radialGradient gradientTransform="matrix(1, 0, 0, 1, 0.144608, -0.000310288)" gradientUnits="userSpaceOnUse" r="13.723124" cx="0" id="048208918d" cy="0">
      <stop stop-opacity="1" stop-color="rgb(59.802246%, 98.764038%, 89.421082%)" offset="0"/>
      <stop stop-opacity="1" stop-color="rgb(60.139465%, 98.667908%, 89.442444%)" offset="0.0156"/>
      <stop stop-opacity="1" stop-color="rgb(60.429382%, 98.583984%, 89.460754%)" offset="0.0273"/>
      <stop stop-opacity="1" stop-color="rgb(60.719299%, 98.501587%, 89.479065%)" offset="0.0391"/>
      <stop stop-opacity="1" stop-color="rgb(61.00769%, 98.419189%, 89.497375%)" offset="0.0508"/>
      <stop stop-opacity="1" stop-color="rgb(61.297607%, 98.336792%, 89.517212%)" offset="0.0625"/>
      <stop stop-opacity="1" stop-color="rgb(61.587524%, 98.254395%, 89.535522%)" offset="0.0742"/>
      <stop stop-opacity="1" stop-color="rgb(61.875916%, 98.170471%, 89.553833%)" offset="0.0859"/>
      <stop stop-opacity="1" stop-color="rgb(62.165833%, 98.088074%, 89.572144%)" offset="0.0977"/>
      <stop stop-opacity="1" stop-color="rgb(62.45575%, 98.005676%, 89.590454%)" offset="0.1094"/>
      <stop stop-opacity="1" stop-color="rgb(62.744141%, 97.923279%, 89.608765%)" offset="0.1211"/>
      <stop stop-opacity="1" stop-color="rgb(63.034058%, 97.839355%, 89.627075%)" offset="0.1328"/>
      <stop stop-opacity="1" stop-color="rgb(63.323975%, 97.756958%, 89.645386%)" offset="0.1445"/>
      <stop stop-opacity="1" stop-color="rgb(63.612366%, 97.674561%, 89.663696%)" offset="0.1563"/>
      <stop stop-opacity="1" stop-color="rgb(63.902283%, 97.592163%, 89.682007%)" offset="0.168"/>
      <stop stop-opacity="1" stop-color="rgb(64.1922%, 97.509766%, 89.700317%)" offset="0.1797"/>
      <stop stop-opacity="1" stop-color="rgb(64.482117%, 97.425842%, 89.718628%)" offset="0.1914"/>
      <stop stop-opacity="1" stop-color="rgb(64.770508%, 97.343445%, 89.736938%)" offset="0.2031"/>
      <stop stop-opacity="1" stop-color="rgb(65.060425%, 97.261047%, 89.755249%)" offset="0.2148"/>
      <stop stop-opacity="1" stop-color="rgb(65.350342%, 97.17865%, 89.77356%)" offset="0.2266"/>
      <stop stop-opacity="1" stop-color="rgb(65.638733%, 97.094727%, 89.79187%)" offset="0.2383"/>
      <stop stop-opacity="1" stop-color="rgb(65.92865%, 97.012329%, 89.810181%)" offset="0.25"/>
      <stop stop-opacity="1" stop-color="rgb(66.169739%, 96.943665%, 89.826965%)" offset="0.2617"/>
      <stop stop-opacity="1" stop-color="rgb(66.363525%, 96.888733%, 89.839172%)" offset="0.2695"/>
      <stop stop-opacity="1" stop-color="rgb(66.555786%, 96.833801%, 89.851379%)" offset="0.2773"/>
      <stop stop-opacity="1" stop-color="rgb(66.748047%, 96.77887%, 89.863586%)" offset="0.2852"/>
      <stop stop-opacity="1" stop-color="rgb(66.941833%, 96.723938%, 89.875793%)" offset="0.293"/>
      <stop stop-opacity="1" stop-color="rgb(67.134094%, 96.66748%, 89.888%)" offset="0.3008"/>
      <stop stop-opacity="1" stop-color="rgb(67.327881%, 96.612549%, 89.900208%)" offset="0.3086"/>
      <stop stop-opacity="1" stop-color="rgb(67.520142%, 96.557617%, 89.912415%)" offset="0.3164"/>
      <stop stop-opacity="1" stop-color="rgb(67.713928%, 96.502686%, 89.924622%)" offset="0.3242"/>
      <stop stop-opacity="1" stop-color="rgb(67.906189%, 96.447754%, 89.936829%)" offset="0.332"/>
      <stop stop-opacity="1" stop-color="rgb(68.099976%, 96.392822%, 89.949036%)" offset="0.3398"/>
      <stop stop-opacity="1" stop-color="rgb(68.292236%, 96.336365%, 89.961243%)" offset="0.3477"/>
      <stop stop-opacity="1" stop-color="rgb(68.486023%, 96.281433%, 89.97345%)" offset="0.3555"/>
      <stop stop-opacity="1" stop-color="rgb(68.678284%, 96.226501%, 89.985657%)" offset="0.3633"/>
      <stop stop-opacity="1" stop-color="rgb(68.87207%, 96.17157%, 89.997864%)" offset="0.3711"/>
      <stop stop-opacity="1" stop-color="rgb(69.160461%, 96.089172%, 90.016174%)" offset="0.3789"/>
      <stop stop-opacity="1" stop-color="rgb(69.546509%, 95.977783%, 90.040588%)" offset="0.3945"/>
      <stop stop-opacity="1" stop-color="rgb(69.932556%, 95.86792%, 90.065002%)" offset="0.4102"/>
      <stop stop-opacity="1" stop-color="rgb(70.318604%, 95.758057%, 90.089417%)" offset="0.4258"/>
      <stop stop-opacity="1" stop-color="rgb(70.704651%, 95.648193%, 90.113831%)" offset="0.4414"/>
      <stop stop-opacity="1" stop-color="rgb(71.090698%, 95.536804%, 90.138245%)" offset="0.457"/>
      <stop stop-opacity="1" stop-color="rgb(71.476746%, 95.426941%, 90.164185%)" offset="0.4727"/>
      <stop stop-opacity="1" stop-color="rgb(71.862793%, 95.317078%, 90.188599%)" offset="0.4883"/>
      <stop stop-opacity="1" stop-color="rgb(72.200012%, 95.219421%, 90.209961%)" offset="0.5039"/>
      <stop stop-opacity="1" stop-color="rgb(72.489929%, 95.137024%, 90.228271%)" offset="0.5156"/>
      <stop stop-opacity="1" stop-color="rgb(72.779846%, 95.054626%, 90.246582%)" offset="0.5273"/>
      <stop stop-opacity="1" stop-color="rgb(73.068237%, 94.972229%, 90.264893%)" offset="0.5391"/>
      <stop stop-opacity="1" stop-color="rgb(73.358154%, 94.889832%, 90.283203%)" offset="0.5508"/>
      <stop stop-opacity="1" stop-color="rgb(73.648071%, 94.805908%, 90.301514%)" offset="0.5625"/>
      <stop stop-opacity="1" stop-color="rgb(73.936462%, 94.723511%, 90.319824%)" offset="0.5742"/>
      <stop stop-opacity="1" stop-color="rgb(74.226379%, 94.641113%, 90.338135%)" offset="0.5859"/>
      <stop stop-opacity="1" stop-color="rgb(74.516296%, 94.558716%, 90.356445%)" offset="0.5977"/>
      <stop stop-opacity="1" stop-color="rgb(74.804688%, 94.474792%, 90.374756%)" offset="0.6094"/>
      <stop stop-opacity="1" stop-color="rgb(75.094604%, 94.392395%, 90.393066%)" offset="0.6211"/>
      <stop stop-opacity="1" stop-color="rgb(75.335693%, 94.32373%, 90.408325%)" offset="0.6328"/>
      <stop stop-opacity="1" stop-color="rgb(75.52948%, 94.268799%, 90.420532%)" offset="0.6406"/>
      <stop stop-opacity="1" stop-color="rgb(75.721741%, 94.213867%, 90.432739%)" offset="0.6484"/>
      <stop stop-opacity="1" stop-color="rgb(75.914001%, 94.158936%, 90.444946%)" offset="0.6563"/>
      <stop stop-opacity="1" stop-color="rgb(76.107788%, 94.104004%, 90.458679%)" offset="0.6641"/>
      <stop stop-opacity="1" stop-color="rgb(76.300049%, 94.047546%, 90.470886%)" offset="0.6719"/>
      <stop stop-opacity="1" stop-color="rgb(76.493835%, 93.992615%, 90.483093%)" offset="0.6797"/>
      <stop stop-opacity="1" stop-color="rgb(76.686096%, 93.937683%, 90.4953%)" offset="0.6875"/>
      <stop stop-opacity="1" stop-color="rgb(76.976013%, 93.855286%, 90.513611%)" offset="0.6953"/>
      <stop stop-opacity="1" stop-color="rgb(77.362061%, 93.743896%, 90.538025%)" offset="0.7109"/>
      <stop stop-opacity="1" stop-color="rgb(77.748108%, 93.634033%, 90.562439%)" offset="0.7266"/>
      <stop stop-opacity="1" stop-color="rgb(78.134155%, 93.52417%, 90.586853%)" offset="0.7422"/>
      <stop stop-opacity="1" stop-color="rgb(78.471375%, 93.42804%, 90.608215%)" offset="0.7578"/>
      <stop stop-opacity="1" stop-color="rgb(78.761292%, 93.344116%, 90.626526%)" offset="0.7695"/>
      <stop stop-opacity="1" stop-color="rgb(79.051208%, 93.261719%, 90.644836%)" offset="0.7813"/>
      <stop stop-opacity="1" stop-color="rgb(79.3396%, 93.179321%, 90.663147%)" offset="0.793"/>
      <stop stop-opacity="1" stop-color="rgb(79.629517%, 93.096924%, 90.681458%)" offset="0.8047"/>
      <stop stop-opacity="1" stop-color="rgb(79.870605%, 93.028259%, 90.696716%)" offset="0.8164"/>
      <stop stop-opacity="1" stop-color="rgb(80.062866%, 92.971802%, 90.708923%)" offset="0.8242"/>
      <stop stop-opacity="1" stop-color="rgb(80.256653%, 92.91687%, 90.72113%)" offset="0.832"/>
      <stop stop-opacity="1" stop-color="rgb(80.448914%, 92.861938%, 90.733337%)" offset="0.8398"/>
      <stop stop-opacity="1" stop-color="rgb(80.738831%, 92.779541%, 90.751648%)" offset="0.8477"/>
      <stop stop-opacity="1" stop-color="rgb(81.124878%, 92.669678%, 90.776062%)" offset="0.8633"/>
      <stop stop-opacity="1" stop-color="rgb(81.462097%, 92.572021%, 90.79895%)" offset="0.8789"/>
      <stop stop-opacity="1" stop-color="rgb(81.752014%, 92.489624%, 90.817261%)" offset="0.8906"/>
      <stop stop-opacity="1" stop-color="rgb(82.041931%, 92.407227%, 90.835571%)" offset="0.9023"/>
      <stop stop-opacity="1" stop-color="rgb(82.28302%, 92.338562%, 90.85083%)" offset="0.9141"/>
      <stop stop-opacity="1" stop-color="rgb(82.475281%, 92.28363%, 90.863037%)" offset="0.9219"/>
      <stop stop-opacity="1" stop-color="rgb(82.765198%, 92.199707%, 90.881348%)" offset="0.9297"/>
      <stop stop-opacity="1" stop-color="rgb(83.102417%, 92.103577%, 90.90271%)" offset="0.9453"/>
      <stop stop-opacity="1" stop-color="rgb(83.343506%, 92.034912%, 90.917969%)" offset="0.957"/>
      <stop stop-opacity="1" stop-color="rgb(83.633423%, 91.952515%, 90.936279%)" offset="0.9648"/>
      <stop stop-opacity="1" stop-color="rgb(83.92334%, 91.870117%, 90.95459%)" offset="0.9805"/>
      <stop stop-opacity="1" stop-color="rgb(84.164429%, 91.799927%, 90.969849%)" offset="0.9883"/>
      <stop stop-opacity="1" stop-color="rgb(84.309387%, 91.758728%, 90.979004%)" offset="1"/>
    </radialGradient>
    <clipPath id="0d2bfe3e88">
      <rect x="0" width="10" y="0" height="10"/>
    </clipPath>
    <clipPath id="64956dbde0">
      <path d="M 17.847656 1.097656 L 25.4375 1.097656 L 25.4375 28.632812 L 17.847656 28.632812 Z M 17.847656 1.097656 " clip-rule="nonzero"/>
    </clipPath>
    <clipPath id="0703c5146a">
      <path d="M 21.640625 1.097656 C 23.738281 1.097656 25.4375 2.796875 25.4375 4.890625 L 25.4375 24.8125 C 25.4375 26.90625 23.738281 28.605469 21.640625 28.605469 C 19.546875 28.605469 17.847656 26.90625 17.847656 24.8125 L 17.847656 4.890625 C 17.847656 2.796875 19.546875 1.097656 21.640625 1.097656 Z M 21.640625 1.097656 " clip-rule="nonzero"/>
    </clipPath>
    <clipPath id="f2bd48519d">
      <path d="M 0.847656 0.0976562 L 8.4375 0.0976562 L 8.4375 27.605469 L 0.847656 27.605469 Z M 0.847656 0.0976562 " clip-rule="nonzero"/>
    </clipPath>
    <clipPath id="7f7b0dc8bd">
      <path d="M 4.640625 0.0976562 C 6.738281 0.0976562 8.4375 1.796875 8.4375 3.890625 L 8.4375 23.8125 C 8.4375 25.90625 6.738281 27.605469 4.640625 27.605469 C 2.546875 27.605469 0.847656 25.90625 0.847656 23.8125 L 0.847656 3.890625 C 0.847656 1.796875 2.546875 0.0976562 4.640625 0.0976562 Z M 4.640625 0.0976562 " clip-rule="nonzero"/>
    </clipPath>
    <radialGradient gradientTransform="matrix(1, 0, 0, 1, 0.848312, 0.0972231)" gradientUnits="userSpaceOnUse" r="28.536042" cx="0" id="3d476a2375" cy="0">
      <stop stop-opacity="1" stop-color="rgb(59.802246%, 98.764038%, 89.421082%)" offset="0"/>
      <stop stop-opacity="1" stop-color="rgb(60.139465%, 98.667908%, 89.442444%)" offset="0.0156"/>
      <stop stop-opacity="1" stop-color="rgb(60.429382%, 98.583984%, 89.460754%)" offset="0.0273"/>
      <stop stop-opacity="1" stop-color="rgb(60.719299%, 98.501587%, 89.479065%)" offset="0.0391"/>
      <stop stop-opacity="1" stop-color="rgb(61.00769%, 98.419189%, 89.497375%)" offset="0.0508"/>
      <stop stop-opacity="1" stop-color="rgb(61.297607%, 98.336792%, 89.517212%)" offset="0.0625"/>
      <stop stop-opacity="1" stop-color="rgb(61.587524%, 98.254395%, 89.535522%)" offset="0.0742"/>
      <stop stop-opacity="1" stop-color="rgb(61.875916%, 98.170471%, 89.553833%)" offset="0.0859"/>
      <stop stop-opacity="1" stop-color="rgb(62.165833%, 98.088074%, 89.572144%)" offset="0.0977"/>
      <stop stop-opacity="1" stop-color="rgb(62.45575%, 98.005676%, 89.590454%)" offset="0.1094"/>
      <stop stop-opacity="1" stop-color="rgb(62.744141%, 97.923279%, 89.608765%)" offset="0.1211"/>
      <stop stop-opacity="1" stop-color="rgb(63.034058%, 97.839355%, 89.627075%)" offset="0.1328"/>
      <stop stop-opacity="1" stop-color="rgb(63.323975%, 97.756958%, 89.645386%)" offset="0.1445"/>
      <stop stop-opacity="1" stop-color="rgb(63.612366%, 97.674561%, 89.663696%)" offset="0.1563"/>
      <stop stop-opacity="1" stop-color="rgb(63.902283%, 97.592163%, 89.682007%)" offset="0.168"/>
      <stop stop-opacity="1" stop-color="rgb(64.1922%, 97.509766%, 89.700317%)" offset="0.1797"/>
      <stop stop-opacity="1" stop-color="rgb(64.482117%, 97.425842%, 89.718628%)" offset="0.1914"/>
      <stop stop-opacity="1" stop-color="rgb(64.770508%, 97.343445%, 89.736938%)" offset="0.2031"/>
      <stop stop-opacity="1" stop-color="rgb(65.060425%, 97.261047%, 89.755249%)" offset="0.2148"/>
      <stop stop-opacity="1" stop-color="rgb(65.350342%, 97.17865%, 89.77356%)" offset="0.2266"/>
      <stop stop-opacity="1" stop-color="rgb(65.638733%, 97.094727%, 89.79187%)" offset="0.2383"/>
      <stop stop-opacity="1" stop-color="rgb(65.92865%, 97.012329%, 89.810181%)" offset="0.25"/>
      <stop stop-opacity="1" stop-color="rgb(66.169739%, 96.943665%, 89.826965%)" offset="0.2617"/>
      <stop stop-opacity="1" stop-color="rgb(66.363525%, 96.888733%, 89.839172%)" offset="0.2695"/>
      <stop stop-opacity="1" stop-color="rgb(66.555786%, 96.833801%, 89.851379%)" offset="0.2773"/>
      <stop stop-opacity="1" stop-color="rgb(66.748047%, 96.77887%, 89.863586%)" offset="0.2852"/>
      <stop stop-opacity="1" stop-color="rgb(66.941833%, 96.723938%, 89.875793%)" offset="0.293"/>
      <stop stop-opacity="1" stop-color="rgb(67.134094%, 96.66748%, 89.888%)" offset="0.3008"/>
      <stop stop-opacity="1" stop-color="rgb(67.327881%, 96.612549%, 89.900208%)" offset="0.3086"/>
      <stop stop-opacity="1" stop-color="rgb(67.520142%, 96.557617%, 89.912415%)" offset="0.3164"/>
      <stop stop-opacity="1" stop-color="rgb(67.713928%, 96.502686%, 89.924622%)" offset="0.3242"/>
      <stop stop-opacity="1" stop-color="rgb(67.906189%, 96.447754%, 89.936829%)" offset="0.332"/>
      <stop stop-opacity="1" stop-color="rgb(68.099976%, 96.392822%, 89.949036%)" offset="0.3398"/>
      <stop stop-opacity="1" stop-color="rgb(68.292236%, 96.336365%, 89.961243%)" offset="0.3477"/>
      <stop stop-opacity="1" stop-color="rgb(68.486023%, 96.281433%, 89.97345%)" offset="0.3555"/>
      <stop stop-opacity="1" stop-color="rgb(68.678284%, 96.226501%, 89.985657%)" offset="0.3633"/>
      <stop stop-opacity="1" stop-color="rgb(68.87207%, 96.17157%, 89.997864%)" offset="0.3711"/>
      <stop stop-opacity="1" stop-color="rgb(69.160461%, 96.089172%, 90.016174%)" offset="0.3789"/>
      <stop stop-opacity="1" stop-color="rgb(69.546509%, 95.977783%, 90.040588%)" offset="0.3945"/>
      <stop stop-opacity="1" stop-color="rgb(69.932556%, 95.86792%, 90.065002%)" offset="0.4102"/>
      <stop stop-opacity="1" stop-color="rgb(70.318604%, 95.758057%, 90.089417%)" offset="0.4258"/>
      <stop stop-opacity="1" stop-color="rgb(70.704651%, 95.648193%, 90.113831%)" offset="0.4414"/>
      <stop stop-opacity="1" stop-color="rgb(71.090698%, 95.536804%, 90.138245%)" offset="0.457"/>
      <stop stop-opacity="1" stop-color="rgb(71.476746%, 95.426941%, 90.164185%)" offset="0.4727"/>
      <stop stop-opacity="1" stop-color="rgb(71.862793%, 95.317078%, 90.188599%)" offset="0.4883"/>
      <stop stop-opacity="1" stop-color="rgb(72.200012%, 95.219421%, 90.209961%)" offset="0.5039"/>
      <stop stop-opacity="1" stop-color="rgb(72.489929%, 95.137024%, 90.228271%)" offset="0.5156"/>
      <stop stop-opacity="1" stop-color="rgb(72.779846%, 95.054626%, 90.246582%)" offset="0.5273"/>
      <stop stop-opacity="1" stop-color="rgb(73.068237%, 94.972229%, 90.264893%)" offset="0.5391"/>
      <stop stop-opacity="1" stop-color="rgb(73.358154%, 94.889832%, 90.283203%)" offset="0.5508"/>
      <stop stop-opacity="1" stop-color="rgb(73.648071%, 94.805908%, 90.301514%)" offset="0.5625"/>
      <stop stop-opacity="1" stop-color="rgb(73.936462%, 94.723511%, 90.319824%)" offset="0.5742"/>
      <stop stop-opacity="1" stop-color="rgb(74.226379%, 94.641113%, 90.338135%)" offset="0.5859"/>
      <stop stop-opacity="1" stop-color="rgb(74.516296%, 94.558716%, 90.356445%)" offset="0.5977"/>
      <stop stop-opacity="1" stop-color="rgb(74.804688%, 94.474792%, 90.374756%)" offset="0.6094"/>
      <stop stop-opacity="1" stop-color="rgb(75.094604%, 94.392395%, 90.393066%)" offset="0.6211"/>
      <stop stop-opacity="1" stop-color="rgb(75.335693%, 94.32373%, 90.408325%)" offset="0.6328"/>
      <stop stop-opacity="1" stop-color="rgb(75.52948%, 94.268799%, 90.420532%)" offset="0.6406"/>
      <stop stop-opacity="1" stop-color="rgb(75.721741%, 94.213867%, 90.432739%)" offset="0.6484"/>
      <stop stop-opacity="1" stop-color="rgb(75.914001%, 94.158936%, 90.444946%)" offset="0.6563"/>
      <stop stop-opacity="1" stop-color="rgb(76.107788%, 94.104004%, 90.458679%)" offset="0.6641"/>
      <stop stop-opacity="1" stop-color="rgb(76.300049%, 94.047546%, 90.470886%)" offset="0.6719"/>
      <stop stop-opacity="1" stop-color="rgb(76.493835%, 93.992615%, 90.483093%)" offset="0.6797"/>
      <stop stop-opacity="1" stop-color="rgb(76.686096%, 93.937683%, 90.4953%)" offset="0.6875"/>
      <stop stop-opacity="1" stop-color="rgb(76.976013%, 93.855286%, 90.513611%)" offset="0.6953"/>
      <stop stop-opacity="1" stop-color="rgb(77.362061%, 93.743896%, 90.538025%)" offset="0.7109"/>
      <stop stop-opacity="1" stop-color="rgb(77.748108%, 93.634033%, 90.562439%)" offset="0.7266"/>
      <stop stop-opacity="1" stop-color="rgb(78.134155%, 93.52417%, 90.586853%)" offset="0.7422"/>
      <stop stop-opacity="1" stop-color="rgb(78.471375%, 93.42804%, 90.608215%)" offset="0.7578"/>
      <stop stop-opacity="1" stop-color="rgb(78.761292%, 93.344116%, 90.626526%)" offset="0.7695"/>
      <stop stop-opacity="1" stop-color="rgb(79.051208%, 93.261719%, 90.644836%)" offset="0.7813"/>
      <stop stop-opacity="1" stop-color="rgb(79.3396%, 93.179321%, 90.663147%)" offset="0.793"/>
      <stop stop-opacity="1" stop-color="rgb(79.629517%, 93.096924%, 90.681458%)" offset="0.8047"/>
      <stop stop-opacity="1" stop-color="rgb(79.870605%, 93.028259%, 90.696716%)" offset="0.8164"/>
      <stop stop-opacity="1" stop-color="rgb(80.062866%, 92.971802%, 90.708923%)" offset="0.8242"/>
      <stop stop-opacity="1" stop-color="rgb(80.256653%, 92.91687%, 90.72113%)" offset="0.832"/>
      <stop stop-opacity="1" stop-color="rgb(80.448914%, 92.861938%, 90.733337%)" offset="0.8398"/>
      <stop stop-opacity="1" stop-color="rgb(80.738831%, 92.779541%, 90.751648%)" offset="0.8477"/>
      <stop stop-opacity="1" stop-color="rgb(81.124878%, 92.669678%, 90.776062%)" offset="0.8633"/>
      <stop stop-opacity="1" stop-color="rgb(81.462097%, 92.572021%, 90.79895%)" offset="0.8789"/>
      <stop stop-opacity="1" stop-color="rgb(81.752014%, 92.489624%, 90.817261%)" offset="0.8906"/>
      <stop stop-opacity="1" stop-color="rgb(82.041931%, 92.407227%, 90.835571%)" offset="0.9023"/>
      <stop stop-opacity="1" stop-color="rgb(82.28302%, 92.338562%, 90.85083%)" offset="0.9141"/>
      <stop stop-opacity="1" stop-color="rgb(82.475281%, 92.28363%, 90.863037%)" offset="0.9219"/>
      <stop stop-opacity="1" stop-color="rgb(82.765198%, 92.199707%, 90.881348%)" offset="0.9297"/>
      <stop stop-opacity="1" stop-color="rgb(83.102417%, 92.103577%, 90.90271%)" offset="0.9453"/>
      <stop stop-opacity="1" stop-color="rgb(83.343506%, 92.034912%, 90.917969%)" offset="0.957"/>
      <stop stop-opacity="1" stop-color="rgb(83.633423%, 91.952515%, 90.936279%)" offset="0.9648"/>
      <stop stop-opacity="1" stop-color="rgb(83.92334%, 91.870117%, 90.95459%)" offset="0.9805"/>
      <stop stop-opacity="1" stop-color="rgb(84.164429%, 91.799927%, 90.969849%)" offset="0.9883"/>
      <stop stop-opacity="1" stop-color="rgb(84.309387%, 91.758728%, 90.979004%)" offset="1"/>
    </radialGradient>
    <clipPath id="a4690182fb">
      <rect x="0" width="9" y="0" height="28"/>
    </clipPath>
    <clipPath id="3d8844da67">
      <rect x="0" width="157" y="0" height="29"/>
    </clipPath>
  </defs>
  <g transform="matrix(2.113231, 0, 0, 2.113231, 21.91272, 66.055214)" style="">
    <g clip-path="url(#3d8844da67)">
      <g clip-path="url(#cb02389a60)">
        <g transform="matrix(1, 0, 0, 1, 29, 5)">
          <g clip-path="url(#ab7f94b9a9)">
            <g fill="#d7eae8" fill-opacity="1">
              <g transform="translate(1.918242, 18.419168)">
                <g>
                  <path d="M 5.265625 0 L 2.078125 0 L 2.078125 -17.40625 L 5.265625 -17.40625 L 5.265625 -10.1875 L 14.03125 -10.1875 L 14.03125 -17.40625 L 17.234375 -17.40625 L 17.234375 0 L 14.03125 0 L 14.03125 -7.34375 L 5.265625 -7.34375 Z M 5.265625 0 "/>
                </g>
              </g>
            </g>
            <g fill="#d7eae8" fill-opacity="1">
              <g transform="translate(19.205601, 18.419168)">
                <g>
                  <path d="M 2.84375 4.484375 L 0.625 4.484375 L 0.625 1.9375 L 2.8125 1.9375 C 3.269531 1.9375 3.644531 1.859375 3.9375 1.703125 C 4.238281 1.554688 4.488281 1.328125 4.6875 1.015625 C 4.894531 0.710938 5.085938 0.316406 5.265625 -0.171875 L 5.421875 -0.609375 L 0.390625 -13.15625 L 3.640625 -13.15625 L 6.75 -5.1875 L 7.078125 -3.84375 L 7.421875 -5.1875 L 10.46875 -13.140625 L 13.765625 -13.15625 L 8.640625 -0.296875 C 8.253906 0.679688 7.867188 1.484375 7.484375 2.109375 C 7.097656 2.742188 6.6875 3.234375 6.25 3.578125 C 5.8125 3.921875 5.316406 4.15625 4.765625 4.28125 C 4.210938 4.414062 3.570312 4.484375 2.84375 4.484375 Z M 2.84375 4.484375 "/>
                </g>
              </g>
            </g>
            <g fill="#d7eae8" fill-opacity="1">
              <g transform="translate(31.068376, 18.419168)">
                <g>
                  <path d="M 4.90625 4.484375 L 1.8125 4.484375 L 1.8125 -13.15625 L 4.765625 -13.15625 L 4.765625 -10.9375 C 5.234375 -11.726562 5.863281 -12.359375 6.65625 -12.828125 C 7.457031 -13.296875 8.332031 -13.53125 9.28125 -13.53125 C 10.21875 -13.53125 11.078125 -13.347656 11.859375 -12.984375 C 12.640625 -12.628906 13.3125 -12.132812 13.875 -11.5 C 14.445312 -10.863281 14.890625 -10.125 15.203125 -9.28125 C 15.523438 -8.4375 15.6875 -7.535156 15.6875 -6.578125 C 15.6875 -5.609375 15.523438 -4.703125 15.203125 -3.859375 C 14.890625 -3.015625 14.445312 -2.269531 13.875 -1.625 C 13.300781 -0.988281 12.628906 -0.492188 11.859375 -0.140625 C 11.085938 0.210938 10.238281 0.390625 9.3125 0.390625 C 8.675781 0.390625 8.070312 0.285156 7.5 0.078125 C 6.925781 -0.128906 6.410156 -0.421875 5.953125 -0.796875 C 5.503906 -1.179688 5.132812 -1.625 4.84375 -2.125 L 4.90625 -0.59375 Z M 8.75 -2.453125 C 9.445312 -2.453125 10.085938 -2.617188 10.671875 -2.953125 C 11.253906 -3.285156 11.722656 -3.757812 12.078125 -4.375 C 12.429688 -5 12.609375 -5.734375 12.609375 -6.578125 C 12.609375 -7.398438 12.429688 -8.117188 12.078125 -8.734375 C 11.734375 -9.347656 11.269531 -9.828125 10.6875 -10.171875 C 10.101562 -10.515625 9.453125 -10.6875 8.734375 -10.6875 C 8.203125 -10.6875 7.703125 -10.582031 7.234375 -10.375 C 6.765625 -10.164062 6.351562 -9.875 6 -9.5 C 5.644531 -9.125 5.367188 -8.6875 5.171875 -8.1875 C 4.972656 -7.695312 4.875 -7.160156 4.875 -6.578125 C 4.875 -5.984375 4.972656 -5.429688 5.171875 -4.921875 C 5.378906 -4.421875 5.660156 -3.984375 6.015625 -3.609375 C 6.378906 -3.242188 6.796875 -2.957031 7.265625 -2.75 C 7.734375 -2.550781 8.226562 -2.453125 8.75 -2.453125 Z M 8.75 -2.453125 "/>
                </g>
              </g>
            </g>
            <g fill="#d7eae8" fill-opacity="1">
              <g transform="translate(45.617856, 18.419168)">
                <g>
                  <path d="M 14.328125 -6.8125 C 14.328125 -6.644531 14.320312 -6.488281 14.3125 -6.34375 C 14.300781 -6.195312 14.285156 -6 14.265625 -5.75 L 3.984375 -5.75 C 4.097656 -5.039062 4.328125 -4.429688 4.671875 -3.921875 C 5.015625 -3.421875 5.441406 -3.035156 5.953125 -2.765625 C 6.472656 -2.492188 7.035156 -2.359375 7.640625 -2.359375 C 8.421875 -2.359375 9.054688 -2.515625 9.546875 -2.828125 C 10.035156 -3.140625 10.390625 -3.570312 10.609375 -4.125 L 13.984375 -4.125 C 13.816406 -3.539062 13.546875 -2.972656 13.171875 -2.421875 C 12.804688 -1.878906 12.351562 -1.394531 11.8125 -0.96875 C 11.28125 -0.550781 10.664062 -0.222656 9.96875 0.015625 C 9.28125 0.265625 8.523438 0.390625 7.703125 0.390625 C 6.710938 0.390625 5.800781 0.210938 4.96875 -0.140625 C 4.132812 -0.503906 3.410156 -1.003906 2.796875 -1.640625 C 2.191406 -2.285156 1.722656 -3.03125 1.390625 -3.875 C 1.054688 -4.71875 0.890625 -5.617188 0.890625 -6.578125 C 0.890625 -7.535156 1.054688 -8.4375 1.390625 -9.28125 C 1.722656 -10.125 2.191406 -10.863281 2.796875 -11.5 C 3.410156 -12.144531 4.132812 -12.644531 4.96875 -13 C 5.800781 -13.363281 6.710938 -13.546875 7.703125 -13.546875 C 8.691406 -13.546875 9.59375 -13.363281 10.40625 -13 C 11.21875 -12.644531 11.914062 -12.15625 12.5 -11.53125 C 13.09375 -10.90625 13.546875 -10.1875 13.859375 -9.375 C 14.171875 -8.5625 14.328125 -7.707031 14.328125 -6.8125 Z M 4.125 -8.15625 L 11.171875 -8.15625 C 11.128906 -8.644531 10.945312 -9.09375 10.625 -9.5 C 10.300781 -9.90625 9.878906 -10.226562 9.359375 -10.46875 C 8.847656 -10.71875 8.289062 -10.84375 7.6875 -10.84375 C 7.164062 -10.84375 6.664062 -10.75 6.1875 -10.5625 C 5.707031 -10.375 5.285156 -10.078125 4.921875 -9.671875 C 4.566406 -9.273438 4.300781 -8.769531 4.125 -8.15625 Z M 4.125 -8.15625 "/>
                </g>
              </g>
            </g>
            <g fill="#d7eae8" fill-opacity="1">
              <g transform="translate(58.632076, 18.419168)">
                <g>
                  <path d="M 4.90625 0 L 1.8125 0 L 1.8125 -13.15625 L 4.78125 -13.15625 L 4.78125 -10.765625 C 5.09375 -11.492188 5.546875 -12.070312 6.140625 -12.5 C 6.734375 -12.9375 7.457031 -13.15625 8.3125 -13.15625 L 9.71875 -13.15625 L 9.71875 -10.484375 L 8.484375 -10.484375 C 7.773438 -10.484375 7.148438 -10.3125 6.609375 -9.96875 C 6.078125 -9.632812 5.660156 -9.140625 5.359375 -8.484375 C 5.054688 -7.835938 4.90625 -7.046875 4.90625 -6.109375 Z M 4.90625 0 "/>
                </g>
              </g>
            </g>
            <g fill="#d7eae8" fill-opacity="1">
              <g transform="translate(66.733465, 18.419168)">
                <g>
                  <path d="M 5.265625 0 L 2.078125 0 L 2.078125 -17.40625 L 5.265625 -17.40625 Z M 5.265625 0 "/>
                </g>
              </g>
            </g>
            <g fill="#d7eae8" fill-opacity="1">
              <g transform="translate(72.032999, 18.419168)">
                <g>
                  <path d="M 4.90625 0 L 1.8125 0 L 1.8125 -13.15625 L 4.765625 -13.15625 L 4.765625 -11.109375 C 5.015625 -11.585938 5.359375 -12.007812 5.796875 -12.375 C 6.242188 -12.738281 6.757812 -13.023438 7.34375 -13.234375 C 7.9375 -13.441406 8.570312 -13.546875 9.25 -13.546875 C 11.019531 -13.546875 12.34375 -12.984375 13.21875 -11.859375 C 14.09375 -10.742188 14.53125 -9.15625 14.53125 -7.09375 L 14.53125 0 L 11.4375 0 L 11.4375 -7.03125 C 11.4375 -8.332031 11.160156 -9.269531 10.609375 -9.84375 C 10.066406 -10.414062 9.328125 -10.703125 8.390625 -10.703125 C 7.785156 -10.703125 7.21875 -10.546875 6.6875 -10.234375 C 6.15625 -9.929688 5.722656 -9.484375 5.390625 -8.890625 C 5.066406 -8.304688 4.90625 -7.582031 4.90625 -6.71875 Z M 4.90625 0 "/>
                </g>
              </g>
            </g>
            <g clip-path="url(#3922f5216a)">
              <g fill="#d7eae8" fill-opacity="1">
                <g transform="translate(86.262626, 18.419168)">
                  <g>
                    <path d="M 7.234375 0.390625 C 6.304688 0.390625 5.453125 0.210938 4.671875 -0.140625 C 3.890625 -0.492188 3.21875 -0.988281 2.65625 -1.625 C 2.09375 -2.269531 1.65625 -3.015625 1.34375 -3.859375 C 1.039062 -4.703125 0.890625 -5.609375 0.890625 -6.578125 C 0.890625 -7.535156 1.039062 -8.4375 1.34375 -9.28125 C 1.644531 -10.125 2.078125 -10.863281 2.640625 -11.5 C 3.210938 -12.144531 3.890625 -12.644531 4.671875 -13 C 5.453125 -13.363281 6.320312 -13.546875 7.28125 -13.546875 C 8 -13.546875 8.648438 -13.421875 9.234375 -13.171875 C 9.816406 -12.921875 10.316406 -12.597656 10.734375 -12.203125 C 11.160156 -11.816406 11.488281 -11.414062 11.71875 -11 L 11.65625 -12.375 L 11.65625 -18.015625 L 14.734375 -18.015625 L 14.734375 0 L 11.796875 0 L 11.796875 -2.21875 C 11.535156 -1.75 11.1875 -1.316406 10.75 -0.921875 C 10.320312 -0.523438 9.8125 -0.207031 9.21875 0.03125 C 8.632812 0.269531 7.972656 0.390625 7.234375 0.390625 Z M 7.796875 -2.453125 C 8.335938 -2.453125 8.84375 -2.554688 9.3125 -2.765625 C 9.78125 -2.972656 10.191406 -3.265625 10.546875 -3.640625 C 10.898438 -4.015625 11.175781 -4.453125 11.375 -4.953125 C 11.582031 -5.453125 11.6875 -5.992188 11.6875 -6.578125 C 11.6875 -7.160156 11.585938 -7.695312 11.390625 -8.1875 C 11.191406 -8.6875 10.914062 -9.125 10.5625 -9.5 C 10.207031 -9.875 9.796875 -10.164062 9.328125 -10.375 C 8.859375 -10.582031 8.347656 -10.6875 7.796875 -10.6875 C 7.078125 -10.6875 6.421875 -10.507812 5.828125 -10.15625 C 5.242188 -9.800781 4.78125 -9.316406 4.4375 -8.703125 C 4.09375 -8.085938 3.921875 -7.378906 3.921875 -6.578125 C 3.921875 -5.796875 4.085938 -5.09375 4.421875 -4.46875 C 4.753906 -3.851562 5.210938 -3.363281 5.796875 -3 C 6.378906 -2.632812 7.046875 -2.453125 7.796875 -2.453125 Z M 7.796875 -2.453125 "/>
                  </g>
                </g>
              </g>
            </g>
            <g fill="#d7eae8" fill-opacity="1">
              <g transform="translate(100.786518, 18.419168)">
                <g>
                  <path d="M 14.328125 -6.8125 C 14.328125 -6.644531 14.320312 -6.488281 14.3125 -6.34375 C 14.300781 -6.195312 14.285156 -6 14.265625 -5.75 L 3.984375 -5.75 C 4.097656 -5.039062 4.328125 -4.429688 4.671875 -3.921875 C 5.015625 -3.421875 5.441406 -3.035156 5.953125 -2.765625 C 6.472656 -2.492188 7.035156 -2.359375 7.640625 -2.359375 C 8.421875 -2.359375 9.054688 -2.515625 9.546875 -2.828125 C 10.035156 -3.140625 10.390625 -3.570312 10.609375 -4.125 L 13.984375 -4.125 C 13.816406 -3.539062 13.546875 -2.972656 13.171875 -2.421875 C 12.804688 -1.878906 12.351562 -1.394531 11.8125 -0.96875 C 11.28125 -0.550781 10.664062 -0.222656 9.96875 0.015625 C 9.28125 0.265625 8.523438 0.390625 7.703125 0.390625 C 6.710938 0.390625 5.800781 0.210938 4.96875 -0.140625 C 4.132812 -0.503906 3.410156 -1.003906 2.796875 -1.640625 C 2.191406 -2.285156 1.722656 -3.03125 1.390625 -3.875 C 1.054688 -4.71875 0.890625 -5.617188 0.890625 -6.578125 C 0.890625 -7.535156 1.054688 -8.4375 1.390625 -9.28125 C 1.722656 -10.125 2.191406 -10.863281 2.796875 -11.5 C 3.410156 -12.144531 4.132812 -12.644531 4.96875 -13 C 5.800781 -13.363281 6.710938 -13.546875 7.703125 -13.546875 C 8.691406 -13.546875 9.59375 -13.363281 10.40625 -13 C 11.21875 -12.644531 11.914062 -12.15625 12.5 -11.53125 C 13.09375 -10.90625 13.546875 -10.1875 13.859375 -9.375 C 14.171875 -8.5625 14.328125 -7.707031 14.328125 -6.8125 Z M 4.125 -8.15625 L 11.171875 -8.15625 C 11.128906 -8.644531 10.945312 -9.09375 10.625 -9.5 C 10.300781 -9.90625 9.878906 -10.226562 9.359375 -10.46875 C 8.847656 -10.71875 8.289062 -10.84375 7.6875 -10.84375 C 7.164062 -10.84375 6.664062 -10.75 6.1875 -10.5625 C 5.707031 -10.375 5.285156 -10.078125 4.921875 -9.671875 C 4.566406 -9.273438 4.300781 -8.769531 4.125 -8.15625 Z M 4.125 -8.15625 "/>
                </g>
              </g>
            </g>
            <g clip-path="url(#1459397bbb)">
              <g fill="#d7eae8" fill-opacity="1">
                <g transform="translate(113.800738, 18.419168)">
                  <g>
                    <path d="M 3.921875 0 L 0.328125 0 L 4.6875 -6.78125 L 0.5 -13.15625 L 4.125 -13.15625 L 6.828125 -8.828125 L 6.84375 -8.828125 L 9.546875 -13.15625 L 13.171875 -13.15625 L 9 -6.78125 L 13.359375 0 L 9.6875 0 L 6.8125 -4.625 Z M 3.921875 0 "/>
                  </g>
                </g>
              </g>
            </g>
          </g>
        </g>
      </g>
      <g clip-path="url(#3de17eba2e)">
        <g clip-path="url(#8a6e075f26)">
          <g transform="matrix(1, 0, 0, 1, -0.000000000000028422, 1)">
            <g clip-path="url(#f35bb13a34)">
              <g clip-path="url(#23b4ab4bd7)">
                <g clip-path="url(#c3b86c7ad7)">
                  <path fill="url(#ab0a28eafb)" d="M 0.554688 0.0976562 L 0.554688 27.605469 L 8.144531 27.605469 L 8.144531 0.0976562 Z M 0.554688 0.0976562 " fill-rule="nonzero"/>
                </g>
              </g>
            </g>
          </g>
        </g>
      </g>
      <g clip-path="url(#158a0457ba)">
        <g clip-path="url(#bd4215416d)">
          <g transform="matrix(1, 0, 0, 1, 8, 10)">
            <g clip-path="url(#0d2bfe3e88)">
              <g clip-path="url(#c2835cc1a5)">
                <g clip-path="url(#1a3badcd50)">
                  <path fill="url(#048208918d)" d="M 0.144531 0 L 0.144531 9.703125 L 9.847656 9.703125 L 9.847656 0 Z M 0.144531 0 " fill-rule="nonzero"/>
                </g>
              </g>
            </g>
          </g>
        </g>
      </g>
      <g clip-path="url(#64956dbde0)">
        <g clip-path="url(#0703c5146a)">
          <g transform="matrix(1, 0, 0, 1, 17, 1)">
            <g clip-path="url(#a4690182fb)">
              <g clip-path="url(#f2bd48519d)">
                <g clip-path="url(#7f7b0dc8bd)">
                  <path fill="url(#3d476a2375)" d="M 0.847656 0.0976562 L 0.847656 27.605469 L 8.4375 27.605469 L 8.4375 0.0976562 Z M 0.847656 0.0976562 " fill-rule="nonzero"/>
                </g>
              </g>
            </g>
          </g>
        </g>
      </g>
    </g>
  </g>
</svg>