<svg xmlns="http://www.w3.org/2000/svg" xmlns:xlink="http://www.w3.org/1999/xlink" width="500" zoomAndPan="magnify" viewBox="0 0 375 194.87999" height="250" preserveAspectRatio="xMidYMid meet" version="1.0"><defs><g/><clipPath id="c06eaf8d18"><path d="M 0.554688 1.144531 L 8.144531 1.144531 L 8.144531 28.683594 L 0.554688 28.683594 Z M 0.554688 1.144531 " clip-rule="nonzero"/></clipPath><clipPath id="c58c69f6b9"><path d="M 4.351562 1.144531 C 6.445312 1.144531 8.144531 2.84375 8.144531 4.941406 L 8.144531 24.859375 C 8.144531 26.957031 6.445312 28.65625 4.351562 28.65625 C 2.253906 28.65625 0.554688 26.957031 0.554688 24.859375 L 0.554688 4.941406 C 0.554688 2.84375 2.253906 1.144531 4.351562 1.144531 Z M 4.351562 1.144531 " clip-rule="nonzero"/></clipPath><clipPath id="83f4d3a32c"><path d="M 0.554688 0.144531 L 8.144531 0.144531 L 8.144531 27.652344 L 0.554688 27.652344 Z M 0.554688 0.144531 " clip-rule="nonzero"/></clipPath><clipPath id="ca8ccd94d7"><path d="M 4.351562 0.144531 C 6.445312 0.144531 8.144531 1.84375 8.144531 3.941406 L 8.144531 23.859375 C 8.144531 25.957031 6.445312 27.65625 4.351562 27.65625 C 2.253906 27.65625 0.554688 25.957031 0.554688 23.859375 L 0.554688 3.941406 C 0.554688 1.84375 2.253906 0.144531 4.351562 0.144531 Z M 4.351562 0.144531 " clip-rule="nonzero"/></clipPath><radialGradient gradientTransform="matrix(1, 0, 0, 1, 0.556395, 0.146199)" gradientUnits="userSpaceOnUse" r="28.536042" cx="0" id="56ddc2ec9c" cy="0" fx="0" fy="0"><stop stop-opacity="1" stop-color="rgb(59.802246%, 98.764038%, 89.421082%)" offset="0"/><stop stop-opacity="1" stop-color="rgb(60.139465%, 98.667908%, 89.442444%)" offset="0.015625"/><stop stop-opacity="1" stop-color="rgb(60.429382%, 98.583984%, 89.460754%)" offset="0.0273438"/><stop stop-opacity="1" stop-color="rgb(60.719299%, 98.501587%, 89.479065%)" offset="0.0390625"/><stop stop-opacity="1" stop-color="rgb(61.00769%, 98.419189%, 89.497375%)" offset="0.0507812"/><stop stop-opacity="1" stop-color="rgb(61.297607%, 98.336792%, 89.517212%)" offset="0.0625"/><stop stop-opacity="1" stop-color="rgb(61.587524%, 98.254395%, 89.535522%)" offset="0.0742188"/><stop stop-opacity="1" stop-color="rgb(61.875916%, 98.170471%, 89.553833%)" offset="0.0859375"/><stop stop-opacity="1" stop-color="rgb(62.165833%, 98.088074%, 89.572144%)" offset="0.0976562"/><stop stop-opacity="1" stop-color="rgb(62.45575%, 98.005676%, 89.590454%)" offset="0.109375"/><stop stop-opacity="1" stop-color="rgb(62.744141%, 97.923279%, 89.608765%)" offset="0.121094"/><stop stop-opacity="1" stop-color="rgb(63.034058%, 97.839355%, 89.627075%)" offset="0.132812"/><stop stop-opacity="1" stop-color="rgb(63.323975%, 97.756958%, 89.645386%)" offset="0.144531"/><stop stop-opacity="1" stop-color="rgb(63.612366%, 97.674561%, 89.663696%)" offset="0.15625"/><stop stop-opacity="1" stop-color="rgb(63.902283%, 97.592163%, 89.682007%)" offset="0.167969"/><stop stop-opacity="1" stop-color="rgb(64.1922%, 97.509766%, 89.700317%)" offset="0.179688"/><stop stop-opacity="1" stop-color="rgb(64.482117%, 97.425842%, 89.718628%)" offset="0.191406"/><stop stop-opacity="1" stop-color="rgb(64.770508%, 97.343445%, 89.736938%)" offset="0.203125"/><stop stop-opacity="1" stop-color="rgb(65.060425%, 97.261047%, 89.755249%)" offset="0.214844"/><stop stop-opacity="1" stop-color="rgb(65.350342%, 97.17865%, 89.77356%)" offset="0.226562"/><stop stop-opacity="1" stop-color="rgb(65.638733%, 97.094727%, 89.79187%)" offset="0.238281"/><stop stop-opacity="1" stop-color="rgb(65.92865%, 97.012329%, 89.810181%)" offset="0.25"/><stop stop-opacity="1" stop-color="rgb(66.169739%, 96.943665%, 89.826965%)" offset="0.261719"/><stop stop-opacity="1" stop-color="rgb(66.363525%, 96.888733%, 89.839172%)" offset="0.269531"/><stop stop-opacity="1" stop-color="rgb(66.555786%, 96.833801%, 89.851379%)" offset="0.277344"/><stop stop-opacity="1" stop-color="rgb(66.748047%, 96.77887%, 89.863586%)" offset="0.285156"/><stop stop-opacity="1" stop-color="rgb(66.941833%, 96.723938%, 89.875793%)" offset="0.292969"/><stop stop-opacity="1" stop-color="rgb(67.134094%, 96.66748%, 89.888%)" offset="0.300781"/><stop stop-opacity="1" stop-color="rgb(67.327881%, 96.612549%, 89.900208%)" offset="0.308594"/><stop stop-opacity="1" stop-color="rgb(67.520142%, 96.557617%, 89.912415%)" offset="0.316406"/><stop stop-opacity="1" stop-color="rgb(67.713928%, 96.502686%, 89.924622%)" offset="0.324219"/><stop stop-opacity="1" stop-color="rgb(67.906189%, 96.447754%, 89.936829%)" offset="0.332031"/><stop stop-opacity="1" stop-color="rgb(68.099976%, 96.392822%, 89.949036%)" offset="0.339844"/><stop stop-opacity="1" stop-color="rgb(68.292236%, 96.336365%, 89.961243%)" offset="0.347656"/><stop stop-opacity="1" stop-color="rgb(68.486023%, 96.281433%, 89.97345%)" offset="0.355469"/><stop stop-opacity="1" stop-color="rgb(68.678284%, 96.226501%, 89.985657%)" offset="0.363281"/><stop stop-opacity="1" stop-color="rgb(68.87207%, 96.17157%, 89.997864%)" offset="0.371094"/><stop stop-opacity="1" stop-color="rgb(69.160461%, 96.089172%, 90.016174%)" offset="0.378906"/><stop stop-opacity="1" stop-color="rgb(69.546509%, 95.977783%, 90.040588%)" offset="0.394531"/><stop stop-opacity="1" stop-color="rgb(69.932556%, 95.86792%, 90.065002%)" offset="0.410156"/><stop stop-opacity="1" stop-color="rgb(70.318604%, 95.758057%, 90.089417%)" offset="0.425781"/><stop stop-opacity="1" stop-color="rgb(70.704651%, 95.648193%, 90.113831%)" offset="0.441406"/><stop stop-opacity="1" stop-color="rgb(71.090698%, 95.536804%, 90.138245%)" offset="0.457031"/><stop stop-opacity="1" stop-color="rgb(71.476746%, 95.426941%, 90.164185%)" offset="0.472656"/><stop stop-opacity="1" stop-color="rgb(71.862793%, 95.317078%, 90.188599%)" offset="0.488281"/><stop stop-opacity="1" stop-color="rgb(72.200012%, 95.219421%, 90.209961%)" offset="0.503906"/><stop stop-opacity="1" stop-color="rgb(72.489929%, 95.137024%, 90.228271%)" offset="0.515625"/><stop stop-opacity="1" stop-color="rgb(72.779846%, 95.054626%, 90.246582%)" offset="0.527344"/><stop stop-opacity="1" stop-color="rgb(73.068237%, 94.972229%, 90.264893%)" offset="0.539062"/><stop stop-opacity="1" stop-color="rgb(73.358154%, 94.889832%, 90.283203%)" offset="0.550781"/><stop stop-opacity="1" stop-color="rgb(73.648071%, 94.805908%, 90.301514%)" offset="0.5625"/><stop stop-opacity="1" stop-color="rgb(73.936462%, 94.723511%, 90.319824%)" offset="0.574219"/><stop stop-opacity="1" stop-color="rgb(74.226379%, 94.641113%, 90.338135%)" offset="0.585938"/><stop stop-opacity="1" stop-color="rgb(74.516296%, 94.558716%, 90.356445%)" offset="0.597656"/><stop stop-opacity="1" stop-color="rgb(74.804688%, 94.474792%, 90.374756%)" offset="0.609375"/><stop stop-opacity="1" stop-color="rgb(75.094604%, 94.392395%, 90.393066%)" offset="0.621094"/><stop stop-opacity="1" stop-color="rgb(75.335693%, 94.32373%, 90.408325%)" offset="0.632812"/><stop stop-opacity="1" stop-color="rgb(75.52948%, 94.268799%, 90.420532%)" offset="0.640625"/><stop stop-opacity="1" stop-color="rgb(75.721741%, 94.213867%, 90.432739%)" offset="0.648438"/><stop stop-opacity="1" stop-color="rgb(75.914001%, 94.158936%, 90.444946%)" offset="0.65625"/><stop stop-opacity="1" stop-color="rgb(76.107788%, 94.104004%, 90.458679%)" offset="0.664062"/><stop stop-opacity="1" stop-color="rgb(76.300049%, 94.047546%, 90.470886%)" offset="0.671875"/><stop stop-opacity="1" stop-color="rgb(76.493835%, 93.992615%, 90.483093%)" offset="0.679688"/><stop stop-opacity="1" stop-color="rgb(76.686096%, 93.937683%, 90.4953%)" offset="0.6875"/><stop stop-opacity="1" stop-color="rgb(76.976013%, 93.855286%, 90.513611%)" offset="0.695312"/><stop stop-opacity="1" stop-color="rgb(77.362061%, 93.743896%, 90.538025%)" offset="0.710938"/><stop stop-opacity="1" stop-color="rgb(77.748108%, 93.634033%, 90.562439%)" offset="0.726562"/><stop stop-opacity="1" stop-color="rgb(78.134155%, 93.52417%, 90.586853%)" offset="0.742188"/><stop stop-opacity="1" stop-color="rgb(78.471375%, 93.42804%, 90.608215%)" offset="0.757812"/><stop stop-opacity="1" stop-color="rgb(78.761292%, 93.344116%, 90.626526%)" offset="0.769531"/><stop stop-opacity="1" stop-color="rgb(79.051208%, 93.261719%, 90.644836%)" offset="0.78125"/><stop stop-opacity="1" stop-color="rgb(79.3396%, 93.179321%, 90.663147%)" offset="0.792969"/><stop stop-opacity="1" stop-color="rgb(79.629517%, 93.096924%, 90.681458%)" offset="0.804688"/><stop stop-opacity="1" stop-color="rgb(79.870605%, 93.028259%, 90.696716%)" offset="0.816406"/><stop stop-opacity="1" stop-color="rgb(80.062866%, 92.971802%, 90.708923%)" offset="0.824219"/><stop stop-opacity="1" stop-color="rgb(80.256653%, 92.91687%, 90.72113%)" offset="0.832031"/><stop stop-opacity="1" stop-color="rgb(80.448914%, 92.861938%, 90.733337%)" offset="0.839844"/><stop stop-opacity="1" stop-color="rgb(80.738831%, 92.779541%, 90.751648%)" offset="0.847656"/><stop stop-opacity="1" stop-color="rgb(81.124878%, 92.669678%, 90.776062%)" offset="0.863281"/><stop stop-opacity="1" stop-color="rgb(81.462097%, 92.572021%, 90.79895%)" offset="0.878906"/><stop stop-opacity="1" stop-color="rgb(81.752014%, 92.489624%, 90.817261%)" offset="0.890625"/><stop stop-opacity="1" stop-color="rgb(82.041931%, 92.407227%, 90.835571%)" offset="0.902344"/><stop stop-opacity="1" stop-color="rgb(82.28302%, 92.338562%, 90.85083%)" offset="0.914062"/><stop stop-opacity="1" stop-color="rgb(82.475281%, 92.28363%, 90.863037%)" offset="0.921875"/><stop stop-opacity="1" stop-color="rgb(82.765198%, 92.199707%, 90.881348%)" offset="0.929688"/><stop stop-opacity="1" stop-color="rgb(83.102417%, 92.103577%, 90.90271%)" offset="0.945312"/><stop stop-opacity="1" stop-color="rgb(83.343506%, 92.034912%, 90.917969%)" offset="0.957031"/><stop stop-opacity="1" stop-color="rgb(83.633423%, 91.952515%, 90.936279%)" offset="0.964844"/><stop stop-opacity="1" stop-color="rgb(83.92334%, 91.870117%, 90.95459%)" offset="0.980469"/><stop stop-opacity="1" stop-color="rgb(84.164429%, 91.799927%, 90.969849%)" offset="0.988281"/><stop stop-opacity="1" stop-color="rgb(84.309387%, 91.758728%, 90.979004%)" offset="1"/></radialGradient><clipPath id="a10f489c9b"><rect x="0" width="9" y="0" height="28"/></clipPath><clipPath id="cc5c8cff48"><path d="M 8.144531 10.046875 L 17.847656 10.046875 L 17.847656 19.753906 L 8.144531 19.753906 Z M 8.144531 10.046875 " clip-rule="nonzero"/></clipPath><clipPath id="8d52f1f2e5"><path d="M 12.996094 10.046875 C 10.316406 10.046875 8.144531 12.222656 8.144531 14.902344 C 8.144531 17.582031 10.316406 19.753906 12.996094 19.753906 C 15.675781 19.753906 17.847656 17.582031 17.847656 14.902344 C 17.847656 12.222656 15.675781 10.046875 12.996094 10.046875 Z M 12.996094 10.046875 " clip-rule="nonzero"/></clipPath><clipPath id="e10ac7a939"><path d="M 0.144531 0.046875 L 9.847656 0.046875 L 9.847656 9.753906 L 0.144531 9.753906 Z M 0.144531 0.046875 " clip-rule="nonzero"/></clipPath><clipPath id="29319aff23"><path d="M 4.996094 0.046875 C 2.316406 0.046875 0.144531 2.222656 0.144531 4.902344 C 0.144531 7.582031 2.316406 9.753906 4.996094 9.753906 C 7.675781 9.753906 9.847656 7.582031 9.847656 4.902344 C 9.847656 2.222656 7.675781 0.046875 4.996094 0.046875 Z M 4.996094 0.046875 " clip-rule="nonzero"/></clipPath><radialGradient gradientTransform="matrix(1, 0, 0, 1, 0.144608, 0.0486659)" gradientUnits="userSpaceOnUse" r="13.723124" cx="0" id="a4cd5a4996" cy="0" fx="0" fy="0"><stop stop-opacity="1" stop-color="rgb(59.802246%, 98.764038%, 89.421082%)" offset="0"/><stop stop-opacity="1" stop-color="rgb(60.139465%, 98.667908%, 89.442444%)" offset="0.015625"/><stop stop-opacity="1" stop-color="rgb(60.429382%, 98.583984%, 89.460754%)" offset="0.0273438"/><stop stop-opacity="1" stop-color="rgb(60.719299%, 98.501587%, 89.479065%)" offset="0.0390625"/><stop stop-opacity="1" stop-color="rgb(61.00769%, 98.419189%, 89.497375%)" offset="0.0507812"/><stop stop-opacity="1" stop-color="rgb(61.297607%, 98.336792%, 89.517212%)" offset="0.0625"/><stop stop-opacity="1" stop-color="rgb(61.587524%, 98.254395%, 89.535522%)" offset="0.0742188"/><stop stop-opacity="1" stop-color="rgb(61.875916%, 98.170471%, 89.553833%)" offset="0.0859375"/><stop stop-opacity="1" stop-color="rgb(62.165833%, 98.088074%, 89.572144%)" offset="0.0976562"/><stop stop-opacity="1" stop-color="rgb(62.45575%, 98.005676%, 89.590454%)" offset="0.109375"/><stop stop-opacity="1" stop-color="rgb(62.744141%, 97.923279%, 89.608765%)" offset="0.121094"/><stop stop-opacity="1" stop-color="rgb(63.034058%, 97.839355%, 89.627075%)" offset="0.132812"/><stop stop-opacity="1" stop-color="rgb(63.323975%, 97.756958%, 89.645386%)" offset="0.144531"/><stop stop-opacity="1" stop-color="rgb(63.612366%, 97.674561%, 89.663696%)" offset="0.15625"/><stop stop-opacity="1" stop-color="rgb(63.902283%, 97.592163%, 89.682007%)" offset="0.167969"/><stop stop-opacity="1" stop-color="rgb(64.1922%, 97.509766%, 89.700317%)" offset="0.179688"/><stop stop-opacity="1" stop-color="rgb(64.482117%, 97.425842%, 89.718628%)" offset="0.191406"/><stop stop-opacity="1" stop-color="rgb(64.770508%, 97.343445%, 89.736938%)" offset="0.203125"/><stop stop-opacity="1" stop-color="rgb(65.060425%, 97.261047%, 89.755249%)" offset="0.214844"/><stop stop-opacity="1" stop-color="rgb(65.350342%, 97.17865%, 89.77356%)" offset="0.226562"/><stop stop-opacity="1" stop-color="rgb(65.638733%, 97.094727%, 89.79187%)" offset="0.238281"/><stop stop-opacity="1" stop-color="rgb(65.92865%, 97.012329%, 89.810181%)" offset="0.25"/><stop stop-opacity="1" stop-color="rgb(66.169739%, 96.943665%, 89.826965%)" offset="0.261719"/><stop stop-opacity="1" stop-color="rgb(66.363525%, 96.888733%, 89.839172%)" offset="0.269531"/><stop stop-opacity="1" stop-color="rgb(66.555786%, 96.833801%, 89.851379%)" offset="0.277344"/><stop stop-opacity="1" stop-color="rgb(66.748047%, 96.77887%, 89.863586%)" offset="0.285156"/><stop stop-opacity="1" stop-color="rgb(66.941833%, 96.723938%, 89.875793%)" offset="0.292969"/><stop stop-opacity="1" stop-color="rgb(67.134094%, 96.66748%, 89.888%)" offset="0.300781"/><stop stop-opacity="1" stop-color="rgb(67.327881%, 96.612549%, 89.900208%)" offset="0.308594"/><stop stop-opacity="1" stop-color="rgb(67.520142%, 96.557617%, 89.912415%)" offset="0.316406"/><stop stop-opacity="1" stop-color="rgb(67.713928%, 96.502686%, 89.924622%)" offset="0.324219"/><stop stop-opacity="1" stop-color="rgb(67.906189%, 96.447754%, 89.936829%)" offset="0.332031"/><stop stop-opacity="1" stop-color="rgb(68.099976%, 96.392822%, 89.949036%)" offset="0.339844"/><stop stop-opacity="1" stop-color="rgb(68.292236%, 96.336365%, 89.961243%)" offset="0.347656"/><stop stop-opacity="1" stop-color="rgb(68.486023%, 96.281433%, 89.97345%)" offset="0.355469"/><stop stop-opacity="1" stop-color="rgb(68.678284%, 96.226501%, 89.985657%)" offset="0.363281"/><stop stop-opacity="1" stop-color="rgb(68.87207%, 96.17157%, 89.997864%)" offset="0.371094"/><stop stop-opacity="1" stop-color="rgb(69.160461%, 96.089172%, 90.016174%)" offset="0.378906"/><stop stop-opacity="1" stop-color="rgb(69.546509%, 95.977783%, 90.040588%)" offset="0.394531"/><stop stop-opacity="1" stop-color="rgb(69.932556%, 95.86792%, 90.065002%)" offset="0.410156"/><stop stop-opacity="1" stop-color="rgb(70.318604%, 95.758057%, 90.089417%)" offset="0.425781"/><stop stop-opacity="1" stop-color="rgb(70.704651%, 95.648193%, 90.113831%)" offset="0.441406"/><stop stop-opacity="1" stop-color="rgb(71.090698%, 95.536804%, 90.138245%)" offset="0.457031"/><stop stop-opacity="1" stop-color="rgb(71.476746%, 95.426941%, 90.164185%)" offset="0.472656"/><stop stop-opacity="1" stop-color="rgb(71.862793%, 95.317078%, 90.188599%)" offset="0.488281"/><stop stop-opacity="1" stop-color="rgb(72.200012%, 95.219421%, 90.209961%)" offset="0.503906"/><stop stop-opacity="1" stop-color="rgb(72.489929%, 95.137024%, 90.228271%)" offset="0.515625"/><stop stop-opacity="1" stop-color="rgb(72.779846%, 95.054626%, 90.246582%)" offset="0.527344"/><stop stop-opacity="1" stop-color="rgb(73.068237%, 94.972229%, 90.264893%)" offset="0.539062"/><stop stop-opacity="1" stop-color="rgb(73.358154%, 94.889832%, 90.283203%)" offset="0.550781"/><stop stop-opacity="1" stop-color="rgb(73.648071%, 94.805908%, 90.301514%)" offset="0.5625"/><stop stop-opacity="1" stop-color="rgb(73.936462%, 94.723511%, 90.319824%)" offset="0.574219"/><stop stop-opacity="1" stop-color="rgb(74.226379%, 94.641113%, 90.338135%)" offset="0.585938"/><stop stop-opacity="1" stop-color="rgb(74.516296%, 94.558716%, 90.356445%)" offset="0.597656"/><stop stop-opacity="1" stop-color="rgb(74.804688%, 94.474792%, 90.374756%)" offset="0.609375"/><stop stop-opacity="1" stop-color="rgb(75.094604%, 94.392395%, 90.393066%)" offset="0.621094"/><stop stop-opacity="1" stop-color="rgb(75.335693%, 94.32373%, 90.408325%)" offset="0.632812"/><stop stop-opacity="1" stop-color="rgb(75.52948%, 94.268799%, 90.420532%)" offset="0.640625"/><stop stop-opacity="1" stop-color="rgb(75.721741%, 94.213867%, 90.432739%)" offset="0.648438"/><stop stop-opacity="1" stop-color="rgb(75.914001%, 94.158936%, 90.444946%)" offset="0.65625"/><stop stop-opacity="1" stop-color="rgb(76.107788%, 94.104004%, 90.458679%)" offset="0.664062"/><stop stop-opacity="1" stop-color="rgb(76.300049%, 94.047546%, 90.470886%)" offset="0.671875"/><stop stop-opacity="1" stop-color="rgb(76.493835%, 93.992615%, 90.483093%)" offset="0.679688"/><stop stop-opacity="1" stop-color="rgb(76.686096%, 93.937683%, 90.4953%)" offset="0.6875"/><stop stop-opacity="1" stop-color="rgb(76.976013%, 93.855286%, 90.513611%)" offset="0.695312"/><stop stop-opacity="1" stop-color="rgb(77.362061%, 93.743896%, 90.538025%)" offset="0.710938"/><stop stop-opacity="1" stop-color="rgb(77.748108%, 93.634033%, 90.562439%)" offset="0.726562"/><stop stop-opacity="1" stop-color="rgb(78.134155%, 93.52417%, 90.586853%)" offset="0.742188"/><stop stop-opacity="1" stop-color="rgb(78.471375%, 93.42804%, 90.608215%)" offset="0.757812"/><stop stop-opacity="1" stop-color="rgb(78.761292%, 93.344116%, 90.626526%)" offset="0.769531"/><stop stop-opacity="1" stop-color="rgb(79.051208%, 93.261719%, 90.644836%)" offset="0.78125"/><stop stop-opacity="1" stop-color="rgb(79.3396%, 93.179321%, 90.663147%)" offset="0.792969"/><stop stop-opacity="1" stop-color="rgb(79.629517%, 93.096924%, 90.681458%)" offset="0.804688"/><stop stop-opacity="1" stop-color="rgb(79.870605%, 93.028259%, 90.696716%)" offset="0.816406"/><stop stop-opacity="1" stop-color="rgb(80.062866%, 92.971802%, 90.708923%)" offset="0.824219"/><stop stop-opacity="1" stop-color="rgb(80.256653%, 92.91687%, 90.72113%)" offset="0.832031"/><stop stop-opacity="1" stop-color="rgb(80.448914%, 92.861938%, 90.733337%)" offset="0.839844"/><stop stop-opacity="1" stop-color="rgb(80.738831%, 92.779541%, 90.751648%)" offset="0.847656"/><stop stop-opacity="1" stop-color="rgb(81.124878%, 92.669678%, 90.776062%)" offset="0.863281"/><stop stop-opacity="1" stop-color="rgb(81.462097%, 92.572021%, 90.79895%)" offset="0.878906"/><stop stop-opacity="1" stop-color="rgb(81.752014%, 92.489624%, 90.817261%)" offset="0.890625"/><stop stop-opacity="1" stop-color="rgb(82.041931%, 92.407227%, 90.835571%)" offset="0.902344"/><stop stop-opacity="1" stop-color="rgb(82.28302%, 92.338562%, 90.85083%)" offset="0.914062"/><stop stop-opacity="1" stop-color="rgb(82.475281%, 92.28363%, 90.863037%)" offset="0.921875"/><stop stop-opacity="1" stop-color="rgb(82.765198%, 92.199707%, 90.881348%)" offset="0.929688"/><stop stop-opacity="1" stop-color="rgb(83.102417%, 92.103577%, 90.90271%)" offset="0.945312"/><stop stop-opacity="1" stop-color="rgb(83.343506%, 92.034912%, 90.917969%)" offset="0.957031"/><stop stop-opacity="1" stop-color="rgb(83.633423%, 91.952515%, 90.936279%)" offset="0.964844"/><stop stop-opacity="1" stop-color="rgb(83.92334%, 91.870117%, 90.95459%)" offset="0.980469"/><stop stop-opacity="1" stop-color="rgb(84.164429%, 91.799927%, 90.969849%)" offset="0.988281"/><stop stop-opacity="1" stop-color="rgb(84.309387%, 91.758728%, 90.979004%)" offset="1"/></radialGradient><clipPath id="fd2c045713"><rect x="0" width="10" y="0" height="10"/></clipPath><clipPath id="ad1f3a37a6"><path d="M 17.847656 1.144531 L 25.4375 1.144531 L 25.4375 28.683594 L 17.847656 28.683594 Z M 17.847656 1.144531 " clip-rule="nonzero"/></clipPath><clipPath id="2687e9a0e1"><path d="M 21.640625 1.144531 C 23.738281 1.144531 25.4375 2.84375 25.4375 4.941406 L 25.4375 24.859375 C 25.4375 26.957031 23.738281 28.65625 21.640625 28.65625 C 19.546875 28.65625 17.847656 26.957031 17.847656 24.859375 L 17.847656 4.941406 C 17.847656 2.84375 19.546875 1.144531 21.640625 1.144531 Z M 21.640625 1.144531 " clip-rule="nonzero"/></clipPath><clipPath id="98ca290e16"><path d="M 0.847656 0.144531 L 8.4375 0.144531 L 8.4375 27.652344 L 0.847656 27.652344 Z M 0.847656 0.144531 " clip-rule="nonzero"/></clipPath><clipPath id="372d9228a0"><path d="M 4.640625 0.144531 C 6.738281 0.144531 8.4375 1.84375 8.4375 3.941406 L 8.4375 23.859375 C 8.4375 25.957031 6.738281 27.65625 4.640625 27.65625 C 2.546875 27.65625 0.847656 25.957031 0.847656 23.859375 L 0.847656 3.941406 C 0.847656 1.84375 2.546875 0.144531 4.640625 0.144531 Z M 4.640625 0.144531 " clip-rule="nonzero"/></clipPath><radialGradient gradientTransform="matrix(1, 0, 0, 1, 0.848312, 0.146199)" gradientUnits="userSpaceOnUse" r="28.536042" cx="0" id="cc191fd2a7" cy="0" fx="0" fy="0"><stop stop-opacity="1" stop-color="rgb(59.802246%, 98.764038%, 89.421082%)" offset="0"/><stop stop-opacity="1" stop-color="rgb(60.139465%, 98.667908%, 89.442444%)" offset="0.015625"/><stop stop-opacity="1" stop-color="rgb(60.429382%, 98.583984%, 89.460754%)" offset="0.0273438"/><stop stop-opacity="1" stop-color="rgb(60.719299%, 98.501587%, 89.479065%)" offset="0.0390625"/><stop stop-opacity="1" stop-color="rgb(61.00769%, 98.419189%, 89.497375%)" offset="0.0507812"/><stop stop-opacity="1" stop-color="rgb(61.297607%, 98.336792%, 89.517212%)" offset="0.0625"/><stop stop-opacity="1" stop-color="rgb(61.587524%, 98.254395%, 89.535522%)" offset="0.0742188"/><stop stop-opacity="1" stop-color="rgb(61.875916%, 98.170471%, 89.553833%)" offset="0.0859375"/><stop stop-opacity="1" stop-color="rgb(62.165833%, 98.088074%, 89.572144%)" offset="0.0976562"/><stop stop-opacity="1" stop-color="rgb(62.45575%, 98.005676%, 89.590454%)" offset="0.109375"/><stop stop-opacity="1" stop-color="rgb(62.744141%, 97.923279%, 89.608765%)" offset="0.121094"/><stop stop-opacity="1" stop-color="rgb(63.034058%, 97.839355%, 89.627075%)" offset="0.132812"/><stop stop-opacity="1" stop-color="rgb(63.323975%, 97.756958%, 89.645386%)" offset="0.144531"/><stop stop-opacity="1" stop-color="rgb(63.612366%, 97.674561%, 89.663696%)" offset="0.15625"/><stop stop-opacity="1" stop-color="rgb(63.902283%, 97.592163%, 89.682007%)" offset="0.167969"/><stop stop-opacity="1" stop-color="rgb(64.1922%, 97.509766%, 89.700317%)" offset="0.179688"/><stop stop-opacity="1" stop-color="rgb(64.482117%, 97.425842%, 89.718628%)" offset="0.191406"/><stop stop-opacity="1" stop-color="rgb(64.770508%, 97.343445%, 89.736938%)" offset="0.203125"/><stop stop-opacity="1" stop-color="rgb(65.060425%, 97.261047%, 89.755249%)" offset="0.214844"/><stop stop-opacity="1" stop-color="rgb(65.350342%, 97.17865%, 89.77356%)" offset="0.226562"/><stop stop-opacity="1" stop-color="rgb(65.638733%, 97.094727%, 89.79187%)" offset="0.238281"/><stop stop-opacity="1" stop-color="rgb(65.92865%, 97.012329%, 89.810181%)" offset="0.25"/><stop stop-opacity="1" stop-color="rgb(66.169739%, 96.943665%, 89.826965%)" offset="0.261719"/><stop stop-opacity="1" stop-color="rgb(66.363525%, 96.888733%, 89.839172%)" offset="0.269531"/><stop stop-opacity="1" stop-color="rgb(66.555786%, 96.833801%, 89.851379%)" offset="0.277344"/><stop stop-opacity="1" stop-color="rgb(66.748047%, 96.77887%, 89.863586%)" offset="0.285156"/><stop stop-opacity="1" stop-color="rgb(66.941833%, 96.723938%, 89.875793%)" offset="0.292969"/><stop stop-opacity="1" stop-color="rgb(67.134094%, 96.66748%, 89.888%)" offset="0.300781"/><stop stop-opacity="1" stop-color="rgb(67.327881%, 96.612549%, 89.900208%)" offset="0.308594"/><stop stop-opacity="1" stop-color="rgb(67.520142%, 96.557617%, 89.912415%)" offset="0.316406"/><stop stop-opacity="1" stop-color="rgb(67.713928%, 96.502686%, 89.924622%)" offset="0.324219"/><stop stop-opacity="1" stop-color="rgb(67.906189%, 96.447754%, 89.936829%)" offset="0.332031"/><stop stop-opacity="1" stop-color="rgb(68.099976%, 96.392822%, 89.949036%)" offset="0.339844"/><stop stop-opacity="1" stop-color="rgb(68.292236%, 96.336365%, 89.961243%)" offset="0.347656"/><stop stop-opacity="1" stop-color="rgb(68.486023%, 96.281433%, 89.97345%)" offset="0.355469"/><stop stop-opacity="1" stop-color="rgb(68.678284%, 96.226501%, 89.985657%)" offset="0.363281"/><stop stop-opacity="1" stop-color="rgb(68.87207%, 96.17157%, 89.997864%)" offset="0.371094"/><stop stop-opacity="1" stop-color="rgb(69.160461%, 96.089172%, 90.016174%)" offset="0.378906"/><stop stop-opacity="1" stop-color="rgb(69.546509%, 95.977783%, 90.040588%)" offset="0.394531"/><stop stop-opacity="1" stop-color="rgb(69.932556%, 95.86792%, 90.065002%)" offset="0.410156"/><stop stop-opacity="1" stop-color="rgb(70.318604%, 95.758057%, 90.089417%)" offset="0.425781"/><stop stop-opacity="1" stop-color="rgb(70.704651%, 95.648193%, 90.113831%)" offset="0.441406"/><stop stop-opacity="1" stop-color="rgb(71.090698%, 95.536804%, 90.138245%)" offset="0.457031"/><stop stop-opacity="1" stop-color="rgb(71.476746%, 95.426941%, 90.164185%)" offset="0.472656"/><stop stop-opacity="1" stop-color="rgb(71.862793%, 95.317078%, 90.188599%)" offset="0.488281"/><stop stop-opacity="1" stop-color="rgb(72.200012%, 95.219421%, 90.209961%)" offset="0.503906"/><stop stop-opacity="1" stop-color="rgb(72.489929%, 95.137024%, 90.228271%)" offset="0.515625"/><stop stop-opacity="1" stop-color="rgb(72.779846%, 95.054626%, 90.246582%)" offset="0.527344"/><stop stop-opacity="1" stop-color="rgb(73.068237%, 94.972229%, 90.264893%)" offset="0.539062"/><stop stop-opacity="1" stop-color="rgb(73.358154%, 94.889832%, 90.283203%)" offset="0.550781"/><stop stop-opacity="1" stop-color="rgb(73.648071%, 94.805908%, 90.301514%)" offset="0.5625"/><stop stop-opacity="1" stop-color="rgb(73.936462%, 94.723511%, 90.319824%)" offset="0.574219"/><stop stop-opacity="1" stop-color="rgb(74.226379%, 94.641113%, 90.338135%)" offset="0.585938"/><stop stop-opacity="1" stop-color="rgb(74.516296%, 94.558716%, 90.356445%)" offset="0.597656"/><stop stop-opacity="1" stop-color="rgb(74.804688%, 94.474792%, 90.374756%)" offset="0.609375"/><stop stop-opacity="1" stop-color="rgb(75.094604%, 94.392395%, 90.393066%)" offset="0.621094"/><stop stop-opacity="1" stop-color="rgb(75.335693%, 94.32373%, 90.408325%)" offset="0.632812"/><stop stop-opacity="1" stop-color="rgb(75.52948%, 94.268799%, 90.420532%)" offset="0.640625"/><stop stop-opacity="1" stop-color="rgb(75.721741%, 94.213867%, 90.432739%)" offset="0.648438"/><stop stop-opacity="1" stop-color="rgb(75.914001%, 94.158936%, 90.444946%)" offset="0.65625"/><stop stop-opacity="1" stop-color="rgb(76.107788%, 94.104004%, 90.458679%)" offset="0.664062"/><stop stop-opacity="1" stop-color="rgb(76.300049%, 94.047546%, 90.470886%)" offset="0.671875"/><stop stop-opacity="1" stop-color="rgb(76.493835%, 93.992615%, 90.483093%)" offset="0.679688"/><stop stop-opacity="1" stop-color="rgb(76.686096%, 93.937683%, 90.4953%)" offset="0.6875"/><stop stop-opacity="1" stop-color="rgb(76.976013%, 93.855286%, 90.513611%)" offset="0.695312"/><stop stop-opacity="1" stop-color="rgb(77.362061%, 93.743896%, 90.538025%)" offset="0.710938"/><stop stop-opacity="1" stop-color="rgb(77.748108%, 93.634033%, 90.562439%)" offset="0.726562"/><stop stop-opacity="1" stop-color="rgb(78.134155%, 93.52417%, 90.586853%)" offset="0.742188"/><stop stop-opacity="1" stop-color="rgb(78.471375%, 93.42804%, 90.608215%)" offset="0.757812"/><stop stop-opacity="1" stop-color="rgb(78.761292%, 93.344116%, 90.626526%)" offset="0.769531"/><stop stop-opacity="1" stop-color="rgb(79.051208%, 93.261719%, 90.644836%)" offset="0.78125"/><stop stop-opacity="1" stop-color="rgb(79.3396%, 93.179321%, 90.663147%)" offset="0.792969"/><stop stop-opacity="1" stop-color="rgb(79.629517%, 93.096924%, 90.681458%)" offset="0.804688"/><stop stop-opacity="1" stop-color="rgb(79.870605%, 93.028259%, 90.696716%)" offset="0.816406"/><stop stop-opacity="1" stop-color="rgb(80.062866%, 92.971802%, 90.708923%)" offset="0.824219"/><stop stop-opacity="1" stop-color="rgb(80.256653%, 92.91687%, 90.72113%)" offset="0.832031"/><stop stop-opacity="1" stop-color="rgb(80.448914%, 92.861938%, 90.733337%)" offset="0.839844"/><stop stop-opacity="1" stop-color="rgb(80.738831%, 92.779541%, 90.751648%)" offset="0.847656"/><stop stop-opacity="1" stop-color="rgb(81.124878%, 92.669678%, 90.776062%)" offset="0.863281"/><stop stop-opacity="1" stop-color="rgb(81.462097%, 92.572021%, 90.79895%)" offset="0.878906"/><stop stop-opacity="1" stop-color="rgb(81.752014%, 92.489624%, 90.817261%)" offset="0.890625"/><stop stop-opacity="1" stop-color="rgb(82.041931%, 92.407227%, 90.835571%)" offset="0.902344"/><stop stop-opacity="1" stop-color="rgb(82.28302%, 92.338562%, 90.85083%)" offset="0.914062"/><stop stop-opacity="1" stop-color="rgb(82.475281%, 92.28363%, 90.863037%)" offset="0.921875"/><stop stop-opacity="1" stop-color="rgb(82.765198%, 92.199707%, 90.881348%)" offset="0.929688"/><stop stop-opacity="1" stop-color="rgb(83.102417%, 92.103577%, 90.90271%)" offset="0.945312"/><stop stop-opacity="1" stop-color="rgb(83.343506%, 92.034912%, 90.917969%)" offset="0.957031"/><stop stop-opacity="1" stop-color="rgb(83.633423%, 91.952515%, 90.936279%)" offset="0.964844"/><stop stop-opacity="1" stop-color="rgb(83.92334%, 91.870117%, 90.95459%)" offset="0.980469"/><stop stop-opacity="1" stop-color="rgb(84.164429%, 91.799927%, 90.969849%)" offset="0.988281"/><stop stop-opacity="1" stop-color="rgb(84.309387%, 91.758728%, 90.979004%)" offset="1"/></radialGradient><clipPath id="e48059d214"><rect x="0" width="9" y="0" height="28"/></clipPath><clipPath id="7ddc27f020"><rect x="0" width="158" y="0" height="29"/></clipPath></defs><g transform="matrix(1, 0, 0, 1, 109, 77)"><g clip-path="url(#7ddc27f020)"><g fill="#072723" fill-opacity="1"><g transform="translate(30.904321, 23.071646)"><g><path d="M 5.265625 0 L 2.078125 0 L 2.078125 -17.40625 L 5.265625 -17.40625 L 5.265625 -10.1875 L 14.046875 -10.1875 L 14.046875 -17.40625 L 17.25 -17.40625 L 17.25 0 L 14.046875 0 L 14.046875 -7.34375 L 5.265625 -7.34375 Z M 5.265625 0 "/></g></g></g><g fill="#072723" fill-opacity="1"><g transform="translate(48.198569, 23.071646)"><g><path d="M 2.84375 4.5 L 0.625 4.5 L 0.625 1.9375 L 2.8125 1.9375 C 3.269531 1.9375 3.644531 1.859375 3.9375 1.703125 C 4.238281 1.554688 4.488281 1.328125 4.6875 1.015625 C 4.894531 0.710938 5.09375 0.316406 5.28125 -0.171875 L 5.421875 -0.609375 L 0.390625 -13.15625 L 3.65625 -13.15625 L 6.75 -5.203125 L 7.078125 -3.84375 L 7.421875 -5.1875 L 10.46875 -13.140625 L 13.78125 -13.15625 L 8.640625 -0.296875 C 8.253906 0.679688 7.867188 1.484375 7.484375 2.109375 C 7.097656 2.742188 6.6875 3.234375 6.25 3.578125 C 5.8125 3.921875 5.316406 4.160156 4.765625 4.296875 C 4.210938 4.429688 3.570312 4.5 2.84375 4.5 Z M 2.84375 4.5 "/></g></g></g><g fill="#072723" fill-opacity="1"><g transform="translate(60.066297, 23.071646)"><g><path d="M 4.921875 4.5 L 1.8125 4.5 L 1.8125 -13.15625 L 4.765625 -13.15625 L 4.765625 -10.953125 C 5.242188 -11.742188 5.878906 -12.375 6.671875 -12.84375 C 7.460938 -13.3125 8.332031 -13.546875 9.28125 -13.546875 C 10.21875 -13.546875 11.078125 -13.363281 11.859375 -13 C 12.640625 -12.632812 13.316406 -12.132812 13.890625 -11.5 C 14.460938 -10.863281 14.90625 -10.125 15.21875 -9.28125 C 15.539062 -8.445312 15.703125 -7.546875 15.703125 -6.578125 C 15.703125 -5.617188 15.539062 -4.710938 15.21875 -3.859375 C 14.90625 -3.015625 14.457031 -2.269531 13.875 -1.625 C 13.300781 -0.988281 12.628906 -0.492188 11.859375 -0.140625 C 11.085938 0.210938 10.238281 0.390625 9.3125 0.390625 C 8.675781 0.390625 8.070312 0.285156 7.5 0.078125 C 6.925781 -0.128906 6.410156 -0.421875 5.953125 -0.796875 C 5.503906 -1.179688 5.140625 -1.625 4.859375 -2.125 L 4.921875 -0.609375 Z M 8.75 -2.453125 C 9.457031 -2.453125 10.101562 -2.617188 10.6875 -2.953125 C 11.269531 -3.285156 11.738281 -3.757812 12.09375 -4.375 C 12.445312 -5 12.625 -5.734375 12.625 -6.578125 C 12.625 -7.410156 12.445312 -8.132812 12.09375 -8.75 C 11.75 -9.363281 11.28125 -9.835938 10.6875 -10.171875 C 10.101562 -10.515625 9.457031 -10.6875 8.75 -10.6875 C 8.207031 -10.6875 7.703125 -10.582031 7.234375 -10.375 C 6.773438 -10.164062 6.367188 -9.875 6.015625 -9.5 C 5.660156 -9.125 5.378906 -8.6875 5.171875 -8.1875 C 4.972656 -7.695312 4.875 -7.160156 4.875 -6.578125 C 4.875 -5.984375 4.972656 -5.429688 5.171875 -4.921875 C 5.378906 -4.421875 5.660156 -3.984375 6.015625 -3.609375 C 6.378906 -3.242188 6.796875 -2.957031 7.265625 -2.75 C 7.734375 -2.550781 8.226562 -2.453125 8.75 -2.453125 Z M 8.75 -2.453125 "/></g></g></g><g fill="#072723" fill-opacity="1"><g transform="translate(74.621689, 23.071646)"><g><path d="M 14.34375 -6.8125 C 14.34375 -6.644531 14.335938 -6.488281 14.328125 -6.34375 C 14.316406 -6.195312 14.300781 -6.003906 14.28125 -5.765625 L 4 -5.765625 C 4.101562 -5.046875 4.328125 -4.429688 4.671875 -3.921875 C 5.023438 -3.421875 5.457031 -3.035156 5.96875 -2.765625 C 6.476562 -2.503906 7.035156 -2.375 7.640625 -2.375 C 8.429688 -2.375 9.066406 -2.523438 9.546875 -2.828125 C 10.035156 -3.140625 10.390625 -3.578125 10.609375 -4.140625 L 14 -4.140625 C 13.832031 -3.546875 13.5625 -2.972656 13.1875 -2.421875 C 12.820312 -1.878906 12.367188 -1.394531 11.828125 -0.96875 C 11.285156 -0.550781 10.664062 -0.222656 9.96875 0.015625 C 9.28125 0.265625 8.523438 0.390625 7.703125 0.390625 C 6.710938 0.390625 5.800781 0.210938 4.96875 -0.140625 C 4.132812 -0.503906 3.410156 -1.003906 2.796875 -1.640625 C 2.191406 -2.285156 1.722656 -3.03125 1.390625 -3.875 C 1.054688 -4.71875 0.890625 -5.617188 0.890625 -6.578125 C 0.890625 -7.546875 1.054688 -8.445312 1.390625 -9.28125 C 1.722656 -10.125 2.191406 -10.863281 2.796875 -11.5 C 3.410156 -12.144531 4.132812 -12.648438 4.96875 -13.015625 C 5.800781 -13.378906 6.710938 -13.5625 7.703125 -13.5625 C 8.691406 -13.5625 9.59375 -13.378906 10.40625 -13.015625 C 11.226562 -12.660156 11.929688 -12.164062 12.515625 -11.53125 C 13.097656 -10.90625 13.546875 -10.1875 13.859375 -9.375 C 14.179688 -8.570312 14.34375 -7.71875 14.34375 -6.8125 Z M 4.125 -8.15625 L 11.171875 -8.15625 C 11.128906 -8.644531 10.945312 -9.09375 10.625 -9.5 C 10.300781 -9.90625 9.882812 -10.234375 9.375 -10.484375 C 8.863281 -10.734375 8.300781 -10.859375 7.6875 -10.859375 C 7.164062 -10.859375 6.664062 -10.757812 6.1875 -10.5625 C 5.71875 -10.375 5.300781 -10.082031 4.9375 -9.6875 C 4.570312 -9.289062 4.300781 -8.78125 4.125 -8.15625 Z M 4.125 -8.15625 "/></g></g></g><g fill="#072723" fill-opacity="1"><g transform="translate(87.641273, 23.071646)"><g><path d="M 4.921875 0 L 1.8125 0 L 1.8125 -13.15625 L 4.78125 -13.15625 L 4.78125 -10.78125 C 5.09375 -11.507812 5.546875 -12.085938 6.140625 -12.515625 C 6.742188 -12.941406 7.472656 -13.15625 8.328125 -13.15625 L 9.734375 -13.15625 L 9.734375 -10.5 L 8.484375 -10.5 C 7.773438 -10.5 7.148438 -10.328125 6.609375 -9.984375 C 6.078125 -9.640625 5.660156 -9.144531 5.359375 -8.5 C 5.066406 -7.851562 4.921875 -7.0625 4.921875 -6.125 Z M 4.921875 0 "/></g></g></g><g fill="#072723" fill-opacity="1"><g transform="translate(95.746274, 23.071646)"><g><path d="M 5.265625 0 L 2.078125 0 L 2.078125 -17.40625 L 5.265625 -17.40625 Z M 5.265625 0 "/></g></g></g><g fill="#072723" fill-opacity="1"><g transform="translate(101.048422, 23.071646)"><g><path d="M 4.921875 0 L 1.8125 0 L 1.8125 -13.15625 L 4.765625 -13.15625 L 4.765625 -11.109375 C 5.015625 -11.585938 5.363281 -12.007812 5.8125 -12.375 C 6.257812 -12.75 6.773438 -13.039062 7.359375 -13.25 C 7.953125 -13.457031 8.582031 -13.5625 9.25 -13.5625 C 11.019531 -13.5625 12.34375 -13 13.21875 -11.875 C 14.101562 -10.75 14.546875 -9.15625 14.546875 -7.09375 L 14.546875 0 L 11.4375 0 L 11.4375 -7.03125 C 11.4375 -8.332031 11.164062 -9.269531 10.625 -9.84375 C 10.082031 -10.414062 9.335938 -10.703125 8.390625 -10.703125 C 7.785156 -10.703125 7.21875 -10.546875 6.6875 -10.234375 C 6.164062 -9.929688 5.738281 -9.484375 5.40625 -8.890625 C 5.082031 -8.304688 4.921875 -7.582031 4.921875 -6.71875 Z M 4.921875 0 "/></g></g></g><g fill="#072723" fill-opacity="1"><g transform="translate(115.28385, 23.071646)"><g><path d="M 7.25 0.390625 C 6.3125 0.390625 5.453125 0.210938 4.671875 -0.140625 C 3.890625 -0.492188 3.21875 -0.988281 2.65625 -1.625 C 2.09375 -2.269531 1.65625 -3.015625 1.34375 -3.859375 C 1.039062 -4.710938 0.890625 -5.617188 0.890625 -6.578125 C 0.890625 -7.546875 1.039062 -8.445312 1.34375 -9.28125 C 1.644531 -10.125 2.078125 -10.863281 2.640625 -11.5 C 3.210938 -12.144531 3.890625 -12.648438 4.671875 -13.015625 C 5.453125 -13.378906 6.320312 -13.5625 7.28125 -13.5625 C 8 -13.5625 8.648438 -13.429688 9.234375 -13.171875 C 9.816406 -12.921875 10.316406 -12.601562 10.734375 -12.21875 C 11.160156 -11.832031 11.492188 -11.429688 11.734375 -11.015625 L 11.65625 -12.375 L 11.65625 -18.03125 L 14.75 -18.03125 L 14.75 0 L 11.796875 0 L 11.796875 -2.21875 C 11.546875 -1.757812 11.203125 -1.328125 10.765625 -0.921875 C 10.328125 -0.523438 9.8125 -0.207031 9.21875 0.03125 C 8.632812 0.269531 7.976562 0.390625 7.25 0.390625 Z M 7.8125 -2.453125 C 8.34375 -2.453125 8.84375 -2.554688 9.3125 -2.765625 C 9.789062 -2.972656 10.207031 -3.265625 10.5625 -3.640625 C 10.914062 -4.023438 11.191406 -4.460938 11.390625 -4.953125 C 11.585938 -5.453125 11.6875 -5.992188 11.6875 -6.578125 C 11.6875 -7.160156 11.585938 -7.695312 11.390625 -8.1875 C 11.191406 -8.6875 10.914062 -9.125 10.5625 -9.5 C 10.207031 -9.875 9.796875 -10.164062 9.328125 -10.375 C 8.859375 -10.582031 8.351562 -10.6875 7.8125 -10.6875 C 7.082031 -10.6875 6.421875 -10.507812 5.828125 -10.15625 C 5.242188 -9.800781 4.78125 -9.316406 4.4375 -8.703125 C 4.101562 -8.085938 3.9375 -7.378906 3.9375 -6.578125 C 3.9375 -5.804688 4.097656 -5.109375 4.421875 -4.484375 C 4.753906 -3.859375 5.210938 -3.363281 5.796875 -3 C 6.390625 -2.632812 7.0625 -2.453125 7.8125 -2.453125 Z M 7.8125 -2.453125 "/></g></g></g><g fill="#072723" fill-opacity="1"><g transform="translate(129.813644, 23.071646)"><g><path d="M 14.34375 -6.8125 C 14.34375 -6.644531 14.335938 -6.488281 14.328125 -6.34375 C 14.316406 -6.195312 14.300781 -6.003906 14.28125 -5.765625 L 4 -5.765625 C 4.101562 -5.046875 4.328125 -4.429688 4.671875 -3.921875 C 5.023438 -3.421875 5.457031 -3.035156 5.96875 -2.765625 C 6.476562 -2.503906 7.035156 -2.375 7.640625 -2.375 C 8.429688 -2.375 9.066406 -2.523438 9.546875 -2.828125 C 10.035156 -3.140625 10.390625 -3.578125 10.609375 -4.140625 L 14 -4.140625 C 13.832031 -3.546875 13.5625 -2.972656 13.1875 -2.421875 C 12.820312 -1.878906 12.367188 -1.394531 11.828125 -0.96875 C 11.285156 -0.550781 10.664062 -0.222656 9.96875 0.015625 C 9.28125 0.265625 8.523438 0.390625 7.703125 0.390625 C 6.710938 0.390625 5.800781 0.210938 4.96875 -0.140625 C 4.132812 -0.503906 3.410156 -1.003906 2.796875 -1.640625 C 2.191406 -2.285156 1.722656 -3.03125 1.390625 -3.875 C 1.054688 -4.71875 0.890625 -5.617188 0.890625 -6.578125 C 0.890625 -7.546875 1.054688 -8.445312 1.390625 -9.28125 C 1.722656 -10.125 2.191406 -10.863281 2.796875 -11.5 C 3.410156 -12.144531 4.132812 -12.648438 4.96875 -13.015625 C 5.800781 -13.378906 6.710938 -13.5625 7.703125 -13.5625 C 8.691406 -13.5625 9.59375 -13.378906 10.40625 -13.015625 C 11.226562 -12.660156 11.929688 -12.164062 12.515625 -11.53125 C 13.097656 -10.90625 13.546875 -10.1875 13.859375 -9.375 C 14.179688 -8.570312 14.34375 -7.71875 14.34375 -6.8125 Z M 4.125 -8.15625 L 11.171875 -8.15625 C 11.128906 -8.644531 10.945312 -9.09375 10.625 -9.5 C 10.300781 -9.90625 9.882812 -10.234375 9.375 -10.484375 C 8.863281 -10.734375 8.300781 -10.859375 7.6875 -10.859375 C 7.164062 -10.859375 6.664062 -10.757812 6.1875 -10.5625 C 5.71875 -10.375 5.300781 -10.082031 4.9375 -9.6875 C 4.570312 -9.289062 4.300781 -8.78125 4.125 -8.15625 Z M 4.125 -8.15625 "/></g></g></g><g fill="#072723" fill-opacity="1"><g transform="translate(142.833228, 23.071646)"><g><path d="M 3.921875 0 L 0.328125 0 L 4.6875 -6.78125 L 0.5 -13.15625 L 4.140625 -13.15625 L 6.84375 -8.828125 L 9.546875 -13.15625 L 13.171875 -13.15625 L 9 -6.78125 L 13.359375 0 L 9.6875 0 L 6.8125 -4.625 Z M 3.921875 0 "/></g></g></g><g clip-path="url(#c06eaf8d18)"><g clip-path="url(#c58c69f6b9)"><g transform="matrix(1, 0, 0, 1, -0.000000000000028422, 1)"><g clip-path="url(#a10f489c9b)"><g clip-path="url(#83f4d3a32c)"><g clip-path="url(#ca8ccd94d7)"><path fill="url(#56ddc2ec9c)" d="M 0.554688 0.144531 L 0.554688 27.652344 L 8.144531 27.652344 L 8.144531 0.144531 Z M 0.554688 0.144531 " fill-rule="nonzero"/></g></g></g></g></g></g><g clip-path="url(#cc5c8cff48)"><g clip-path="url(#8d52f1f2e5)"><g transform="matrix(1, 0, 0, 1, 8, 10)"><g clip-path="url(#fd2c045713)"><g clip-path="url(#e10ac7a939)"><g clip-path="url(#29319aff23)"><path fill="url(#a4cd5a4996)" d="M 0.144531 0.046875 L 0.144531 9.753906 L 9.847656 9.753906 L 9.847656 0.046875 Z M 0.144531 0.046875 " fill-rule="nonzero"/></g></g></g></g></g></g><g clip-path="url(#ad1f3a37a6)"><g clip-path="url(#2687e9a0e1)"><g transform="matrix(1, 0, 0, 1, 17, 1)"><g clip-path="url(#e48059d214)"><g clip-path="url(#98ca290e16)"><g clip-path="url(#372d9228a0)"><path fill="url(#cc191fd2a7)" d="M 0.847656 0.144531 L 0.847656 27.652344 L 8.4375 27.652344 L 8.4375 0.144531 Z M 0.847656 0.144531 " fill-rule="nonzero"/></g></g></g></g></g></g></g></g></svg>