<svg xmlns="http://www.w3.org/2000/svg" xmlns:xlink="http://www.w3.org/1999/xlink" width="400" zoomAndPan="magnify" viewBox="0 0 300 89.999999" height="120" preserveAspectRatio="xMidYMid meet" version="1.0"><defs><g/><clipPath id="72c9401b3d"><path d="M 0.960938 1.0625 L 13.621094 1.0625 L 13.621094 47 L 0.960938 47 Z M 0.960938 1.0625 " clip-rule="nonzero"/></clipPath><clipPath id="293145c826"><path d="M 7.292969 1.0625 C 10.789062 1.0625 13.621094 3.898438 13.621094 7.394531 L 13.621094 40.628906 C 13.621094 44.125 10.789062 46.957031 7.292969 46.957031 C 3.796875 46.957031 0.960938 44.125 0.960938 40.628906 L 0.960938 7.394531 C 0.960938 3.898438 3.796875 1.0625 7.292969 1.0625 Z M 7.292969 1.0625 " clip-rule="nonzero"/></clipPath><clipPath id="3c760b9b72"><path d="M 0.960938 0.0625 L 13.621094 0.0625 L 13.621094 45.957031 L 0.960938 45.957031 Z M 0.960938 0.0625 " clip-rule="nonzero"/></clipPath><clipPath id="a2b1f071ad"><path d="M 7.292969 0.0625 C 10.789062 0.0625 13.621094 2.898438 13.621094 6.394531 L 13.621094 39.628906 C 13.621094 43.125 10.789062 45.957031 7.292969 45.957031 C 3.796875 45.957031 0.960938 43.125 0.960938 39.628906 L 0.960938 6.394531 C 0.960938 2.898438 3.796875 0.0625 7.292969 0.0625 Z M 7.292969 0.0625 " clip-rule="nonzero"/></clipPath><radialGradient gradientTransform="matrix(1, 0, 0, 1, 0.961913, 0.0634776)" gradientUnits="userSpaceOnUse" r="47.608425" cx="0" id="bafd10d822" cy="0" fx="0" fy="0"><stop stop-opacity="1" stop-color="rgb(59.802246%, 98.764038%, 89.421082%)" offset="0"/><stop stop-opacity="1" stop-color="rgb(60.139465%, 98.667908%, 89.442444%)" offset="0.015625"/><stop stop-opacity="1" stop-color="rgb(60.429382%, 98.583984%, 89.460754%)" offset="0.0273438"/><stop stop-opacity="1" stop-color="rgb(60.719299%, 98.501587%, 89.479065%)" offset="0.0390625"/><stop stop-opacity="1" stop-color="rgb(61.00769%, 98.419189%, 89.497375%)" offset="0.0507812"/><stop stop-opacity="1" stop-color="rgb(61.297607%, 98.336792%, 89.517212%)" offset="0.0625"/><stop stop-opacity="1" stop-color="rgb(61.587524%, 98.254395%, 89.535522%)" offset="0.0742188"/><stop stop-opacity="1" stop-color="rgb(61.875916%, 98.170471%, 89.553833%)" offset="0.0859375"/><stop stop-opacity="1" stop-color="rgb(62.165833%, 98.088074%, 89.572144%)" offset="0.0976562"/><stop stop-opacity="1" stop-color="rgb(62.45575%, 98.005676%, 89.590454%)" offset="0.109375"/><stop stop-opacity="1" stop-color="rgb(62.744141%, 97.923279%, 89.608765%)" offset="0.121094"/><stop stop-opacity="1" stop-color="rgb(63.034058%, 97.839355%, 89.627075%)" offset="0.132812"/><stop stop-opacity="1" stop-color="rgb(63.323975%, 97.756958%, 89.645386%)" offset="0.144531"/><stop stop-opacity="1" stop-color="rgb(63.612366%, 97.674561%, 89.663696%)" offset="0.15625"/><stop stop-opacity="1" stop-color="rgb(63.902283%, 97.592163%, 89.682007%)" offset="0.167969"/><stop stop-opacity="1" stop-color="rgb(64.1922%, 97.509766%, 89.700317%)" offset="0.179688"/><stop stop-opacity="1" stop-color="rgb(64.482117%, 97.425842%, 89.718628%)" offset="0.191406"/><stop stop-opacity="1" stop-color="rgb(64.770508%, 97.343445%, 89.736938%)" offset="0.203125"/><stop stop-opacity="1" stop-color="rgb(65.060425%, 97.261047%, 89.755249%)" offset="0.214844"/><stop stop-opacity="1" stop-color="rgb(65.350342%, 97.17865%, 89.77356%)" offset="0.226562"/><stop stop-opacity="1" stop-color="rgb(65.638733%, 97.094727%, 89.79187%)" offset="0.238281"/><stop stop-opacity="1" stop-color="rgb(65.92865%, 97.012329%, 89.810181%)" offset="0.25"/><stop stop-opacity="1" stop-color="rgb(66.169739%, 96.943665%, 89.826965%)" offset="0.261719"/><stop stop-opacity="1" stop-color="rgb(66.363525%, 96.888733%, 89.839172%)" offset="0.269531"/><stop stop-opacity="1" stop-color="rgb(66.555786%, 96.833801%, 89.851379%)" offset="0.277344"/><stop stop-opacity="1" stop-color="rgb(66.748047%, 96.77887%, 89.863586%)" offset="0.285156"/><stop stop-opacity="1" stop-color="rgb(66.941833%, 96.723938%, 89.875793%)" offset="0.292969"/><stop stop-opacity="1" stop-color="rgb(67.134094%, 96.66748%, 89.888%)" offset="0.300781"/><stop stop-opacity="1" stop-color="rgb(67.327881%, 96.612549%, 89.900208%)" offset="0.308594"/><stop stop-opacity="1" stop-color="rgb(67.520142%, 96.557617%, 89.912415%)" offset="0.316406"/><stop stop-opacity="1" stop-color="rgb(67.713928%, 96.502686%, 89.924622%)" offset="0.324219"/><stop stop-opacity="1" stop-color="rgb(67.906189%, 96.447754%, 89.936829%)" offset="0.332031"/><stop stop-opacity="1" stop-color="rgb(68.099976%, 96.392822%, 89.949036%)" offset="0.339844"/><stop stop-opacity="1" stop-color="rgb(68.292236%, 96.336365%, 89.961243%)" offset="0.347656"/><stop stop-opacity="1" stop-color="rgb(68.486023%, 96.281433%, 89.97345%)" offset="0.355469"/><stop stop-opacity="1" stop-color="rgb(68.678284%, 96.226501%, 89.985657%)" offset="0.363281"/><stop stop-opacity="1" stop-color="rgb(68.87207%, 96.17157%, 89.997864%)" offset="0.371094"/><stop stop-opacity="1" stop-color="rgb(69.160461%, 96.089172%, 90.016174%)" offset="0.378906"/><stop stop-opacity="1" stop-color="rgb(69.546509%, 95.977783%, 90.040588%)" offset="0.394531"/><stop stop-opacity="1" stop-color="rgb(69.932556%, 95.86792%, 90.065002%)" offset="0.410156"/><stop stop-opacity="1" stop-color="rgb(70.318604%, 95.758057%, 90.089417%)" offset="0.425781"/><stop stop-opacity="1" stop-color="rgb(70.704651%, 95.648193%, 90.113831%)" offset="0.441406"/><stop stop-opacity="1" stop-color="rgb(71.090698%, 95.536804%, 90.138245%)" offset="0.457031"/><stop stop-opacity="1" stop-color="rgb(71.476746%, 95.426941%, 90.164185%)" offset="0.472656"/><stop stop-opacity="1" stop-color="rgb(71.862793%, 95.317078%, 90.188599%)" offset="0.488281"/><stop stop-opacity="1" stop-color="rgb(72.200012%, 95.219421%, 90.209961%)" offset="0.503906"/><stop stop-opacity="1" stop-color="rgb(72.489929%, 95.137024%, 90.228271%)" offset="0.515625"/><stop stop-opacity="1" stop-color="rgb(72.779846%, 95.054626%, 90.246582%)" offset="0.527344"/><stop stop-opacity="1" stop-color="rgb(73.068237%, 94.972229%, 90.264893%)" offset="0.539062"/><stop stop-opacity="1" stop-color="rgb(73.358154%, 94.889832%, 90.283203%)" offset="0.550781"/><stop stop-opacity="1" stop-color="rgb(73.648071%, 94.805908%, 90.301514%)" offset="0.5625"/><stop stop-opacity="1" stop-color="rgb(73.936462%, 94.723511%, 90.319824%)" offset="0.574219"/><stop stop-opacity="1" stop-color="rgb(74.226379%, 94.641113%, 90.338135%)" offset="0.585938"/><stop stop-opacity="1" stop-color="rgb(74.516296%, 94.558716%, 90.356445%)" offset="0.597656"/><stop stop-opacity="1" stop-color="rgb(74.804688%, 94.474792%, 90.374756%)" offset="0.609375"/><stop stop-opacity="1" stop-color="rgb(75.094604%, 94.392395%, 90.393066%)" offset="0.621094"/><stop stop-opacity="1" stop-color="rgb(75.335693%, 94.32373%, 90.408325%)" offset="0.632812"/><stop stop-opacity="1" stop-color="rgb(75.52948%, 94.268799%, 90.420532%)" offset="0.640625"/><stop stop-opacity="1" stop-color="rgb(75.721741%, 94.213867%, 90.432739%)" offset="0.648438"/><stop stop-opacity="1" stop-color="rgb(75.914001%, 94.158936%, 90.444946%)" offset="0.65625"/><stop stop-opacity="1" stop-color="rgb(76.107788%, 94.104004%, 90.458679%)" offset="0.664062"/><stop stop-opacity="1" stop-color="rgb(76.300049%, 94.047546%, 90.470886%)" offset="0.671875"/><stop stop-opacity="1" stop-color="rgb(76.493835%, 93.992615%, 90.483093%)" offset="0.679688"/><stop stop-opacity="1" stop-color="rgb(76.686096%, 93.937683%, 90.4953%)" offset="0.6875"/><stop stop-opacity="1" stop-color="rgb(76.976013%, 93.855286%, 90.513611%)" offset="0.695312"/><stop stop-opacity="1" stop-color="rgb(77.362061%, 93.743896%, 90.538025%)" offset="0.710938"/><stop stop-opacity="1" stop-color="rgb(77.748108%, 93.634033%, 90.562439%)" offset="0.726562"/><stop stop-opacity="1" stop-color="rgb(78.134155%, 93.52417%, 90.586853%)" offset="0.742188"/><stop stop-opacity="1" stop-color="rgb(78.471375%, 93.42804%, 90.608215%)" offset="0.757812"/><stop stop-opacity="1" stop-color="rgb(78.761292%, 93.344116%, 90.626526%)" offset="0.769531"/><stop stop-opacity="1" stop-color="rgb(79.051208%, 93.261719%, 90.644836%)" offset="0.78125"/><stop stop-opacity="1" stop-color="rgb(79.3396%, 93.179321%, 90.663147%)" offset="0.792969"/><stop stop-opacity="1" stop-color="rgb(79.629517%, 93.096924%, 90.681458%)" offset="0.804688"/><stop stop-opacity="1" stop-color="rgb(79.870605%, 93.028259%, 90.696716%)" offset="0.816406"/><stop stop-opacity="1" stop-color="rgb(80.062866%, 92.971802%, 90.708923%)" offset="0.824219"/><stop stop-opacity="1" stop-color="rgb(80.256653%, 92.91687%, 90.72113%)" offset="0.832031"/><stop stop-opacity="1" stop-color="rgb(80.448914%, 92.861938%, 90.733337%)" offset="0.839844"/><stop stop-opacity="1" stop-color="rgb(80.738831%, 92.779541%, 90.751648%)" offset="0.847656"/><stop stop-opacity="1" stop-color="rgb(81.124878%, 92.669678%, 90.776062%)" offset="0.863281"/><stop stop-opacity="1" stop-color="rgb(81.462097%, 92.572021%, 90.79895%)" offset="0.878906"/><stop stop-opacity="1" stop-color="rgb(81.752014%, 92.489624%, 90.817261%)" offset="0.890625"/><stop stop-opacity="1" stop-color="rgb(82.041931%, 92.407227%, 90.835571%)" offset="0.902344"/><stop stop-opacity="1" stop-color="rgb(82.28302%, 92.338562%, 90.85083%)" offset="0.914062"/><stop stop-opacity="1" stop-color="rgb(82.475281%, 92.28363%, 90.863037%)" offset="0.921875"/><stop stop-opacity="1" stop-color="rgb(82.765198%, 92.199707%, 90.881348%)" offset="0.929688"/><stop stop-opacity="1" stop-color="rgb(83.102417%, 92.103577%, 90.90271%)" offset="0.945312"/><stop stop-opacity="1" stop-color="rgb(83.343506%, 92.034912%, 90.917969%)" offset="0.957031"/><stop stop-opacity="1" stop-color="rgb(83.633423%, 91.952515%, 90.936279%)" offset="0.964844"/><stop stop-opacity="1" stop-color="rgb(83.92334%, 91.870117%, 90.95459%)" offset="0.980469"/><stop stop-opacity="1" stop-color="rgb(84.164429%, 91.799927%, 90.969849%)" offset="0.988281"/><stop stop-opacity="1" stop-color="rgb(84.309387%, 91.758728%, 90.979004%)" offset="1"/></radialGradient><clipPath id="00b989be37"><rect x="0" width="14" y="0" height="46"/></clipPath><clipPath id="299d116718"><path d="M 13.621094 15.914062 L 29.8125 15.914062 L 29.8125 32.105469 L 13.621094 32.105469 Z M 13.621094 15.914062 " clip-rule="nonzero"/></clipPath><clipPath id="0f213c56d3"><path d="M 21.714844 15.914062 C 17.246094 15.914062 13.621094 19.539062 13.621094 24.011719 C 13.621094 28.480469 17.246094 32.105469 21.714844 32.105469 C 26.1875 32.105469 29.8125 28.480469 29.8125 24.011719 C 29.8125 19.539062 26.1875 15.914062 21.714844 15.914062 Z M 21.714844 15.914062 " clip-rule="nonzero"/></clipPath><clipPath id="b331ac6a20"><path d="M 0.621094 0.914062 L 16.8125 0.914062 L 16.8125 17.105469 L 0.621094 17.105469 Z M 0.621094 0.914062 " clip-rule="nonzero"/></clipPath><clipPath id="4eb1643722"><path d="M 8.714844 0.914062 C 4.246094 0.914062 0.621094 4.539062 0.621094 9.011719 C 0.621094 13.480469 4.246094 17.105469 8.714844 17.105469 C 13.1875 17.105469 16.8125 13.480469 16.8125 9.011719 C 16.8125 4.539062 13.1875 0.914062 8.714844 0.914062 Z M 8.714844 0.914062 " clip-rule="nonzero"/></clipPath><radialGradient gradientTransform="matrix(1, 0, 0, 1, 0.621785, 0.916015)" gradientUnits="userSpaceOnUse" r="22.895128" cx="0" id="79377829ab" cy="0" fx="0" fy="0"><stop stop-opacity="1" stop-color="rgb(59.802246%, 98.764038%, 89.421082%)" offset="0"/><stop stop-opacity="1" stop-color="rgb(60.139465%, 98.667908%, 89.442444%)" offset="0.015625"/><stop stop-opacity="1" stop-color="rgb(60.429382%, 98.583984%, 89.460754%)" offset="0.0273438"/><stop stop-opacity="1" stop-color="rgb(60.719299%, 98.501587%, 89.479065%)" offset="0.0390625"/><stop stop-opacity="1" stop-color="rgb(61.00769%, 98.419189%, 89.497375%)" offset="0.0507812"/><stop stop-opacity="1" stop-color="rgb(61.297607%, 98.336792%, 89.517212%)" offset="0.0625"/><stop stop-opacity="1" stop-color="rgb(61.587524%, 98.254395%, 89.535522%)" offset="0.0742188"/><stop stop-opacity="1" stop-color="rgb(61.875916%, 98.170471%, 89.553833%)" offset="0.0859375"/><stop stop-opacity="1" stop-color="rgb(62.165833%, 98.088074%, 89.572144%)" offset="0.0976562"/><stop stop-opacity="1" stop-color="rgb(62.45575%, 98.005676%, 89.590454%)" offset="0.109375"/><stop stop-opacity="1" stop-color="rgb(62.744141%, 97.923279%, 89.608765%)" offset="0.121094"/><stop stop-opacity="1" stop-color="rgb(63.034058%, 97.839355%, 89.627075%)" offset="0.132812"/><stop stop-opacity="1" stop-color="rgb(63.323975%, 97.756958%, 89.645386%)" offset="0.144531"/><stop stop-opacity="1" stop-color="rgb(63.612366%, 97.674561%, 89.663696%)" offset="0.15625"/><stop stop-opacity="1" stop-color="rgb(63.902283%, 97.592163%, 89.682007%)" offset="0.167969"/><stop stop-opacity="1" stop-color="rgb(64.1922%, 97.509766%, 89.700317%)" offset="0.179688"/><stop stop-opacity="1" stop-color="rgb(64.482117%, 97.425842%, 89.718628%)" offset="0.191406"/><stop stop-opacity="1" stop-color="rgb(64.770508%, 97.343445%, 89.736938%)" offset="0.203125"/><stop stop-opacity="1" stop-color="rgb(65.060425%, 97.261047%, 89.755249%)" offset="0.214844"/><stop stop-opacity="1" stop-color="rgb(65.350342%, 97.17865%, 89.77356%)" offset="0.226562"/><stop stop-opacity="1" stop-color="rgb(65.638733%, 97.094727%, 89.79187%)" offset="0.238281"/><stop stop-opacity="1" stop-color="rgb(65.92865%, 97.012329%, 89.810181%)" offset="0.25"/><stop stop-opacity="1" stop-color="rgb(66.169739%, 96.943665%, 89.826965%)" offset="0.261719"/><stop stop-opacity="1" stop-color="rgb(66.363525%, 96.888733%, 89.839172%)" offset="0.269531"/><stop stop-opacity="1" stop-color="rgb(66.555786%, 96.833801%, 89.851379%)" offset="0.277344"/><stop stop-opacity="1" stop-color="rgb(66.748047%, 96.77887%, 89.863586%)" offset="0.285156"/><stop stop-opacity="1" stop-color="rgb(66.941833%, 96.723938%, 89.875793%)" offset="0.292969"/><stop stop-opacity="1" stop-color="rgb(67.134094%, 96.66748%, 89.888%)" offset="0.300781"/><stop stop-opacity="1" stop-color="rgb(67.327881%, 96.612549%, 89.900208%)" offset="0.308594"/><stop stop-opacity="1" stop-color="rgb(67.520142%, 96.557617%, 89.912415%)" offset="0.316406"/><stop stop-opacity="1" stop-color="rgb(67.713928%, 96.502686%, 89.924622%)" offset="0.324219"/><stop stop-opacity="1" stop-color="rgb(67.906189%, 96.447754%, 89.936829%)" offset="0.332031"/><stop stop-opacity="1" stop-color="rgb(68.099976%, 96.392822%, 89.949036%)" offset="0.339844"/><stop stop-opacity="1" stop-color="rgb(68.292236%, 96.336365%, 89.961243%)" offset="0.347656"/><stop stop-opacity="1" stop-color="rgb(68.486023%, 96.281433%, 89.97345%)" offset="0.355469"/><stop stop-opacity="1" stop-color="rgb(68.678284%, 96.226501%, 89.985657%)" offset="0.363281"/><stop stop-opacity="1" stop-color="rgb(68.87207%, 96.17157%, 89.997864%)" offset="0.371094"/><stop stop-opacity="1" stop-color="rgb(69.160461%, 96.089172%, 90.016174%)" offset="0.378906"/><stop stop-opacity="1" stop-color="rgb(69.546509%, 95.977783%, 90.040588%)" offset="0.394531"/><stop stop-opacity="1" stop-color="rgb(69.932556%, 95.86792%, 90.065002%)" offset="0.410156"/><stop stop-opacity="1" stop-color="rgb(70.318604%, 95.758057%, 90.089417%)" offset="0.425781"/><stop stop-opacity="1" stop-color="rgb(70.704651%, 95.648193%, 90.113831%)" offset="0.441406"/><stop stop-opacity="1" stop-color="rgb(71.090698%, 95.536804%, 90.138245%)" offset="0.457031"/><stop stop-opacity="1" stop-color="rgb(71.476746%, 95.426941%, 90.164185%)" offset="0.472656"/><stop stop-opacity="1" stop-color="rgb(71.862793%, 95.317078%, 90.188599%)" offset="0.488281"/><stop stop-opacity="1" stop-color="rgb(72.200012%, 95.219421%, 90.209961%)" offset="0.503906"/><stop stop-opacity="1" stop-color="rgb(72.489929%, 95.137024%, 90.228271%)" offset="0.515625"/><stop stop-opacity="1" stop-color="rgb(72.779846%, 95.054626%, 90.246582%)" offset="0.527344"/><stop stop-opacity="1" stop-color="rgb(73.068237%, 94.972229%, 90.264893%)" offset="0.539062"/><stop stop-opacity="1" stop-color="rgb(73.358154%, 94.889832%, 90.283203%)" offset="0.550781"/><stop stop-opacity="1" stop-color="rgb(73.648071%, 94.805908%, 90.301514%)" offset="0.5625"/><stop stop-opacity="1" stop-color="rgb(73.936462%, 94.723511%, 90.319824%)" offset="0.574219"/><stop stop-opacity="1" stop-color="rgb(74.226379%, 94.641113%, 90.338135%)" offset="0.585938"/><stop stop-opacity="1" stop-color="rgb(74.516296%, 94.558716%, 90.356445%)" offset="0.597656"/><stop stop-opacity="1" stop-color="rgb(74.804688%, 94.474792%, 90.374756%)" offset="0.609375"/><stop stop-opacity="1" stop-color="rgb(75.094604%, 94.392395%, 90.393066%)" offset="0.621094"/><stop stop-opacity="1" stop-color="rgb(75.335693%, 94.32373%, 90.408325%)" offset="0.632812"/><stop stop-opacity="1" stop-color="rgb(75.52948%, 94.268799%, 90.420532%)" offset="0.640625"/><stop stop-opacity="1" stop-color="rgb(75.721741%, 94.213867%, 90.432739%)" offset="0.648438"/><stop stop-opacity="1" stop-color="rgb(75.914001%, 94.158936%, 90.444946%)" offset="0.65625"/><stop stop-opacity="1" stop-color="rgb(76.107788%, 94.104004%, 90.458679%)" offset="0.664062"/><stop stop-opacity="1" stop-color="rgb(76.300049%, 94.047546%, 90.470886%)" offset="0.671875"/><stop stop-opacity="1" stop-color="rgb(76.493835%, 93.992615%, 90.483093%)" offset="0.679688"/><stop stop-opacity="1" stop-color="rgb(76.686096%, 93.937683%, 90.4953%)" offset="0.6875"/><stop stop-opacity="1" stop-color="rgb(76.976013%, 93.855286%, 90.513611%)" offset="0.695312"/><stop stop-opacity="1" stop-color="rgb(77.362061%, 93.743896%, 90.538025%)" offset="0.710938"/><stop stop-opacity="1" stop-color="rgb(77.748108%, 93.634033%, 90.562439%)" offset="0.726562"/><stop stop-opacity="1" stop-color="rgb(78.134155%, 93.52417%, 90.586853%)" offset="0.742188"/><stop stop-opacity="1" stop-color="rgb(78.471375%, 93.42804%, 90.608215%)" offset="0.757812"/><stop stop-opacity="1" stop-color="rgb(78.761292%, 93.344116%, 90.626526%)" offset="0.769531"/><stop stop-opacity="1" stop-color="rgb(79.051208%, 93.261719%, 90.644836%)" offset="0.78125"/><stop stop-opacity="1" stop-color="rgb(79.3396%, 93.179321%, 90.663147%)" offset="0.792969"/><stop stop-opacity="1" stop-color="rgb(79.629517%, 93.096924%, 90.681458%)" offset="0.804688"/><stop stop-opacity="1" stop-color="rgb(79.870605%, 93.028259%, 90.696716%)" offset="0.816406"/><stop stop-opacity="1" stop-color="rgb(80.062866%, 92.971802%, 90.708923%)" offset="0.824219"/><stop stop-opacity="1" stop-color="rgb(80.256653%, 92.91687%, 90.72113%)" offset="0.832031"/><stop stop-opacity="1" stop-color="rgb(80.448914%, 92.861938%, 90.733337%)" offset="0.839844"/><stop stop-opacity="1" stop-color="rgb(80.738831%, 92.779541%, 90.751648%)" offset="0.847656"/><stop stop-opacity="1" stop-color="rgb(81.124878%, 92.669678%, 90.776062%)" offset="0.863281"/><stop stop-opacity="1" stop-color="rgb(81.462097%, 92.572021%, 90.79895%)" offset="0.878906"/><stop stop-opacity="1" stop-color="rgb(81.752014%, 92.489624%, 90.817261%)" offset="0.890625"/><stop stop-opacity="1" stop-color="rgb(82.041931%, 92.407227%, 90.835571%)" offset="0.902344"/><stop stop-opacity="1" stop-color="rgb(82.28302%, 92.338562%, 90.85083%)" offset="0.914062"/><stop stop-opacity="1" stop-color="rgb(82.475281%, 92.28363%, 90.863037%)" offset="0.921875"/><stop stop-opacity="1" stop-color="rgb(82.765198%, 92.199707%, 90.881348%)" offset="0.929688"/><stop stop-opacity="1" stop-color="rgb(83.102417%, 92.103577%, 90.90271%)" offset="0.945312"/><stop stop-opacity="1" stop-color="rgb(83.343506%, 92.034912%, 90.917969%)" offset="0.957031"/><stop stop-opacity="1" stop-color="rgb(83.633423%, 91.952515%, 90.936279%)" offset="0.964844"/><stop stop-opacity="1" stop-color="rgb(83.92334%, 91.870117%, 90.95459%)" offset="0.980469"/><stop stop-opacity="1" stop-color="rgb(84.164429%, 91.799927%, 90.969849%)" offset="0.988281"/><stop stop-opacity="1" stop-color="rgb(84.309387%, 91.758728%, 90.979004%)" offset="1"/></radialGradient><clipPath id="b4488bec54"><rect x="0" width="17" y="0" height="18"/></clipPath><clipPath id="4094847dba"><path d="M 29.8125 1.0625 L 42.472656 1.0625 L 42.472656 47 L 29.8125 47 Z M 29.8125 1.0625 " clip-rule="nonzero"/></clipPath><clipPath id="3a8822f7e6"><path d="M 36.140625 1.0625 C 39.636719 1.0625 42.472656 3.898438 42.472656 7.394531 L 42.472656 40.628906 C 42.472656 44.125 39.636719 46.957031 36.140625 46.957031 C 32.644531 46.957031 29.8125 44.125 29.8125 40.628906 L 29.8125 7.394531 C 29.8125 3.898438 32.644531 1.0625 36.140625 1.0625 Z M 36.140625 1.0625 " clip-rule="nonzero"/></clipPath><clipPath id="dea3437c30"><path d="M 0.8125 0.0625 L 13.472656 0.0625 L 13.472656 45.957031 L 0.8125 45.957031 Z M 0.8125 0.0625 " clip-rule="nonzero"/></clipPath><clipPath id="0c0c9e8ca4"><path d="M 7.140625 0.0625 C 10.636719 0.0625 13.472656 2.898438 13.472656 6.394531 L 13.472656 39.628906 C 13.472656 43.125 10.636719 45.957031 7.140625 45.957031 C 3.644531 45.957031 0.8125 43.125 0.8125 39.628906 L 0.8125 6.394531 C 0.8125 2.898438 3.644531 0.0625 7.140625 0.0625 Z M 7.140625 0.0625 " clip-rule="nonzero"/></clipPath><radialGradient gradientTransform="matrix(1, 0, 0, 1, 0.811061, 0.0634776)" gradientUnits="userSpaceOnUse" r="47.608425" cx="0" id="bc08b313c2" cy="0" fx="0" fy="0"><stop stop-opacity="1" stop-color="rgb(59.802246%, 98.764038%, 89.421082%)" offset="0"/><stop stop-opacity="1" stop-color="rgb(60.139465%, 98.667908%, 89.442444%)" offset="0.015625"/><stop stop-opacity="1" stop-color="rgb(60.429382%, 98.583984%, 89.460754%)" offset="0.0273438"/><stop stop-opacity="1" stop-color="rgb(60.719299%, 98.501587%, 89.479065%)" offset="0.0390625"/><stop stop-opacity="1" stop-color="rgb(61.00769%, 98.419189%, 89.497375%)" offset="0.0507812"/><stop stop-opacity="1" stop-color="rgb(61.297607%, 98.336792%, 89.517212%)" offset="0.0625"/><stop stop-opacity="1" stop-color="rgb(61.587524%, 98.254395%, 89.535522%)" offset="0.0742188"/><stop stop-opacity="1" stop-color="rgb(61.875916%, 98.170471%, 89.553833%)" offset="0.0859375"/><stop stop-opacity="1" stop-color="rgb(62.165833%, 98.088074%, 89.572144%)" offset="0.0976562"/><stop stop-opacity="1" stop-color="rgb(62.45575%, 98.005676%, 89.590454%)" offset="0.109375"/><stop stop-opacity="1" stop-color="rgb(62.744141%, 97.923279%, 89.608765%)" offset="0.121094"/><stop stop-opacity="1" stop-color="rgb(63.034058%, 97.839355%, 89.627075%)" offset="0.132812"/><stop stop-opacity="1" stop-color="rgb(63.323975%, 97.756958%, 89.645386%)" offset="0.144531"/><stop stop-opacity="1" stop-color="rgb(63.612366%, 97.674561%, 89.663696%)" offset="0.15625"/><stop stop-opacity="1" stop-color="rgb(63.902283%, 97.592163%, 89.682007%)" offset="0.167969"/><stop stop-opacity="1" stop-color="rgb(64.1922%, 97.509766%, 89.700317%)" offset="0.179688"/><stop stop-opacity="1" stop-color="rgb(64.482117%, 97.425842%, 89.718628%)" offset="0.191406"/><stop stop-opacity="1" stop-color="rgb(64.770508%, 97.343445%, 89.736938%)" offset="0.203125"/><stop stop-opacity="1" stop-color="rgb(65.060425%, 97.261047%, 89.755249%)" offset="0.214844"/><stop stop-opacity="1" stop-color="rgb(65.350342%, 97.17865%, 89.77356%)" offset="0.226562"/><stop stop-opacity="1" stop-color="rgb(65.638733%, 97.094727%, 89.79187%)" offset="0.238281"/><stop stop-opacity="1" stop-color="rgb(65.92865%, 97.012329%, 89.810181%)" offset="0.25"/><stop stop-opacity="1" stop-color="rgb(66.169739%, 96.943665%, 89.826965%)" offset="0.261719"/><stop stop-opacity="1" stop-color="rgb(66.363525%, 96.888733%, 89.839172%)" offset="0.269531"/><stop stop-opacity="1" stop-color="rgb(66.555786%, 96.833801%, 89.851379%)" offset="0.277344"/><stop stop-opacity="1" stop-color="rgb(66.748047%, 96.77887%, 89.863586%)" offset="0.285156"/><stop stop-opacity="1" stop-color="rgb(66.941833%, 96.723938%, 89.875793%)" offset="0.292969"/><stop stop-opacity="1" stop-color="rgb(67.134094%, 96.66748%, 89.888%)" offset="0.300781"/><stop stop-opacity="1" stop-color="rgb(67.327881%, 96.612549%, 89.900208%)" offset="0.308594"/><stop stop-opacity="1" stop-color="rgb(67.520142%, 96.557617%, 89.912415%)" offset="0.316406"/><stop stop-opacity="1" stop-color="rgb(67.713928%, 96.502686%, 89.924622%)" offset="0.324219"/><stop stop-opacity="1" stop-color="rgb(67.906189%, 96.447754%, 89.936829%)" offset="0.332031"/><stop stop-opacity="1" stop-color="rgb(68.099976%, 96.392822%, 89.949036%)" offset="0.339844"/><stop stop-opacity="1" stop-color="rgb(68.292236%, 96.336365%, 89.961243%)" offset="0.347656"/><stop stop-opacity="1" stop-color="rgb(68.486023%, 96.281433%, 89.97345%)" offset="0.355469"/><stop stop-opacity="1" stop-color="rgb(68.678284%, 96.226501%, 89.985657%)" offset="0.363281"/><stop stop-opacity="1" stop-color="rgb(68.87207%, 96.17157%, 89.997864%)" offset="0.371094"/><stop stop-opacity="1" stop-color="rgb(69.160461%, 96.089172%, 90.016174%)" offset="0.378906"/><stop stop-opacity="1" stop-color="rgb(69.546509%, 95.977783%, 90.040588%)" offset="0.394531"/><stop stop-opacity="1" stop-color="rgb(69.932556%, 95.86792%, 90.065002%)" offset="0.410156"/><stop stop-opacity="1" stop-color="rgb(70.318604%, 95.758057%, 90.089417%)" offset="0.425781"/><stop stop-opacity="1" stop-color="rgb(70.704651%, 95.648193%, 90.113831%)" offset="0.441406"/><stop stop-opacity="1" stop-color="rgb(71.090698%, 95.536804%, 90.138245%)" offset="0.457031"/><stop stop-opacity="1" stop-color="rgb(71.476746%, 95.426941%, 90.164185%)" offset="0.472656"/><stop stop-opacity="1" stop-color="rgb(71.862793%, 95.317078%, 90.188599%)" offset="0.488281"/><stop stop-opacity="1" stop-color="rgb(72.200012%, 95.219421%, 90.209961%)" offset="0.503906"/><stop stop-opacity="1" stop-color="rgb(72.489929%, 95.137024%, 90.228271%)" offset="0.515625"/><stop stop-opacity="1" stop-color="rgb(72.779846%, 95.054626%, 90.246582%)" offset="0.527344"/><stop stop-opacity="1" stop-color="rgb(73.068237%, 94.972229%, 90.264893%)" offset="0.539062"/><stop stop-opacity="1" stop-color="rgb(73.358154%, 94.889832%, 90.283203%)" offset="0.550781"/><stop stop-opacity="1" stop-color="rgb(73.648071%, 94.805908%, 90.301514%)" offset="0.5625"/><stop stop-opacity="1" stop-color="rgb(73.936462%, 94.723511%, 90.319824%)" offset="0.574219"/><stop stop-opacity="1" stop-color="rgb(74.226379%, 94.641113%, 90.338135%)" offset="0.585938"/><stop stop-opacity="1" stop-color="rgb(74.516296%, 94.558716%, 90.356445%)" offset="0.597656"/><stop stop-opacity="1" stop-color="rgb(74.804688%, 94.474792%, 90.374756%)" offset="0.609375"/><stop stop-opacity="1" stop-color="rgb(75.094604%, 94.392395%, 90.393066%)" offset="0.621094"/><stop stop-opacity="1" stop-color="rgb(75.335693%, 94.32373%, 90.408325%)" offset="0.632812"/><stop stop-opacity="1" stop-color="rgb(75.52948%, 94.268799%, 90.420532%)" offset="0.640625"/><stop stop-opacity="1" stop-color="rgb(75.721741%, 94.213867%, 90.432739%)" offset="0.648438"/><stop stop-opacity="1" stop-color="rgb(75.914001%, 94.158936%, 90.444946%)" offset="0.65625"/><stop stop-opacity="1" stop-color="rgb(76.107788%, 94.104004%, 90.458679%)" offset="0.664062"/><stop stop-opacity="1" stop-color="rgb(76.300049%, 94.047546%, 90.470886%)" offset="0.671875"/><stop stop-opacity="1" stop-color="rgb(76.493835%, 93.992615%, 90.483093%)" offset="0.679688"/><stop stop-opacity="1" stop-color="rgb(76.686096%, 93.937683%, 90.4953%)" offset="0.6875"/><stop stop-opacity="1" stop-color="rgb(76.976013%, 93.855286%, 90.513611%)" offset="0.695312"/><stop stop-opacity="1" stop-color="rgb(77.362061%, 93.743896%, 90.538025%)" offset="0.710938"/><stop stop-opacity="1" stop-color="rgb(77.748108%, 93.634033%, 90.562439%)" offset="0.726562"/><stop stop-opacity="1" stop-color="rgb(78.134155%, 93.52417%, 90.586853%)" offset="0.742188"/><stop stop-opacity="1" stop-color="rgb(78.471375%, 93.42804%, 90.608215%)" offset="0.757812"/><stop stop-opacity="1" stop-color="rgb(78.761292%, 93.344116%, 90.626526%)" offset="0.769531"/><stop stop-opacity="1" stop-color="rgb(79.051208%, 93.261719%, 90.644836%)" offset="0.78125"/><stop stop-opacity="1" stop-color="rgb(79.3396%, 93.179321%, 90.663147%)" offset="0.792969"/><stop stop-opacity="1" stop-color="rgb(79.629517%, 93.096924%, 90.681458%)" offset="0.804688"/><stop stop-opacity="1" stop-color="rgb(79.870605%, 93.028259%, 90.696716%)" offset="0.816406"/><stop stop-opacity="1" stop-color="rgb(80.062866%, 92.971802%, 90.708923%)" offset="0.824219"/><stop stop-opacity="1" stop-color="rgb(80.256653%, 92.91687%, 90.72113%)" offset="0.832031"/><stop stop-opacity="1" stop-color="rgb(80.448914%, 92.861938%, 90.733337%)" offset="0.839844"/><stop stop-opacity="1" stop-color="rgb(80.738831%, 92.779541%, 90.751648%)" offset="0.847656"/><stop stop-opacity="1" stop-color="rgb(81.124878%, 92.669678%, 90.776062%)" offset="0.863281"/><stop stop-opacity="1" stop-color="rgb(81.462097%, 92.572021%, 90.79895%)" offset="0.878906"/><stop stop-opacity="1" stop-color="rgb(81.752014%, 92.489624%, 90.817261%)" offset="0.890625"/><stop stop-opacity="1" stop-color="rgb(82.041931%, 92.407227%, 90.835571%)" offset="0.902344"/><stop stop-opacity="1" stop-color="rgb(82.28302%, 92.338562%, 90.85083%)" offset="0.914062"/><stop stop-opacity="1" stop-color="rgb(82.475281%, 92.28363%, 90.863037%)" offset="0.921875"/><stop stop-opacity="1" stop-color="rgb(82.765198%, 92.199707%, 90.881348%)" offset="0.929688"/><stop stop-opacity="1" stop-color="rgb(83.102417%, 92.103577%, 90.90271%)" offset="0.945312"/><stop stop-opacity="1" stop-color="rgb(83.343506%, 92.034912%, 90.917969%)" offset="0.957031"/><stop stop-opacity="1" stop-color="rgb(83.633423%, 91.952515%, 90.936279%)" offset="0.964844"/><stop stop-opacity="1" stop-color="rgb(83.92334%, 91.870117%, 90.95459%)" offset="0.980469"/><stop stop-opacity="1" stop-color="rgb(84.164429%, 91.799927%, 90.969849%)" offset="0.988281"/><stop stop-opacity="1" stop-color="rgb(84.309387%, 91.758728%, 90.979004%)" offset="1"/></radialGradient><clipPath id="e767c1609e"><rect x="0" width="14" y="0" height="46"/></clipPath><clipPath id="2c97bc251a"><rect x="0" width="263" y="0" height="48"/></clipPath></defs><g transform="matrix(1, 0, 0, 1, 19, 18)"><g clip-path="url(#2c97bc251a)"><g fill="#072723" fill-opacity="1"><g transform="translate(51.593209, 37.643043)"><g><path d="M 8.78125 0 L 3.453125 0 L 3.453125 -29.046875 L 8.78125 -29.046875 L 8.78125 -17 L 23.421875 -17 L 23.421875 -29.046875 L 28.765625 -29.046875 L 28.765625 0 L 23.421875 0 L 23.421875 -12.25 L 8.78125 -12.25 Z M 8.78125 0 "/></g></g></g><g fill="#072723" fill-opacity="1"><g transform="translate(80.446261, 37.643043)"><g><path d="M 4.734375 7.5 L 1.046875 7.5 L 1.046875 3.21875 L 4.703125 3.21875 C 5.460938 3.21875 6.085938 3.09375 6.578125 2.84375 C 7.078125 2.601562 7.492188 2.222656 7.828125 1.703125 C 8.171875 1.191406 8.492188 0.53125 8.796875 -0.28125 L 9.046875 -1.03125 L 0.640625 -21.953125 L 6.09375 -21.953125 L 11.25 -8.671875 L 11.8125 -6.40625 L 12.390625 -8.65625 L 17.46875 -21.9375 L 22.984375 -21.953125 L 14.421875 -0.484375 C 13.773438 1.148438 13.128906 2.488281 12.484375 3.53125 C 11.847656 4.582031 11.160156 5.394531 10.421875 5.96875 C 9.691406 6.539062 8.867188 6.9375 7.953125 7.15625 C 7.035156 7.382812 5.960938 7.5 4.734375 7.5 Z M 4.734375 7.5 "/></g></g></g><g fill="#072723" fill-opacity="1"><g transform="translate(100.24592, 37.643043)"><g><path d="M 8.203125 7.5 L 3.03125 7.5 L 3.03125 -21.953125 L 7.9375 -21.953125 L 7.9375 -18.265625 C 8.738281 -19.585938 9.800781 -20.640625 11.125 -21.421875 C 12.445312 -22.203125 13.898438 -22.59375 15.484375 -22.59375 C 17.046875 -22.59375 18.476562 -22.289062 19.78125 -21.6875 C 21.082031 -21.082031 22.207031 -20.25 23.15625 -19.1875 C 24.113281 -18.125 24.859375 -16.890625 25.390625 -15.484375 C 25.921875 -14.085938 26.1875 -12.582031 26.1875 -10.96875 C 26.1875 -9.363281 25.921875 -7.851562 25.390625 -6.4375 C 24.859375 -5.03125 24.113281 -3.789062 23.15625 -2.71875 C 22.195312 -1.65625 21.070312 -0.828125 19.78125 -0.234375 C 18.5 0.359375 17.085938 0.65625 15.546875 0.65625 C 14.472656 0.65625 13.457031 0.476562 12.5 0.125 C 11.550781 -0.21875 10.695312 -0.703125 9.9375 -1.328125 C 9.1875 -1.960938 8.570312 -2.703125 8.09375 -3.546875 L 8.203125 -1 Z M 14.609375 -4.09375 C 15.773438 -4.09375 16.84375 -4.367188 17.8125 -4.921875 C 18.789062 -5.484375 19.578125 -6.28125 20.171875 -7.3125 C 20.765625 -8.34375 21.0625 -9.5625 21.0625 -10.96875 C 21.0625 -12.351562 20.765625 -13.554688 20.171875 -14.578125 C 19.585938 -15.609375 18.804688 -16.40625 17.828125 -16.96875 C 16.859375 -17.539062 15.773438 -17.828125 14.578125 -17.828125 C 13.679688 -17.828125 12.84375 -17.648438 12.0625 -17.296875 C 11.289062 -16.953125 10.609375 -16.46875 10.015625 -15.84375 C 9.429688 -15.21875 8.972656 -14.488281 8.640625 -13.65625 C 8.304688 -12.832031 8.140625 -11.9375 8.140625 -10.96875 C 8.140625 -9.976562 8.304688 -9.0625 8.640625 -8.21875 C 8.984375 -7.382812 9.453125 -6.65625 10.046875 -6.03125 C 10.648438 -5.414062 11.34375 -4.9375 12.125 -4.59375 C 12.90625 -4.257812 13.734375 -4.09375 14.609375 -4.09375 Z M 14.609375 -4.09375 "/></g></g></g><g fill="#072723" fill-opacity="1"><g transform="translate(124.529571, 37.643043)"><g><path d="M 23.921875 -11.359375 C 23.921875 -11.085938 23.910156 -10.832031 23.890625 -10.59375 C 23.878906 -10.351562 23.851562 -10.023438 23.8125 -9.609375 L 6.65625 -9.609375 C 6.84375 -8.410156 7.222656 -7.390625 7.796875 -6.546875 C 8.378906 -5.710938 9.097656 -5.070312 9.953125 -4.625 C 10.804688 -4.175781 11.738281 -3.953125 12.75 -3.953125 C 14.0625 -3.953125 15.117188 -4.210938 15.921875 -4.734375 C 16.734375 -5.253906 17.328125 -5.972656 17.703125 -6.890625 L 23.34375 -6.890625 C 23.070312 -5.910156 22.625 -4.960938 22 -4.046875 C 21.382812 -3.140625 20.628906 -2.332031 19.734375 -1.625 C 18.835938 -0.925781 17.804688 -0.375 16.640625 0.03125 C 15.484375 0.445312 14.222656 0.65625 12.859375 0.65625 C 11.203125 0.65625 9.679688 0.351562 8.296875 -0.25 C 6.910156 -0.851562 5.707031 -1.6875 4.6875 -2.75 C 3.664062 -3.820312 2.875 -5.0625 2.3125 -6.46875 C 1.75 -7.875 1.46875 -9.375 1.46875 -10.96875 C 1.46875 -12.582031 1.75 -14.085938 2.3125 -15.484375 C 2.875 -16.890625 3.664062 -18.125 4.6875 -19.1875 C 5.707031 -20.257812 6.910156 -21.097656 8.296875 -21.703125 C 9.679688 -22.304688 11.203125 -22.609375 12.859375 -22.609375 C 14.503906 -22.609375 16.003906 -22.3125 17.359375 -21.71875 C 18.722656 -21.125 19.894531 -20.300781 20.875 -19.25 C 21.851562 -18.207031 22.601562 -17.007812 23.125 -15.65625 C 23.65625 -14.300781 23.921875 -12.867188 23.921875 -11.359375 Z M 6.875 -13.609375 L 18.640625 -13.609375 C 18.566406 -14.429688 18.257812 -15.179688 17.71875 -15.859375 C 17.175781 -16.535156 16.476562 -17.078125 15.625 -17.484375 C 14.769531 -17.898438 13.835938 -18.109375 12.828125 -18.109375 C 11.960938 -18.109375 11.128906 -17.945312 10.328125 -17.625 C 9.535156 -17.300781 8.835938 -16.804688 8.234375 -16.140625 C 7.628906 -15.484375 7.175781 -14.640625 6.875 -13.609375 Z M 6.875 -13.609375 "/></g></g></g><g fill="#072723" fill-opacity="1"><g transform="translate(146.250939, 37.643043)"><g><path d="M 8.203125 0 L 3.03125 0 L 3.03125 -21.953125 L 7.984375 -21.953125 L 7.984375 -17.984375 C 8.492188 -19.191406 9.25 -20.15625 10.25 -20.875 C 11.25 -21.59375 12.457031 -21.953125 13.875 -21.953125 L 16.234375 -21.953125 L 16.234375 -17.515625 L 14.15625 -17.515625 C 12.976562 -17.515625 11.9375 -17.226562 11.03125 -16.65625 C 10.132812 -16.082031 9.4375 -15.253906 8.9375 -14.171875 C 8.445312 -13.097656 8.203125 -11.773438 8.203125 -10.203125 Z M 8.203125 0 "/></g></g></g><g fill="#072723" fill-opacity="1"><g transform="translate(159.773008, 37.643043)"><g><path d="M 8.78125 0 L 3.453125 0 L 3.453125 -29.046875 L 8.78125 -29.046875 Z M 8.78125 0 "/></g></g></g><g fill="#072723" fill-opacity="1"><g transform="translate(168.618907, 37.643043)"><g><path d="M 8.203125 0 L 3.03125 0 L 3.03125 -21.953125 L 7.9375 -21.953125 L 7.9375 -18.53125 C 8.363281 -19.332031 8.945312 -20.035156 9.6875 -20.640625 C 10.4375 -21.253906 11.300781 -21.734375 12.28125 -22.078125 C 13.257812 -22.429688 14.3125 -22.609375 15.4375 -22.609375 C 18.382812 -22.609375 20.59375 -21.671875 22.0625 -19.796875 C 23.53125 -17.929688 24.265625 -15.273438 24.265625 -11.828125 L 24.265625 0 L 19.09375 0 L 19.09375 -11.71875 C 19.09375 -13.894531 18.632812 -15.460938 17.71875 -16.421875 C 16.8125 -17.378906 15.578125 -17.859375 14.015625 -17.859375 C 13.003906 -17.859375 12.054688 -17.597656 11.171875 -17.078125 C 10.285156 -16.566406 9.566406 -15.820312 9.015625 -14.84375 C 8.472656 -13.863281 8.203125 -12.65625 8.203125 -11.21875 Z M 8.203125 0 "/></g></g></g><g fill="#072723" fill-opacity="1"><g transform="translate(192.368743, 37.643043)"><g><path d="M 12.09375 0.65625 C 10.539062 0.65625 9.109375 0.359375 7.796875 -0.234375 C 6.492188 -0.828125 5.375 -1.65625 4.4375 -2.71875 C 3.5 -3.789062 2.769531 -5.03125 2.25 -6.4375 C 1.726562 -7.851562 1.46875 -9.363281 1.46875 -10.96875 C 1.46875 -12.582031 1.71875 -14.085938 2.21875 -15.484375 C 2.726562 -16.890625 3.457031 -18.125 4.40625 -19.1875 C 5.351562 -20.257812 6.484375 -21.097656 7.796875 -21.703125 C 9.109375 -22.304688 10.5625 -22.609375 12.15625 -22.609375 C 13.34375 -22.609375 14.425781 -22.398438 15.40625 -21.984375 C 16.382812 -21.566406 17.222656 -21.03125 17.921875 -20.375 C 18.628906 -19.726562 19.175781 -19.054688 19.5625 -18.359375 L 19.453125 -20.65625 L 19.453125 -30.0625 L 24.59375 -30.0625 L 24.59375 0 L 19.6875 0 L 19.6875 -3.6875 C 19.257812 -2.925781 18.679688 -2.210938 17.953125 -1.546875 C 17.234375 -0.890625 16.378906 -0.359375 15.390625 0.046875 C 14.410156 0.453125 13.3125 0.65625 12.09375 0.65625 Z M 13.03125 -4.09375 C 13.925781 -4.09375 14.765625 -4.265625 15.546875 -4.609375 C 16.328125 -4.960938 17.015625 -5.453125 17.609375 -6.078125 C 18.203125 -6.710938 18.664062 -7.445312 19 -8.28125 C 19.332031 -9.113281 19.5 -10.007812 19.5 -10.96875 C 19.5 -11.9375 19.332031 -12.832031 19 -13.65625 C 18.675781 -14.488281 18.21875 -15.21875 17.625 -15.84375 C 17.03125 -16.46875 16.34375 -16.953125 15.5625 -17.296875 C 14.78125 -17.648438 13.9375 -17.828125 13.03125 -17.828125 C 11.820312 -17.828125 10.722656 -17.53125 9.734375 -16.9375 C 8.753906 -16.351562 7.976562 -15.546875 7.40625 -14.515625 C 6.84375 -13.492188 6.5625 -12.3125 6.5625 -10.96875 C 6.5625 -9.675781 6.835938 -8.507812 7.390625 -7.46875 C 7.941406 -6.4375 8.703125 -5.613281 9.671875 -5 C 10.648438 -4.394531 11.769531 -4.09375 13.03125 -4.09375 Z M 13.03125 -4.09375 "/></g></g></g><g fill="#072723" fill-opacity="1"><g transform="translate(216.609689, 37.643043)"><g><path d="M 23.921875 -11.359375 C 23.921875 -11.085938 23.910156 -10.832031 23.890625 -10.59375 C 23.878906 -10.351562 23.851562 -10.023438 23.8125 -9.609375 L 6.65625 -9.609375 C 6.84375 -8.410156 7.222656 -7.390625 7.796875 -6.546875 C 8.378906 -5.710938 9.097656 -5.070312 9.953125 -4.625 C 10.804688 -4.175781 11.738281 -3.953125 12.75 -3.953125 C 14.0625 -3.953125 15.117188 -4.210938 15.921875 -4.734375 C 16.734375 -5.253906 17.328125 -5.972656 17.703125 -6.890625 L 23.34375 -6.890625 C 23.070312 -5.910156 22.625 -4.960938 22 -4.046875 C 21.382812 -3.140625 20.628906 -2.332031 19.734375 -1.625 C 18.835938 -0.925781 17.804688 -0.375 16.640625 0.03125 C 15.484375 0.445312 14.222656 0.65625 12.859375 0.65625 C 11.203125 0.65625 9.679688 0.351562 8.296875 -0.25 C 6.910156 -0.851562 5.707031 -1.6875 4.6875 -2.75 C 3.664062 -3.820312 2.875 -5.0625 2.3125 -6.46875 C 1.75 -7.875 1.46875 -9.375 1.46875 -10.96875 C 1.46875 -12.582031 1.75 -14.085938 2.3125 -15.484375 C 2.875 -16.890625 3.664062 -18.125 4.6875 -19.1875 C 5.707031 -20.257812 6.910156 -21.097656 8.296875 -21.703125 C 9.679688 -22.304688 11.203125 -22.609375 12.859375 -22.609375 C 14.503906 -22.609375 16.003906 -22.3125 17.359375 -21.71875 C 18.722656 -21.125 19.894531 -20.300781 20.875 -19.25 C 21.851562 -18.207031 22.601562 -17.007812 23.125 -15.65625 C 23.65625 -14.300781 23.921875 -12.867188 23.921875 -11.359375 Z M 6.875 -13.609375 L 18.640625 -13.609375 C 18.566406 -14.429688 18.257812 -15.179688 17.71875 -15.859375 C 17.175781 -16.535156 16.476562 -17.078125 15.625 -17.484375 C 14.769531 -17.898438 13.835938 -18.109375 12.828125 -18.109375 C 11.960938 -18.109375 11.128906 -17.945312 10.328125 -17.625 C 9.535156 -17.300781 8.835938 -16.804688 8.234375 -16.140625 C 7.628906 -15.484375 7.175781 -14.640625 6.875 -13.609375 Z M 6.875 -13.609375 "/></g></g></g><g fill="#072723" fill-opacity="1"><g transform="translate(238.331058, 37.643043)"><g><path d="M 6.53125 0 L 0.5625 0 L 7.8125 -11.3125 L 0.828125 -21.953125 L 6.890625 -21.953125 L 11.40625 -14.734375 L 11.421875 -14.734375 L 15.9375 -21.953125 L 21.96875 -21.953125 L 15.015625 -11.3125 L 22.296875 0 L 16.171875 0 L 11.359375 -7.703125 Z M 6.53125 0 "/></g></g></g><g clip-path="url(#72c9401b3d)"><g clip-path="url(#293145c826)"><g transform="matrix(1, 0, 0, 1, 0, 1)"><g clip-path="url(#00b989be37)"><g clip-path="url(#3c760b9b72)"><g clip-path="url(#a2b1f071ad)"><path fill="url(#bafd10d822)" d="M 0.960938 0.0625 L 0.960938 45.957031 L 13.621094 45.957031 L 13.621094 0.0625 Z M 0.960938 0.0625 " fill-rule="nonzero"/></g></g></g></g></g></g><g clip-path="url(#299d116718)"><g clip-path="url(#0f213c56d3)"><g transform="matrix(1, 0, 0, 1, 13, 15)"><g clip-path="url(#b4488bec54)"><g clip-path="url(#b331ac6a20)"><g clip-path="url(#4eb1643722)"><path fill="url(#79377829ab)" d="M 0.621094 0.914062 L 0.621094 17.105469 L 16.8125 17.105469 L 16.8125 0.914062 Z M 0.621094 0.914062 " fill-rule="nonzero"/></g></g></g></g></g></g><g clip-path="url(#4094847dba)"><g clip-path="url(#3a8822f7e6)"><g transform="matrix(1, 0, 0, 1, 29, 1)"><g clip-path="url(#e767c1609e)"><g clip-path="url(#dea3437c30)"><g clip-path="url(#0c0c9e8ca4)"><path fill="url(#bc08b313c2)" d="M 0.8125 0.0625 L 0.8125 45.957031 L 13.472656 45.957031 L 13.472656 0.0625 Z M 0.8125 0.0625 " fill-rule="nonzero"/></g></g></g></g></g></g></g></g></svg>