<svg width="1563" height="1563" version="1.1" xmlns="http://www.w3.org/2000/svg" desc="Created with imagetracer.js version 1.2.6" ><path fill="rgb(207,244,235)" stroke="rgb(207,244,235)" stroke-width="1" opacity="1" d="M 186.5 672 Q 188.3 674.8 194.5 673 L 201.5 676 L 211 684.5 L 216 695.5 L 216 868.5 Q 212.3 879.8 203.5 886 Q 196.3 891.3 183.5 891 Q 168 888.5 161 877.5 L 157 868.5 L 157 694.5 Q 160.1 683.6 168.5 678 L 175.5 674 L 186.5 672 Z " /><path fill="rgb(207,244,235)" stroke="rgb(207,244,235)" stroke-width="1" opacity="1" d="M 315.5 673 L 332.5 673 Q 341.3 676.3 347 682.5 Q 352.3 688.2 354 697.5 L 354 865.5 Q 351.6 877.6 343.5 884 L 332.5 890 L 321.5 891 L 308.5 887 L 300 879.5 L 294 866.5 L 293.5 782 Q 293.9 790.9 291 796.5 L 283 809 L 268.5 818 L 260.5 820 L 249.5 820 Q 232.4 816.6 224 804.5 Q 218.9 798.1 217 788.5 L 217 774.5 Q 220.5 759 231.5 751 Q 240.6 742.1 259.5 743 L 268.5 745 L 283 754 L 291 766.5 Q 293.9 772.1 293.5 781 L 294 696.5 Q 296.8 685.3 304.5 679 L 315.5 673 Z " /><path fill="rgb(207,244,235)" stroke="rgb(207,244,235)" stroke-width="1" opacity="1" d="M 1203 690 L 1220.5 690 L 1221 690.5 L 1221 833 L 1204 833 L 1204 812.5 L 1203 812.5 Q 1199 821.5 1191.5 827 L 1175.5 835 L 1157.5 836 Q 1134.9 832.1 1124 816.5 Q 1117.2 807.8 1114 795.5 L 1113 790.5 L 1113 771.5 Q 1117.5 748 1133.5 736 Q 1141.3 729.8 1152.5 727 L 1168.5 726 Q 1190 729.5 1200 744.5 L 1202.5 749 L 1203 690 Z M 1161 743 Q 1151 745 1145 750 L 1136 760 L 1131 772 Q 1132 776 1130 778 Q 1130 795 1137 805 L 1149 815 L 1159 819 Q 1165 817 1167 820 L 1179 818 L 1191 811 Q 1200 803 1203 789 L 1203 774 Q 1201 764 1196 758 Q 1187 742 1161 743 Z " /><path fill="rgb(207,244,235)" stroke="rgb(207,244,235)" stroke-width="1" opacity="1" d="M 432 695 L 449.5 695 L 450 695.5 L 450 755 L 530 755 L 530 695.5 L 530.5 695 L 549 695 L 549 832.5 L 548.5 833 L 530 833 L 530 772 L 450 772 L 450 832.5 L 449.5 833 L 432 833 L 432 695 Z " /><path fill="rgb(207,244,235)" stroke="rgb(207,244,235)" stroke-width="1" opacity="1" d="M 963 695 L 980.5 695 L 981 695.5 L 981 833 L 963.5 833 L 963 832.5 L 963 695 Z " /><path fill="rgb(207,244,235)" stroke="rgb(207,244,235)" stroke-width="1" opacity="1" d="M 720.5 726 Q 734.2 725.8 743.5 730 Q 755.4 735.6 763 745.5 L 773 765.5 L 775 782.5 L 774 783.5 L 774 792.5 L 769 807.5 Q 762.8 819.3 752.5 827 L 735.5 835 L 717.5 836 Q 696.9 832.1 687 817.5 L 684.5 813 L 684 869 L 667.5 869 L 666 867.5 L 666 730.5 L 667.5 729 L 683 729 L 683 749.5 L 686 747.5 Q 689.3 739.3 696.5 735 L 704.5 730 L 720.5 726 Z M 714 743 L 699 750 Q 687 759 684 776 Q 683 795 691 805 L 703 815 L 713 819 Q 718 818 720 820 L 733 818 L 746 810 Q 755 802 757 787 Q 758 767 750 758 Q 743 748 732 744 Q 724 742 714 743 Z " /><path fill="rgb(207,244,235)" stroke="rgb(207,244,235)" stroke-width="1" opacity="1" d="M 825.5 726 L 836.5 726 L 849.5 729 Q 861.8 734.2 870 743.5 Q 877.5 751.5 881 763.5 L 883 774.5 L 883 783.5 L 882 786 L 796 786.5 Q 798.9 803.1 809.5 812 L 823.5 819 L 839.5 819 Q 851.1 816.1 857 807.5 L 859 802 L 878.5 802 L 879 804.5 Q 873.3 817.8 862.5 826 Q 854.8 832.3 843.5 835 L 825.5 836 Q 802.7 832.3 791 817.5 L 782 802.5 L 779 791.5 L 778 779.5 L 779 778.5 L 779 770.5 L 783 757.5 L 795.5 740 L 810.5 730 L 825.5 726 Z M 826 743 Q 816 744 811 749 Q 801 755 798 769 L 798 770 L 865 770 L 859 756 Q 853 749 845 745 Q 837 742 826 743 Z " /><path fill="rgb(207,244,235)" stroke="rgb(207,244,235)" stroke-width="1" opacity="1" d="M 1054.5 726 Q 1082.7 724.8 1093 741.5 L 1098 751.5 L 1101 763.5 L 1101 833 L 1084.5 833 L 1084 832.5 L 1084 772.5 L 1081 758.5 L 1074.5 749 Q 1066.6 740.9 1048.5 743 Q 1034.8 746.3 1028 756.5 L 1022 771.5 L 1022 833 L 1004.5 833 L 1004 832.5 L 1004 729 L 1021 729 L 1021 747.5 L 1022 747.5 Q 1025.7 738.7 1033.5 734 L 1042.5 729 L 1054.5 726 Z " /><path fill="rgb(207,244,235)" stroke="rgb(207,244,235)" stroke-width="1" opacity="1" d="M 1280.5 726 L 1291.5 726 L 1304.5 729 Q 1316.8 734.2 1325 743.5 Q 1332.5 751.5 1336 763.5 L 1338 774.5 L 1338 783.5 L 1337 786 L 1251 786.5 Q 1253.9 803.1 1264.5 812 L 1278.5 819 L 1294.5 819 Q 1306.1 816.1 1312 807.5 L 1314 802 L 1333.5 802 L 1334 804.5 Q 1328.3 817.8 1317.5 826 Q 1309.8 832.3 1298.5 835 L 1280.5 836 Q 1257.7 832.3 1246 817.5 L 1237 802.5 L 1234 791.5 L 1233 779.5 L 1234 778.5 L 1234 770.5 L 1238 757.5 L 1250.5 740 L 1265.5 730 L 1280.5 726 Z M 1281 743 Q 1271 744 1266 749 Q 1256 755 1253 769 L 1253 770 L 1320 770 L 1314 756 Q 1308 749 1300 745 Q 1292 742 1281 743 Z " /><path fill="rgb(207,244,235)" stroke="rgb(207,244,235)" stroke-width="1" opacity="1" d="M 560 729 L 577.5 729 L 579 730.5 L 610.5 810 L 613 800.5 L 642.5 729 L 659.5 729 L 660 731.5 L 618 835.5 L 608 854.5 L 598.5 864 L 588.5 868 L 561.5 869 L 560 867.5 L 560 854 L 584.5 853 L 594 845.5 L 601 829.5 L 560 729 Z " /><path fill="rgb(207,244,235)" stroke="rgb(207,244,235)" stroke-width="1" opacity="1" d="M 894 729 L 911 729 L 911 749.5 L 912 749.5 Q 914.6 740.6 921.5 736 Q 927.6 730.6 937.5 729 L 952 729 L 952 745 L 936.5 745 Q 924.9 747.9 919 756.5 Q 913.9 763.4 912 773.5 L 912 833 L 894.5 833 L 894 832.5 L 894 729 Z " /><path fill="rgb(207,244,235)" stroke="rgb(207,244,235)" stroke-width="1" opacity="1" d="M 1337.5 729 L 1357.5 729 L 1359 730.5 L 1384.5 768 L 1410 729 L 1430.5 729 L 1431 730.5 L 1406 765.5 L 1398 777.5 L 1397 781.5 L 1432 833 L 1411.5 833 L 1410 831.5 L 1385 793 Q 1382.3 791.9 1383 794.5 L 1356.5 833 L 1336 832.5 L 1372 780.5 L 1338 731.5 L 1337.5 729 Z " /><path fill="rgb(7,39,35)" stroke="rgb(7,39,35)" stroke-width="1" opacity="1" d="M 0 0 L 1563 0 L 1563 1563 L 0 1563 L 0 0 Z M 187 672 L 176 674 L 169 678 Q 160 684 157 695 L 157 869 L 161 878 Q 168 889 184 891 Q 196 891 204 886 Q 212 880 216 869 L 216 696 L 211 685 L 202 676 L 195 673 Q 188 675 187 672 Z M 316 673 L 305 679 Q 297 685 294 697 L 294 781 Q 294 772 291 767 L 283 754 L 269 745 L 260 743 Q 241 742 232 751 Q 221 759 217 775 L 217 789 Q 219 798 224 805 Q 232 817 250 820 L 261 820 L 269 818 L 283 809 L 291 797 Q 294 791 294 782 L 294 867 L 300 880 L 309 887 L 322 891 L 333 890 L 344 884 Q 352 878 354 866 L 354 698 Q 352 688 347 683 Q 341 676 333 673 L 316 673 Z M 1203 690 L 1203 749 L 1200 745 Q 1190 729 1169 726 L 1153 727 Q 1141 730 1134 736 Q 1117 748 1113 772 L 1113 791 L 1114 796 Q 1117 808 1124 817 Q 1135 832 1158 836 L 1176 835 L 1192 827 Q 1199 822 1203 813 L 1204 813 L 1204 833 L 1221 833 L 1221 691 L 1221 690 L 1203 690 Z M 432 695 L 432 833 L 450 833 L 450 833 L 450 772 L 530 772 L 530 833 L 549 833 L 549 833 L 549 695 L 531 695 L 530 696 L 530 755 L 450 755 L 450 696 L 450 695 L 432 695 Z M 963 695 L 963 833 L 964 833 L 981 833 L 981 696 L 981 695 L 963 695 Z M 721 726 L 705 730 L 697 735 Q 689 739 686 748 L 683 750 L 683 729 L 668 729 L 666 731 L 666 868 L 668 869 L 684 869 L 685 813 L 687 818 Q 697 832 718 836 L 736 835 L 753 827 Q 763 819 769 808 L 774 793 L 774 784 L 775 783 L 773 766 L 763 746 Q 755 736 744 730 Q 734 726 721 726 Z M 826 726 L 811 730 L 796 740 L 783 758 L 779 771 L 779 779 L 778 780 L 779 792 L 782 803 L 791 818 Q 803 832 826 836 L 844 835 Q 855 832 863 826 Q 873 818 879 805 L 879 802 L 859 802 L 857 808 Q 851 816 840 819 L 824 819 L 810 812 Q 799 803 796 787 L 882 786 L 883 784 L 883 775 L 881 764 Q 877 752 870 744 Q 862 734 850 729 L 837 726 L 826 726 Z M 1055 726 L 1043 729 L 1034 734 Q 1026 739 1022 748 L 1021 748 L 1021 729 L 1004 729 L 1004 833 L 1005 833 L 1022 833 L 1022 772 L 1028 757 Q 1035 746 1049 743 Q 1067 741 1075 749 L 1081 759 L 1084 773 L 1084 833 L 1085 833 L 1101 833 L 1101 764 L 1098 752 L 1093 742 Q 1083 725 1055 726 Z M 1281 726 L 1266 730 L 1251 740 L 1238 758 L 1234 771 L 1234 779 L 1233 780 L 1234 792 L 1237 803 L 1246 818 Q 1258 832 1281 836 L 1299 835 Q 1310 832 1318 826 Q 1328 818 1334 805 L 1334 802 L 1314 802 L 1312 808 Q 1306 816 1295 819 L 1279 819 L 1265 812 Q 1254 803 1251 787 L 1337 786 L 1338 784 L 1338 775 L 1336 764 Q 1332 752 1325 744 Q 1317 734 1305 729 L 1292 726 L 1281 726 Z M 560 729 L 601 830 L 594 846 L 585 853 L 560 854 L 560 868 L 562 869 L 589 868 L 599 864 L 608 855 L 618 836 L 660 732 L 660 729 L 643 729 L 613 801 L 611 810 L 579 731 L 578 729 L 560 729 Z M 894 729 L 894 833 L 895 833 L 912 833 L 912 774 Q 914 763 919 757 Q 925 748 937 745 L 952 745 L 952 729 L 938 729 Q 928 731 922 736 Q 915 741 912 750 L 911 750 L 911 729 L 894 729 Z M 1338 729 L 1338 732 L 1372 781 L 1336 833 L 1357 833 L 1383 795 Q 1382 792 1385 793 L 1410 832 L 1412 833 L 1432 833 L 1397 782 L 1398 778 L 1406 766 L 1431 731 L 1431 729 L 1410 729 L 1385 768 L 1359 731 L 1358 729 L 1338 729 Z " /><path fill="rgb(7,39,35)" stroke="rgb(7,39,35)" stroke-width="1" opacity="1" d="M 713.5 743 Q 724.4 741.6 731.5 744 Q 743.4 748.1 750 757.5 Q 758.1 767.4 757 786.5 Q 754.6 801.6 745.5 810 L 732.5 818 L 719.5 820 Q 718 817.5 712.5 819 L 702.5 815 L 691 804.5 Q 682.9 794.6 684 775.5 Q 687.3 758.8 698.5 750 L 713.5 743 Z " /><path fill="rgb(7,39,35)" stroke="rgb(7,39,35)" stroke-width="1" opacity="1" d="M 825.5 743 Q 837.3 741.7 844.5 745 Q 853.3 748.7 859 755.5 L 865 769.5 L 797.5 770 L 798 768.5 Q 800.6 755.1 810.5 749 Q 816.5 744.5 825.5 743 Z " /><path fill="rgb(7,39,35)" stroke="rgb(7,39,35)" stroke-width="1" opacity="1" d="M 1160.5 743 Q 1186.8 741.8 1196 757.5 Q 1201.1 763.9 1203 773.5 L 1203 788.5 Q 1199.9 802.9 1190.5 811 L 1178.5 818 L 1166.5 820 Q 1164.7 817.2 1158.5 819 L 1148.5 815 L 1137 804.5 Q 1129.6 794.9 1130 777.5 Q 1132.3 776.2 1131 771.5 L 1136 759.5 L 1144.5 750 Q 1150.9 744.9 1160.5 743 Z " /><path fill="rgb(7,39,35)" stroke="rgb(7,39,35)" stroke-width="1" opacity="1" d="M 1280.5 743 Q 1292.3 741.7 1299.5 745 Q 1308.3 748.7 1314 755.5 L 1320 769.5 L 1252.5 770 L 1253 768.5 Q 1255.7 755.1 1265.5 749 Q 1271.5 744.5 1280.5 743 Z " /></svg>