<svg width="1563" height="1563" version="1.1" xmlns="http://www.w3.org/2000/svg" desc="Created with imagetracer.js version 1.2.6" ><path fill="rgb(120,206,186)" stroke="rgb(120,206,186)" stroke-width="1" opacity="1" d="M 372.5 156 L 389 156.5 L 372.5 157 L 372.5 156 Z " /><path fill="rgb(120,206,186)" stroke="rgb(120,206,186)" stroke-width="1" opacity="1" d="M 1174.5 156 L 1191 156.5 L 1174.5 157 L 1174.5 156 Z " /><path fill="rgb(120,206,186)" stroke="rgb(120,206,186)" stroke-width="1" opacity="1" d="M 359.5 157 L 364 157.5 L 359.5 158 L 359.5 157 Z " /><path fill="rgb(120,206,186)" stroke="rgb(120,206,186)" stroke-width="1" opacity="1" d="M 397.5 157 L 402 157.5 L 397.5 158 L 397.5 157 Z " /><path fill="rgb(120,206,186)" stroke="rgb(120,206,186)" stroke-width="1" opacity="1" d="M 1161.5 157 L 1166 157.5 L 1161.5 158 L 1161.5 157 Z " /><path fill="rgb(120,206,186)" stroke="rgb(120,206,186)" stroke-width="1" opacity="1" d="M 1199.5 157 L 1204 157.5 L 1199.5 158 L 1199.5 157 Z " /><path fill="rgb(120,206,186)" stroke="rgb(120,206,186)" stroke-width="1" opacity="1" d="M 351.5 158 L 355 158.5 L 351.5 159 L 351.5 158 Z " /><path fill="rgb(120,206,186)" stroke="rgb(120,206,186)" stroke-width="1" opacity="1" d="M 406.5 158 L 410 158.5 L 406.5 159 L 406.5 158 Z " /><path fill="rgb(120,206,186)" stroke="rgb(120,206,186)" stroke-width="1" opacity="1" d="M 1153.5 158 L 1157 158.5 L 1153.5 159 L 1153.5 158 Z " /><path fill="rgb(120,206,186)" stroke="rgb(120,206,186)" stroke-width="1" opacity="1" d="M 1208.5 158 L 1212 158.5 L 1208.5 159 L 1208.5 158 Z " /><path fill="rgb(120,206,186)" stroke="rgb(120,206,186)" stroke-width="1" opacity="1" d="M 346.5 159 L 349 159.5 L 346.5 160 L 346.5 159 Z " /><path fill="rgb(120,206,186)" stroke="rgb(120,206,186)" stroke-width="1" opacity="1" d="M 412.5 159 L 415 159.5 L 412.5 160 L 412.5 159 Z " /><path fill="rgb(120,206,186)" stroke="rgb(120,206,186)" stroke-width="1" opacity="1" d="M 1148.5 159 L 1151 159.5 L 1148.5 160 L 1148.5 159 Z " /><path fill="rgb(120,206,186)" stroke="rgb(120,206,186)" stroke-width="1" opacity="1" d="M 1214.5 159 L 1217 159.5 L 1214.5 160 L 1214.5 159 Z " /><path fill="rgb(120,206,186)" stroke="rgb(120,206,186)" stroke-width="1" opacity="1" d="M 417.5 160 L 420 160.5 L 417.5 161 L 417.5 160 Z " /><path fill="rgb(120,206,186)" stroke="rgb(120,206,186)" stroke-width="1" opacity="1" d="M 1143.5 160 L 1146 160.5 L 1143.5 161 L 1143.5 160 Z " /><path fill="rgb(120,206,186)" stroke="rgb(120,206,186)" stroke-width="1" opacity="1" d="M 296.5 177 L 295.5 179 L 296.5 177 Z " /><path fill="rgb(120,206,186)" stroke="rgb(120,206,186)" stroke-width="1" opacity="1" d="M 464.5 177 L 465.5 179 L 464.5 177 Z " /><path fill="rgb(120,206,186)" stroke="rgb(120,206,186)" stroke-width="1" opacity="1" d="M 1098.5 177 L 1097.5 179 L 1098.5 177 Z " /><path fill="rgb(120,206,186)" stroke="rgb(120,206,186)" stroke-width="1" opacity="1" d="M 1266.5 177 L 1267.5 179 L 1266.5 177 Z " /><path fill="rgb(120,206,186)" stroke="rgb(120,206,186)" stroke-width="1" opacity="1" d="M 289.5 181 L 288.5 183 L 289.5 181 Z " /><path fill="rgb(120,206,186)" stroke="rgb(120,206,186)" stroke-width="1" opacity="1" d="M 1091.5 181 L 1090.5 183 L 1091.5 181 Z " /><path fill="rgb(120,206,186)" stroke="rgb(120,206,186)" stroke-width="1" opacity="1" d="M 286.5 183 L 285.5 185 L 286.5 183 Z " /><path fill="rgb(120,206,186)" stroke="rgb(120,206,186)" stroke-width="1" opacity="1" d="M 474.5 183 L 475.5 185 L 474.5 183 Z " /><path fill="rgb(120,206,186)" stroke="rgb(120,206,186)" stroke-width="1" opacity="1" d="M 1088.5 183 L 1087.5 185 L 1088.5 183 Z " /><path fill="rgb(120,206,186)" stroke="rgb(120,206,186)" stroke-width="1" opacity="1" d="M 1276.5 183 L 1277.5 185 L 1276.5 183 Z " /><path fill="rgb(120,206,186)" stroke="rgb(120,206,186)" stroke-width="1" opacity="1" d="M 280.5 187 L 279.5 189 L 280.5 187 Z " /><path fill="rgb(120,206,186)" stroke="rgb(120,206,186)" stroke-width="1" opacity="1" d="M 480.5 187 L 481.5 189 L 480.5 187 Z " /><path fill="rgb(120,206,186)" stroke="rgb(120,206,186)" stroke-width="1" opacity="1" d="M 1082.5 187 L 1081.5 189 L 1082.5 187 Z " /><path fill="rgb(120,206,186)" stroke="rgb(120,206,186)" stroke-width="1" opacity="1" d="M 1282.5 187 L 1283.5 189 L 1282.5 187 Z " /><path fill="rgb(120,206,186)" stroke="rgb(120,206,186)" stroke-width="1" opacity="1" d="M 277.5 189 L 276.5 191 L 277.5 189 Z " /><path fill="rgb(120,206,186)" stroke="rgb(120,206,186)" stroke-width="1" opacity="1" d="M 483.5 189 L 485.5 192 L 483.5 189 Z " /><path fill="rgb(120,206,186)" stroke="rgb(120,206,186)" stroke-width="1" opacity="1" d="M 1079.5 189 L 1077.5 192 L 1079.5 189 Z " /><path fill="rgb(120,206,186)" stroke="rgb(120,206,186)" stroke-width="1" opacity="1" d="M 1285.5 189 L 1287.5 192 L 1285.5 189 Z " /><path fill="rgb(120,206,186)" stroke="rgb(120,206,186)" stroke-width="1" opacity="1" d="M 487.5 192 L 489.5 195 L 487.5 192 Z " /><path fill="rgb(120,206,186)" stroke="rgb(120,206,186)" stroke-width="1" opacity="1" d="M 1289.5 192 L 1291.5 195 L 1289.5 192 Z " /><path fill="rgb(120,206,186)" stroke="rgb(120,206,186)" stroke-width="1" opacity="1" d="M 272.5 193 L 271.5 195 L 272.5 193 Z " /><path fill="rgb(120,206,186)" stroke="rgb(120,206,186)" stroke-width="1" opacity="1" d="M 1074.5 193 L 1073.5 195 L 1074.5 193 Z " /><path fill="rgb(120,206,186)" stroke="rgb(120,206,186)" stroke-width="1" opacity="1" d="M 268.5 196 L 265.5 200 L 268.5 196 Z " /><path fill="rgb(120,206,186)" stroke="rgb(120,206,186)" stroke-width="1" opacity="1" d="M 492.5 196 L 495.5 200 L 492.5 196 Z " /><path fill="rgb(120,206,186)" stroke="rgb(120,206,186)" stroke-width="1" opacity="1" d="M 1070.5 196 L 1067.5 200 L 1070.5 196 Z " /><path fill="rgb(120,206,186)" stroke="rgb(120,206,186)" stroke-width="1" opacity="1" d="M 1294.5 196 L 1297.5 200 L 1294.5 196 Z " /><path fill="rgb(120,206,186)" stroke="rgb(120,206,186)" stroke-width="1" opacity="1" d="M 261.5 202 L 251.5 213 L 261.5 202 Z " /><path fill="rgb(120,206,186)" stroke="rgb(120,206,186)" stroke-width="1" opacity="1" d="M 500.5 203 L 508.5 212 L 500.5 203 Z " /><path fill="rgb(120,206,186)" stroke="rgb(120,206,186)" stroke-width="1" opacity="1" d="M 1062.5 203 L 1054.5 212 L 1062.5 203 Z " /><path fill="rgb(120,206,186)" stroke="rgb(120,206,186)" stroke-width="1" opacity="1" d="M 1302.5 203 L 1310.5 212 L 1302.5 203 Z " /><path fill="rgb(120,206,186)" stroke="rgb(120,206,186)" stroke-width="1" opacity="1" d="M 512.5 216 L 516.5 221 L 512.5 216 Z " /><path fill="rgb(120,206,186)" stroke="rgb(120,206,186)" stroke-width="1" opacity="1" d="M 1050.5 216 L 1046.5 221 L 1050.5 216 Z " /><path fill="rgb(120,206,186)" stroke="rgb(120,206,186)" stroke-width="1" opacity="1" d="M 247.5 217 L 244.5 221 L 247.5 217 Z " /><path fill="rgb(120,206,186)" stroke="rgb(120,206,186)" stroke-width="1" opacity="1" d="M 1315.5 217 L 1318.5 221 L 1315.5 217 Z " /><path fill="rgb(120,206,186)" stroke="rgb(120,206,186)" stroke-width="1" opacity="1" d="M 242.5 223 L 241.5 225 L 242.5 223 Z " /><path fill="rgb(120,206,186)" stroke="rgb(120,206,186)" stroke-width="1" opacity="1" d="M 518.5 223 L 519.5 225 L 518.5 223 Z " /><path fill="rgb(120,206,186)" stroke="rgb(120,206,186)" stroke-width="1" opacity="1" d="M 1044.5 223 L 1043.5 225 L 1044.5 223 Z " /><path fill="rgb(120,206,186)" stroke="rgb(120,206,186)" stroke-width="1" opacity="1" d="M 1320.5 223 L 1321.5 225 L 1320.5 223 Z " /><path fill="rgb(120,206,186)" stroke="rgb(120,206,186)" stroke-width="1" opacity="1" d="M 239.5 227 L 238.5 229 L 239.5 227 Z " /><path fill="rgb(120,206,186)" stroke="rgb(120,206,186)" stroke-width="1" opacity="1" d="M 521.5 227 L 522.5 229 L 521.5 227 Z " /><path fill="rgb(120,206,186)" stroke="rgb(120,206,186)" stroke-width="1" opacity="1" d="M 1041.5 227 L 1040.5 229 L 1041.5 227 Z " /><path fill="rgb(120,206,186)" stroke="rgb(120,206,186)" stroke-width="1" opacity="1" d="M 1323.5 227 L 1324.5 229 L 1323.5 227 Z " /><path fill="rgb(120,206,186)" stroke="rgb(120,206,186)" stroke-width="1" opacity="1" d="M 236.5 231 L 235.5 233 L 236.5 231 Z " /><path fill="rgb(120,206,186)" stroke="rgb(120,206,186)" stroke-width="1" opacity="1" d="M 524.5 231 L 525.5 233 L 524.5 231 Z " /><path fill="rgb(120,206,186)" stroke="rgb(120,206,186)" stroke-width="1" opacity="1" d="M 1038.5 231 L 1037.5 233 L 1038.5 231 Z " /><path fill="rgb(120,206,186)" stroke="rgb(120,206,186)" stroke-width="1" opacity="1" d="M 1326.5 231 L 1327.5 233 L 1326.5 231 Z " /><path fill="rgb(120,206,186)" stroke="rgb(120,206,186)" stroke-width="1" opacity="1" d="M 526.5 234 L 527.5 236 L 526.5 234 Z " /><path fill="rgb(120,206,186)" stroke="rgb(120,206,186)" stroke-width="1" opacity="1" d="M 1036.5 234 L 1035.5 236 L 1036.5 234 Z " /><path fill="rgb(120,206,186)" stroke="rgb(120,206,186)" stroke-width="1" opacity="1" d="M 1328.5 234 L 1329.5 236 L 1328.5 234 Z " /><path fill="rgb(120,206,186)" stroke="rgb(120,206,186)" stroke-width="1" opacity="1" d="M 232.5 237 L 231.5 239 L 232.5 237 Z " /><path fill="rgb(120,206,186)" stroke="rgb(120,206,186)" stroke-width="1" opacity="1" d="M 1034.5 237 L 1033.5 239 L 1034.5 237 Z " /><path fill="rgb(120,206,186)" stroke="rgb(120,206,186)" stroke-width="1" opacity="1" d="M 1330.5 237 L 1331.5 239 L 1330.5 237 Z " /><path fill="rgb(120,206,186)" stroke="rgb(120,206,186)" stroke-width="1" opacity="1" d="M 229.5 242 L 228.5 244 L 229.5 242 Z " /><path fill="rgb(120,206,186)" stroke="rgb(120,206,186)" stroke-width="1" opacity="1" d="M 531.5 242 L 532.5 244 L 531.5 242 Z " /><path fill="rgb(120,206,186)" stroke="rgb(120,206,186)" stroke-width="1" opacity="1" d="M 1031.5 242 L 1030.5 244 L 1031.5 242 Z " /><path fill="rgb(120,206,186)" stroke="rgb(120,206,186)" stroke-width="1" opacity="1" d="M 1333.5 242 L 1334.5 244 L 1333.5 242 Z " /><path fill="rgb(120,206,186)" stroke="rgb(120,206,186)" stroke-width="1" opacity="1" d="M 226.5 247 L 226 248.5 L 225.5 250 L 225 248.5 L 226.5 247 Z " /><path fill="rgb(120,206,186)" stroke="rgb(120,206,186)" stroke-width="1" opacity="1" d="M 1336.5 247 L 1338 249.5 L 1337 249.5 L 1336.5 247 Z " /><path fill="rgb(120,206,186)" stroke="rgb(120,206,186)" stroke-width="1" opacity="1" d="M 551.5 290 L 552 292.5 L 551 292.5 L 551.5 290 Z " /><path fill="rgb(120,206,186)" stroke="rgb(120,206,186)" stroke-width="1" opacity="1" d="M 208.5 294 L 209 296.5 L 208 296.5 L 208.5 294 Z " /><path fill="rgb(120,206,186)" stroke="rgb(120,206,186)" stroke-width="1" opacity="1" d="M 207.5 299 L 208 301.5 L 207 301.5 L 207.5 299 Z " /><path fill="rgb(120,206,186)" stroke="rgb(120,206,186)" stroke-width="1" opacity="1" d="M 1355.5 299 L 1356 301.5 L 1355 301.5 L 1355.5 299 Z " /><path fill="rgb(120,206,186)" stroke="rgb(120,206,186)" stroke-width="1" opacity="1" d="M 206.5 305 L 207 308.5 L 206 308.5 L 206.5 305 Z " /><path fill="rgb(120,206,186)" stroke="rgb(120,206,186)" stroke-width="1" opacity="1" d="M 554.5 305 L 555 308.5 L 554 308.5 L 554.5 305 Z " /><path fill="rgb(120,206,186)" stroke="rgb(120,206,186)" stroke-width="1" opacity="1" d="M 1008.5 305 L 1009 308.5 L 1008 308.5 L 1008.5 305 Z " /><path fill="rgb(120,206,186)" stroke="rgb(120,206,186)" stroke-width="1" opacity="1" d="M 1356.5 305 L 1357 308.5 L 1356 308.5 L 1356.5 305 Z " /><path fill="rgb(120,206,186)" stroke="rgb(120,206,186)" stroke-width="1" opacity="1" d="M 205.5 313 L 206 317.5 L 205 317.5 L 205.5 313 Z " /><path fill="rgb(120,206,186)" stroke="rgb(120,206,186)" stroke-width="1" opacity="1" d="M 555.5 313 L 556 318.5 L 555 318.5 L 555.5 313 Z " /><path fill="rgb(120,206,186)" stroke="rgb(120,206,186)" stroke-width="1" opacity="1" d="M 1007.5 313 L 1008 318.5 L 1007 318.5 L 1007.5 313 Z " /><path fill="rgb(120,206,186)" stroke="rgb(120,206,186)" stroke-width="1" opacity="1" d="M 1357.5 313 L 1358 317.5 L 1357 317.5 L 1357.5 313 Z " /><path fill="rgb(120,206,186)" stroke="rgb(120,206,186)" stroke-width="1" opacity="1" d="M 771.5 569 L 792 569.5 L 771.5 570 L 771.5 569 Z " /><path fill="rgb(120,206,186)" stroke="rgb(120,206,186)" stroke-width="1" opacity="1" d="M 757.5 570 L 762 570.5 L 757.5 571 L 757.5 570 Z " /><path fill="rgb(120,206,186)" stroke="rgb(120,206,186)" stroke-width="1" opacity="1" d="M 801.5 570 L 806 570.5 L 801.5 571 L 801.5 570 Z " /><path fill="rgb(120,206,186)" stroke="rgb(120,206,186)" stroke-width="1" opacity="1" d="M 749.5 571 L 753 571.5 L 749.5 572 L 749.5 571 Z " /><path fill="rgb(120,206,186)" stroke="rgb(120,206,186)" stroke-width="1" opacity="1" d="M 810.5 571 L 813 571.5 L 810.5 572 L 810.5 571 Z " /><path fill="rgb(120,206,186)" stroke="rgb(120,206,186)" stroke-width="1" opacity="1" d="M 743.5 572 L 746 572.5 L 743.5 573 L 743.5 572 Z " /><path fill="rgb(120,206,186)" stroke="rgb(120,206,186)" stroke-width="1" opacity="1" d="M 817.5 572 L 820 572.5 L 817.5 573 L 817.5 572 Z " /><path fill="rgb(120,206,186)" stroke="rgb(120,206,186)" stroke-width="1" opacity="1" d="M 737.5 573 L 740 573.5 L 737.5 574 L 737.5 573 Z " /><path fill="rgb(120,206,186)" stroke="rgb(120,206,186)" stroke-width="1" opacity="1" d="M 823.5 573 L 826 573.5 L 823.5 574 L 823.5 573 Z " /><path fill="rgb(120,206,186)" stroke="rgb(120,206,186)" stroke-width="1" opacity="1" d="M 685.5 590 L 687 590.5 L 678.5 595 L 679.5 593 L 685.5 590 Z " /><path fill="rgb(120,206,186)" stroke="rgb(120,206,186)" stroke-width="1" opacity="1" d="M 878.5 591 L 883 593.5 L 881.5 593 Q 877.8 592.8 878.5 591 Z " /><path fill="rgb(120,206,186)" stroke="rgb(120,206,186)" stroke-width="1" opacity="1" d="M 668.5 599 L 667.5 601 L 668.5 599 Z " /><path fill="rgb(120,206,186)" stroke="rgb(120,206,186)" stroke-width="1" opacity="1" d="M 894.5 599 L 895.5 601 L 894.5 599 Z " /><path fill="rgb(120,206,186)" stroke="rgb(120,206,186)" stroke-width="1" opacity="1" d="M 660.5 604 L 659.5 606 L 660.5 604 Z " /><path fill="rgb(120,206,186)" stroke="rgb(120,206,186)" stroke-width="1" opacity="1" d="M 657.5 606 L 656.5 608 L 657.5 606 Z " /><path fill="rgb(120,206,186)" stroke="rgb(120,206,186)" stroke-width="1" opacity="1" d="M 905.5 606 L 906.5 608 L 905.5 606 Z " /><path fill="rgb(120,206,186)" stroke="rgb(120,206,186)" stroke-width="1" opacity="1" d="M 650.5 611 L 649.5 613 L 650.5 611 Z " /><path fill="rgb(120,206,186)" stroke="rgb(120,206,186)" stroke-width="1" opacity="1" d="M 912.5 611 L 913.5 613 L 912.5 611 Z " /><path fill="rgb(120,206,186)" stroke="rgb(120,206,186)" stroke-width="1" opacity="1" d="M 647.5 613 L 645.5 616 L 647.5 613 Z " /><path fill="rgb(120,206,186)" stroke="rgb(120,206,186)" stroke-width="1" opacity="1" d="M 915.5 613 L 917.5 616 L 915.5 613 Z " /><path fill="rgb(120,206,186)" stroke="rgb(120,206,186)" stroke-width="1" opacity="1" d="M 642.5 617 L 641.5 619 L 642.5 617 Z " /><path fill="rgb(120,206,186)" stroke="rgb(120,206,186)" stroke-width="1" opacity="1" d="M 920.5 617 L 921.5 619 L 920.5 617 Z " /><path fill="rgb(120,206,186)" stroke="rgb(120,206,186)" stroke-width="1" opacity="1" d="M 637.5 621 L 634.5 625 L 637.5 621 Z " /><path fill="rgb(120,206,186)" stroke="rgb(120,206,186)" stroke-width="1" opacity="1" d="M 925.5 621 L 928.5 625 L 925.5 621 Z " /><path fill="rgb(120,206,186)" stroke="rgb(120,206,186)" stroke-width="1" opacity="1" d="M 630.5 627 L 614.5 644 L 630.5 627 Z " /><path fill="rgb(120,206,186)" stroke="rgb(120,206,186)" stroke-width="1" opacity="1" d="M 932.5 627 L 948.5 644 L 932.5 627 Z " /><path fill="rgb(120,206,186)" stroke="rgb(120,206,186)" stroke-width="1" opacity="1" d="M 611.5 647 L 608.5 651 L 611.5 647 Z " /><path fill="rgb(120,206,186)" stroke="rgb(120,206,186)" stroke-width="1" opacity="1" d="M 951.5 647 L 954.5 651 L 951.5 647 Z " /><path fill="rgb(120,206,186)" stroke="rgb(120,206,186)" stroke-width="1" opacity="1" d="M 606.5 653 L 604.5 656 L 606.5 653 Z " /><path fill="rgb(120,206,186)" stroke="rgb(120,206,186)" stroke-width="1" opacity="1" d="M 956.5 653 L 958.5 656 L 956.5 653 Z " /><path fill="rgb(120,206,186)" stroke="rgb(120,206,186)" stroke-width="1" opacity="1" d="M 602.5 658 L 601.5 660 L 602.5 658 Z " /><path fill="rgb(120,206,186)" stroke="rgb(120,206,186)" stroke-width="1" opacity="1" d="M 960.5 658 L 961.5 660 L 960.5 658 Z " /><path fill="rgb(120,206,186)" stroke="rgb(120,206,186)" stroke-width="1" opacity="1" d="M 599.5 662 L 598.5 664 L 599.5 662 Z " /><path fill="rgb(120,206,186)" stroke="rgb(120,206,186)" stroke-width="1" opacity="1" d="M 963.5 662 L 964.5 664 L 963.5 662 Z " /><path fill="rgb(120,206,186)" stroke="rgb(120,206,186)" stroke-width="1" opacity="1" d="M 597.5 665 L 596.5 667 L 597.5 665 Z " /><path fill="rgb(120,206,186)" stroke="rgb(120,206,186)" stroke-width="1" opacity="1" d="M 965.5 665 L 966.5 667 L 965.5 665 Z " /><path fill="rgb(120,206,186)" stroke="rgb(120,206,186)" stroke-width="1" opacity="1" d="M 594.5 669 L 593.5 671 L 594.5 669 Z " /><path fill="rgb(120,206,186)" stroke="rgb(120,206,186)" stroke-width="1" opacity="1" d="M 971.5 674 L 972.5 676 L 971.5 674 Z " /><path fill="rgb(120,206,186)" stroke="rgb(120,206,186)" stroke-width="1" opacity="1" d="M 589.5 677 L 588.5 679 L 589.5 677 Z " /><path fill="rgb(120,206,186)" stroke="rgb(120,206,186)" stroke-width="1" opacity="1" d="M 973.5 677 L 974.5 679 L 973.5 677 Z " /><path fill="rgb(120,206,186)" stroke="rgb(120,206,186)" stroke-width="1" opacity="1" d="M 585.5 684 L 584.5 686 L 585.5 684 Z " /><path fill="rgb(120,206,186)" stroke="rgb(120,206,186)" stroke-width="1" opacity="1" d="M 977.5 684 L 978.5 686 L 977.5 684 Z " /><path fill="rgb(120,206,186)" stroke="rgb(120,206,186)" stroke-width="1" opacity="1" d="M 560.5 751 L 561 753.5 L 560 753.5 L 560.5 751 Z " /><path fill="rgb(120,206,186)" stroke="rgb(120,206,186)" stroke-width="1" opacity="1" d="M 1002.5 751 L 1003 753.5 L 1002 753.5 L 1002.5 751 Z " /><path fill="rgb(120,206,186)" stroke="rgb(120,206,186)" stroke-width="1" opacity="1" d="M 559.5 757 L 560 759.5 L 559 759.5 L 559.5 757 Z " /><path fill="rgb(120,206,186)" stroke="rgb(120,206,186)" stroke-width="1" opacity="1" d="M 1003.5 757 L 1004 759.5 L 1003 759.5 L 1003.5 757 Z " /><path fill="rgb(120,206,186)" stroke="rgb(120,206,186)" stroke-width="1" opacity="1" d="M 558.5 764 L 559 767.5 L 558 767.5 L 558.5 764 Z " /><path fill="rgb(120,206,186)" stroke="rgb(120,206,186)" stroke-width="1" opacity="1" d="M 1004.5 764 L 1005 767.5 L 1004 767.5 L 1004.5 764 Z " /><path fill="rgb(120,206,186)" stroke="rgb(120,206,186)" stroke-width="1" opacity="1" d="M 557.5 772 L 558 777.5 L 557 777.5 L 557.5 772 Z " /><path fill="rgb(120,206,186)" stroke="rgb(120,206,186)" stroke-width="1" opacity="1" d="M 1005.5 772 L 1006 777.5 L 1005 777.5 L 1005.5 772 Z " /><path fill="rgb(120,206,186)" stroke="rgb(120,206,186)" stroke-width="1" opacity="1" d="M 556.5 789 L 557 798.5 L 556 798.5 L 556.5 789 Z " /><path fill="rgb(120,206,186)" stroke="rgb(120,206,186)" stroke-width="1" opacity="1" d="M 1006.5 790 L 1007 798.5 L 1006 798.5 L 1006.5 790 Z " /><path fill="rgb(120,206,186)" stroke="rgb(120,206,186)" stroke-width="1" opacity="1" d="M 1005.5 810 L 1006 816.5 L 1005 816.5 L 1005.5 810 Z " /><path fill="rgb(120,206,186)" stroke="rgb(120,206,186)" stroke-width="1" opacity="1" d="M 557.5 811 L 558 816.5 L 557 816.5 L 557.5 811 Z " /><path fill="rgb(120,206,186)" stroke="rgb(120,206,186)" stroke-width="1" opacity="1" d="M 558.5 821 L 559 824.5 L 558 824.5 L 558.5 821 Z " /><path fill="rgb(120,206,186)" stroke="rgb(120,206,186)" stroke-width="1" opacity="1" d="M 1004.5 821 L 1005 824.5 L 1004 824.5 L 1004.5 821 Z " /><path fill="rgb(120,206,186)" stroke="rgb(120,206,186)" stroke-width="1" opacity="1" d="M 1003.5 828 L 1004 830.5 L 1003 830.5 L 1003.5 828 Z " /><path fill="rgb(120,206,186)" stroke="rgb(120,206,186)" stroke-width="1" opacity="1" d="M 560.5 834 L 561 836.5 L 560 836.5 L 560.5 834 Z " /><path fill="rgb(120,206,186)" stroke="rgb(120,206,186)" stroke-width="1" opacity="1" d="M 1002.5 834 L 1003 836.5 L 1002 836.5 L 1002.5 834 Z " /><path fill="rgb(120,206,186)" stroke="rgb(120,206,186)" stroke-width="1" opacity="1" d="M 586.5 906 L 587.5 908 L 586.5 906 Z " /><path fill="rgb(120,206,186)" stroke="rgb(120,206,186)" stroke-width="1" opacity="1" d="M 976.5 906 L 975.5 908 L 976.5 906 Z " /><path fill="rgb(120,206,186)" stroke="rgb(120,206,186)" stroke-width="1" opacity="1" d="M 589.5 911 L 590.5 913 L 589.5 911 Z " /><path fill="rgb(120,206,186)" stroke="rgb(120,206,186)" stroke-width="1" opacity="1" d="M 973.5 911 L 972.5 913 L 973.5 911 Z " /><path fill="rgb(120,206,186)" stroke="rgb(120,206,186)" stroke-width="1" opacity="1" d="M 594.5 919 L 595.5 921 L 594.5 919 Z " /><path fill="rgb(120,206,186)" stroke="rgb(120,206,186)" stroke-width="1" opacity="1" d="M 968.5 919 L 967.5 921 L 968.5 919 Z " /><path fill="rgb(120,206,186)" stroke="rgb(120,206,186)" stroke-width="1" opacity="1" d="M 597.5 923 L 598.5 925 L 597.5 923 Z " /><path fill="rgb(120,206,186)" stroke="rgb(120,206,186)" stroke-width="1" opacity="1" d="M 965.5 923 L 964.5 925 L 965.5 923 Z " /><path fill="rgb(120,206,186)" stroke="rgb(120,206,186)" stroke-width="1" opacity="1" d="M 599.5 926 L 600.5 928 L 599.5 926 Z " /><path fill="rgb(120,206,186)" stroke="rgb(120,206,186)" stroke-width="1" opacity="1" d="M 963.5 926 L 962.5 928 L 963.5 926 Z " /><path fill="rgb(120,206,186)" stroke="rgb(120,206,186)" stroke-width="1" opacity="1" d="M 602.5 930 L 604.5 933 L 602.5 930 Z " /><path fill="rgb(120,206,186)" stroke="rgb(120,206,186)" stroke-width="1" opacity="1" d="M 960.5 930 L 958.5 933 L 960.5 930 Z " /><path fill="rgb(120,206,186)" stroke="rgb(120,206,186)" stroke-width="1" opacity="1" d="M 605.5 934 L 608.5 938 L 605.5 934 Z " /><path fill="rgb(120,206,186)" stroke="rgb(120,206,186)" stroke-width="1" opacity="1" d="M 956.5 935 L 955.5 937 L 956.5 935 Z " /><path fill="rgb(120,206,186)" stroke="rgb(120,206,186)" stroke-width="1" opacity="1" d="M 610.5 940 L 614.5 945 L 610.5 940 Z " /><path fill="rgb(120,206,186)" stroke="rgb(120,206,186)" stroke-width="1" opacity="1" d="M 952.5 940 L 948.5 945 L 952.5 940 Z " /><path fill="rgb(120,206,186)" stroke="rgb(120,206,186)" stroke-width="1" opacity="1" d="M 619.5 950 L 627.5 959 L 619.5 950 Z " /><path fill="rgb(120,206,186)" stroke="rgb(120,206,186)" stroke-width="1" opacity="1" d="M 943.5 950 L 936.5 958 L 943.5 950 Z " /><path fill="rgb(120,206,186)" stroke="rgb(120,206,186)" stroke-width="1" opacity="1" d="M 632.5 962 L 635.5 966 L 632.5 962 Z " /><path fill="rgb(120,206,186)" stroke="rgb(120,206,186)" stroke-width="1" opacity="1" d="M 930.5 962 L 927.5 966 L 930.5 962 Z " /><path fill="rgb(120,206,186)" stroke="rgb(120,206,186)" stroke-width="1" opacity="1" d="M 639.5 968 L 641.5 971 L 639.5 968 Z " /><path fill="rgb(120,206,186)" stroke="rgb(120,206,186)" stroke-width="1" opacity="1" d="M 923.5 968 L 921.5 971 L 923.5 968 Z " /><path fill="rgb(120,206,186)" stroke="rgb(120,206,186)" stroke-width="1" opacity="1" d="M 644.5 972 L 646.5 975 L 644.5 972 Z " /><path fill="rgb(120,206,186)" stroke="rgb(120,206,186)" stroke-width="1" opacity="1" d="M 918.5 972 L 917.5 974 L 918.5 972 Z " /><path fill="rgb(120,206,186)" stroke="rgb(120,206,186)" stroke-width="1" opacity="1" d="M 648.5 975 L 649.5 977 L 648.5 975 Z " /><path fill="rgb(120,206,186)" stroke="rgb(120,206,186)" stroke-width="1" opacity="1" d="M 914.5 975 L 913.5 977 L 914.5 975 Z " /><path fill="rgb(120,206,186)" stroke="rgb(120,206,186)" stroke-width="1" opacity="1" d="M 651.5 977 L 652.5 979 L 651.5 977 Z " /><path fill="rgb(120,206,186)" stroke="rgb(120,206,186)" stroke-width="1" opacity="1" d="M 911.5 977 L 910.5 979 L 911.5 977 Z " /><path fill="rgb(120,206,186)" stroke="rgb(120,206,186)" stroke-width="1" opacity="1" d="M 654.5 979 L 655.5 981 L 654.5 979 Z " /><path fill="rgb(120,206,186)" stroke="rgb(120,206,186)" stroke-width="1" opacity="1" d="M 908.5 979 L 907.5 981 L 908.5 979 Z " /><path fill="rgb(120,206,186)" stroke="rgb(120,206,186)" stroke-width="1" opacity="1" d="M 660.5 983 L 661.5 985 L 660.5 983 Z " /><path fill="rgb(120,206,186)" stroke="rgb(120,206,186)" stroke-width="1" opacity="1" d="M 902.5 983 L 901.5 985 L 902.5 983 Z " /><path fill="rgb(120,206,186)" stroke="rgb(120,206,186)" stroke-width="1" opacity="1" d="M 672.5 990 L 673.5 992 L 672.5 990 Z " /><path fill="rgb(120,206,186)" stroke="rgb(120,206,186)" stroke-width="1" opacity="1" d="M 890.5 990 L 889.5 992 L 890.5 990 Z " /><path fill="rgb(120,206,186)" stroke="rgb(120,206,186)" stroke-width="1" opacity="1" d="M 745.5 1016 L 748 1016.5 L 745.5 1017 L 745.5 1016 Z " /><path fill="rgb(120,206,186)" stroke="rgb(120,206,186)" stroke-width="1" opacity="1" d="M 815.5 1016 L 818 1016.5 L 815.5 1017 L 815.5 1016 Z " /><path fill="rgb(120,206,186)" stroke="rgb(120,206,186)" stroke-width="1" opacity="1" d="M 752.5 1017 L 756 1017.5 L 752.5 1018 L 752.5 1017 Z " /><path fill="rgb(120,206,186)" stroke="rgb(120,206,186)" stroke-width="1" opacity="1" d="M 807.5 1017 L 811 1017.5 L 807.5 1018 L 807.5 1017 Z " /><path fill="rgb(120,206,186)" stroke="rgb(120,206,186)" stroke-width="1" opacity="1" d="M 762.5 1018 L 769 1018.5 L 762.5 1019 L 762.5 1018 Z " /><path fill="rgb(120,206,186)" stroke="rgb(120,206,186)" stroke-width="1" opacity="1" d="M 794.5 1018 L 802 1018.5 L 794.5 1019 L 794.5 1018 Z " /><path fill="rgb(120,206,186)" stroke="rgb(120,206,186)" stroke-width="1" opacity="1" d="M 205.5 1270 L 206 1275.5 L 205 1275.5 L 205.5 1270 Z " /><path fill="rgb(120,206,186)" stroke="rgb(120,206,186)" stroke-width="1" opacity="1" d="M 555.5 1270 L 556 1274.5 L 555 1274.5 L 555.5 1270 Z " /><path fill="rgb(120,206,186)" stroke="rgb(120,206,186)" stroke-width="1" opacity="1" d="M 1007.5 1270 L 1008 1274.5 L 1007 1274.5 L 1007.5 1270 Z " /><path fill="rgb(120,206,186)" stroke="rgb(120,206,186)" stroke-width="1" opacity="1" d="M 1357.5 1270 L 1358 1275.5 L 1357 1275.5 L 1357.5 1270 Z " /><path fill="rgb(120,206,186)" stroke="rgb(120,206,186)" stroke-width="1" opacity="1" d="M 554.5 1279 L 555 1282.5 L 554 1282.5 L 554.5 1279 Z " /><path fill="rgb(120,206,186)" stroke="rgb(120,206,186)" stroke-width="1" opacity="1" d="M 1008.5 1279 L 1009 1282.5 L 1008 1282.5 L 1008.5 1279 Z " /><path fill="rgb(120,206,186)" stroke="rgb(120,206,186)" stroke-width="1" opacity="1" d="M 206.5 1280 L 207 1282.5 L 206 1282.5 L 206.5 1280 Z " /><path fill="rgb(120,206,186)" stroke="rgb(120,206,186)" stroke-width="1" opacity="1" d="M 1356.5 1280 L 1357 1282.5 L 1356 1282.5 L 1356.5 1280 Z " /><path fill="rgb(120,206,186)" stroke="rgb(120,206,186)" stroke-width="1" opacity="1" d="M 207.5 1286 L 208 1288.5 L 207 1288.5 L 207.5 1286 Z " /><path fill="rgb(120,206,186)" stroke="rgb(120,206,186)" stroke-width="1" opacity="1" d="M 553.5 1286 L 554 1288.5 L 553 1288.5 L 553.5 1286 Z " /><path fill="rgb(120,206,186)" stroke="rgb(120,206,186)" stroke-width="1" opacity="1" d="M 1009.5 1286 L 1010 1288.5 L 1009 1288.5 L 1009.5 1286 Z " /><path fill="rgb(120,206,186)" stroke="rgb(120,206,186)" stroke-width="1" opacity="1" d="M 1355.5 1286 L 1356 1288.5 L 1355 1288.5 L 1355.5 1286 Z " /><path fill="rgb(120,206,186)" stroke="rgb(120,206,186)" stroke-width="1" opacity="1" d="M 226.5 1341 L 227.5 1343 L 226.5 1341 Z " /><path fill="rgb(120,206,186)" stroke="rgb(120,206,186)" stroke-width="1" opacity="1" d="M 534.5 1341 L 533.5 1343 L 534.5 1341 Z " /><path fill="rgb(120,206,186)" stroke="rgb(120,206,186)" stroke-width="1" opacity="1" d="M 1028.5 1341 L 1029.5 1343 L 1028.5 1341 Z " /><path fill="rgb(120,206,186)" stroke="rgb(120,206,186)" stroke-width="1" opacity="1" d="M 1336.5 1341 L 1335.5 1343 L 1336.5 1341 Z " /><path fill="rgb(120,206,186)" stroke="rgb(120,206,186)" stroke-width="1" opacity="1" d="M 232.5 1351 L 233.5 1353 L 232.5 1351 Z " /><path fill="rgb(120,206,186)" stroke="rgb(120,206,186)" stroke-width="1" opacity="1" d="M 528.5 1351 L 527.5 1353 L 528.5 1351 Z " /><path fill="rgb(120,206,186)" stroke="rgb(120,206,186)" stroke-width="1" opacity="1" d="M 1034.5 1351 L 1035.5 1353 L 1034.5 1351 Z " /><path fill="rgb(120,206,186)" stroke="rgb(120,206,186)" stroke-width="1" opacity="1" d="M 1330.5 1351 L 1329.5 1353 L 1330.5 1351 Z " /><path fill="rgb(120,206,186)" stroke="rgb(120,206,186)" stroke-width="1" opacity="1" d="M 234.5 1354 L 235.5 1356 L 234.5 1354 Z " /><path fill="rgb(120,206,186)" stroke="rgb(120,206,186)" stroke-width="1" opacity="1" d="M 526.5 1354 L 525.5 1356 L 526.5 1354 Z " /><path fill="rgb(120,206,186)" stroke="rgb(120,206,186)" stroke-width="1" opacity="1" d="M 1036.5 1354 L 1037.5 1356 L 1036.5 1354 Z " /><path fill="rgb(120,206,186)" stroke="rgb(120,206,186)" stroke-width="1" opacity="1" d="M 1328.5 1354 L 1327.5 1356 L 1328.5 1354 Z " /><path fill="rgb(120,206,186)" stroke="rgb(120,206,186)" stroke-width="1" opacity="1" d="M 236.5 1357 L 237.5 1359 L 236.5 1357 Z " /><path fill="rgb(120,206,186)" stroke="rgb(120,206,186)" stroke-width="1" opacity="1" d="M 524.5 1357 L 522.5 1360 L 524.5 1357 Z " /><path fill="rgb(120,206,186)" stroke="rgb(120,206,186)" stroke-width="1" opacity="1" d="M 1038.5 1357 L 1039.5 1359 L 1038.5 1357 Z " /><path fill="rgb(120,206,186)" stroke="rgb(120,206,186)" stroke-width="1" opacity="1" d="M 1326.5 1357 L 1325.5 1359 L 1326.5 1357 Z " /><path fill="rgb(120,206,186)" stroke="rgb(120,206,186)" stroke-width="1" opacity="1" d="M 239.5 1361 L 240.5 1363 L 239.5 1361 Z " /><path fill="rgb(120,206,186)" stroke="rgb(120,206,186)" stroke-width="1" opacity="1" d="M 521.5 1361 L 519.5 1364 L 521.5 1361 Z " /><path fill="rgb(120,206,186)" stroke="rgb(120,206,186)" stroke-width="1" opacity="1" d="M 1041.5 1361 L 1043.5 1364 L 1041.5 1361 Z " /><path fill="rgb(120,206,186)" stroke="rgb(120,206,186)" stroke-width="1" opacity="1" d="M 1323.5 1361 L 1322.5 1363 L 1323.5 1361 Z " /><path fill="rgb(120,206,186)" stroke="rgb(120,206,186)" stroke-width="1" opacity="1" d="M 242.5 1365 L 244.5 1368 L 242.5 1365 Z " /><path fill="rgb(120,206,186)" stroke="rgb(120,206,186)" stroke-width="1" opacity="1" d="M 518.5 1365 L 516.5 1368 L 518.5 1365 Z " /><path fill="rgb(120,206,186)" stroke="rgb(120,206,186)" stroke-width="1" opacity="1" d="M 1044.5 1365 L 1046.5 1368 L 1044.5 1365 Z " /><path fill="rgb(120,206,186)" stroke="rgb(120,206,186)" stroke-width="1" opacity="1" d="M 1320.5 1365 L 1318.5 1368 L 1320.5 1365 Z " /><path fill="rgb(120,206,186)" stroke="rgb(120,206,186)" stroke-width="1" opacity="1" d="M 247.5 1371 L 253.5 1378 L 247.5 1371 Z " /><path fill="rgb(120,206,186)" stroke="rgb(120,206,186)" stroke-width="1" opacity="1" d="M 1049.5 1371 L 1055.5 1378 L 1049.5 1371 Z " /><path fill="rgb(120,206,186)" stroke="rgb(120,206,186)" stroke-width="1" opacity="1" d="M 1315.5 1371 L 1309.5 1378 L 1315.5 1371 Z " /><path fill="rgb(120,206,186)" stroke="rgb(120,206,186)" stroke-width="1" opacity="1" d="M 512.5 1372 L 507.5 1378 L 512.5 1372 Z " /><path fill="rgb(120,206,186)" stroke="rgb(120,206,186)" stroke-width="1" opacity="1" d="M 502.5 1382 L 496.5 1389 L 502.5 1382 Z " /><path fill="rgb(120,206,186)" stroke="rgb(120,206,186)" stroke-width="1" opacity="1" d="M 1060.5 1382 L 1066.5 1389 L 1060.5 1382 Z " /><path fill="rgb(120,206,186)" stroke="rgb(120,206,186)" stroke-width="1" opacity="1" d="M 259.5 1383 L 264.5 1389 L 259.5 1383 Z " /><path fill="rgb(120,206,186)" stroke="rgb(120,206,186)" stroke-width="1" opacity="1" d="M 1303.5 1383 L 1298.5 1389 L 1303.5 1383 Z " /><path fill="rgb(120,206,186)" stroke="rgb(120,206,186)" stroke-width="1" opacity="1" d="M 492.5 1391 L 490.5 1394 L 492.5 1391 Z " /><path fill="rgb(120,206,186)" stroke="rgb(120,206,186)" stroke-width="1" opacity="1" d="M 1070.5 1391 L 1072.5 1394 L 1070.5 1391 Z " /><path fill="rgb(120,206,186)" stroke="rgb(120,206,186)" stroke-width="1" opacity="1" d="M 1294.5 1391 L 1292.5 1394 L 1294.5 1391 Z " /><path fill="rgb(120,206,186)" stroke="rgb(120,206,186)" stroke-width="1" opacity="1" d="M 269.5 1392 L 270.5 1394 L 269.5 1392 Z " /><path fill="rgb(120,206,186)" stroke="rgb(120,206,186)" stroke-width="1" opacity="1" d="M 273.5 1395 L 275.5 1398 L 273.5 1395 Z " /><path fill="rgb(120,206,186)" stroke="rgb(120,206,186)" stroke-width="1" opacity="1" d="M 487.5 1395 L 485.5 1398 L 487.5 1395 Z " /><path fill="rgb(120,206,186)" stroke="rgb(120,206,186)" stroke-width="1" opacity="1" d="M 1075.5 1395 L 1077.5 1398 L 1075.5 1395 Z " /><path fill="rgb(120,206,186)" stroke="rgb(120,206,186)" stroke-width="1" opacity="1" d="M 1289.5 1395 L 1287.5 1398 L 1289.5 1395 Z " /><path fill="rgb(120,206,186)" stroke="rgb(120,206,186)" stroke-width="1" opacity="1" d="M 277.5 1398 L 278.5 1400 L 277.5 1398 Z " /><path fill="rgb(120,206,186)" stroke="rgb(120,206,186)" stroke-width="1" opacity="1" d="M 483.5 1398 L 482.5 1400 L 483.5 1398 Z " /><path fill="rgb(120,206,186)" stroke="rgb(120,206,186)" stroke-width="1" opacity="1" d="M 1079.5 1398 L 1080.5 1400 L 1079.5 1398 Z " /><path fill="rgb(120,206,186)" stroke="rgb(120,206,186)" stroke-width="1" opacity="1" d="M 1285.5 1398 L 1284.5 1400 L 1285.5 1398 Z " /><path fill="rgb(120,206,186)" stroke="rgb(120,206,186)" stroke-width="1" opacity="1" d="M 281.5 1401 L 282.5 1403 L 281.5 1401 Z " /><path fill="rgb(120,206,186)" stroke="rgb(120,206,186)" stroke-width="1" opacity="1" d="M 479.5 1401 L 478.5 1403 L 479.5 1401 Z " /><path fill="rgb(120,206,186)" stroke="rgb(120,206,186)" stroke-width="1" opacity="1" d="M 1083.5 1401 L 1084.5 1403 L 1083.5 1401 Z " /><path fill="rgb(120,206,186)" stroke="rgb(120,206,186)" stroke-width="1" opacity="1" d="M 1281.5 1401 L 1280.5 1403 L 1281.5 1401 Z " /><path fill="rgb(120,206,186)" stroke="rgb(120,206,186)" stroke-width="1" opacity="1" d="M 284.5 1403 L 285.5 1405 L 284.5 1403 Z " /><path fill="rgb(120,206,186)" stroke="rgb(120,206,186)" stroke-width="1" opacity="1" d="M 1278.5 1403 L 1277.5 1405 L 1278.5 1403 Z " /><path fill="rgb(120,206,186)" stroke="rgb(120,206,186)" stroke-width="1" opacity="1" d="M 289.5 1406 L 290.5 1408 L 289.5 1406 Z " /><path fill="rgb(120,206,186)" stroke="rgb(120,206,186)" stroke-width="1" opacity="1" d="M 471.5 1406 L 470.5 1408 L 471.5 1406 Z " /><path fill="rgb(120,206,186)" stroke="rgb(120,206,186)" stroke-width="1" opacity="1" d="M 1091.5 1406 L 1092.5 1408 L 1091.5 1406 Z " /><path fill="rgb(120,206,186)" stroke="rgb(120,206,186)" stroke-width="1" opacity="1" d="M 1273.5 1406 L 1272.5 1408 L 1273.5 1406 Z " /><path fill="rgb(120,206,186)" stroke="rgb(120,206,186)" stroke-width="1" opacity="1" d="M 464.5 1410 L 463.5 1412 L 464.5 1410 Z " /><path fill="rgb(120,206,186)" stroke="rgb(120,206,186)" stroke-width="1" opacity="1" d="M 1098.5 1410 L 1099.5 1412 L 1098.5 1410 Z " /><path fill="rgb(120,206,186)" stroke="rgb(120,206,186)" stroke-width="1" opacity="1" d="M 1266.5 1410 L 1265.5 1412 L 1266.5 1410 Z " /><path fill="rgb(120,206,186)" stroke="rgb(120,206,186)" stroke-width="1" opacity="1" d="M 343.5 1428 L 346 1428.5 L 343.5 1429 L 343.5 1428 Z " /><path fill="rgb(120,206,186)" stroke="rgb(120,206,186)" stroke-width="1" opacity="1" d="M 1217.5 1428 L 1220 1428.5 L 1217.5 1429 L 1217.5 1428 Z " /><path fill="rgb(120,206,186)" stroke="rgb(120,206,186)" stroke-width="1" opacity="1" d="M 349.5 1429 L 352 1429.5 L 349.5 1430 L 349.5 1429 Z " /><path fill="rgb(120,206,186)" stroke="rgb(120,206,186)" stroke-width="1" opacity="1" d="M 409.5 1429 L 412 1429.5 L 409.5 1430 L 409.5 1429 Z " /><path fill="rgb(120,206,186)" stroke="rgb(120,206,186)" stroke-width="1" opacity="1" d="M 1151.5 1429 L 1154 1429.5 L 1151.5 1430 L 1151.5 1429 Z " /><path fill="rgb(120,206,186)" stroke="rgb(120,206,186)" stroke-width="1" opacity="1" d="M 1211.5 1429 L 1214 1429.5 L 1211.5 1430 L 1211.5 1429 Z " /><path fill="rgb(120,206,186)" stroke="rgb(120,206,186)" stroke-width="1" opacity="1" d="M 355.5 1430 L 359 1430.5 L 355.5 1431 L 355.5 1430 Z " /><path fill="rgb(120,206,186)" stroke="rgb(120,206,186)" stroke-width="1" opacity="1" d="M 402.5 1430 L 406 1430.5 L 402.5 1431 L 402.5 1430 Z " /><path fill="rgb(120,206,186)" stroke="rgb(120,206,186)" stroke-width="1" opacity="1" d="M 1157.5 1430 L 1161 1430.5 L 1157.5 1431 L 1157.5 1430 Z " /><path fill="rgb(120,206,186)" stroke="rgb(120,206,186)" stroke-width="1" opacity="1" d="M 1204.5 1430 L 1208 1430.5 L 1204.5 1431 L 1204.5 1430 Z " /><path fill="rgb(120,206,186)" stroke="rgb(120,206,186)" stroke-width="1" opacity="1" d="M 364.5 1431 L 370 1431.5 L 364.5 1432 L 364.5 1431 Z " /><path fill="rgb(120,206,186)" stroke="rgb(120,206,186)" stroke-width="1" opacity="1" d="M 391.5 1431 L 397 1431.5 L 391.5 1432 L 391.5 1431 Z " /><path fill="rgb(120,206,186)" stroke="rgb(120,206,186)" stroke-width="1" opacity="1" d="M 1166.5 1431 L 1172 1431.5 L 1166.5 1432 L 1166.5 1431 Z " /><path fill="rgb(120,206,186)" stroke="rgb(120,206,186)" stroke-width="1" opacity="1" d="M 1193.5 1431 L 1199 1431.5 L 1193.5 1432 L 1193.5 1431 Z " /><path fill="rgb(7,39,35)" stroke="rgb(7,39,35)" stroke-width="1" opacity="1" d="M 0 0 L 1563 0 L 1563 1563 L 0 1563 L 0 0 Z M 373 156 L 372 157 L 360 157 L 359 158 L 352 158 L 342 160 L 309 171 Q 282 183 262 202 Q 240 222 225 249 L 212 280 L 208 295 L 206 313 L 205 314 L 205 1276 L 211 1306 L 219 1328 Q 230 1352 247 1372 Q 268 1396 298 1412 L 315 1420 L 336 1427 L 365 1432 L 397 1432 L 426 1427 Q 468 1415 497 1389 Q 520 1369 535 1342 Q 544 1325 550 1306 L 556 1275 L 557 799 L 557 817 L 558 818 L 558 825 L 561 842 L 565 858 L 574 883 Q 591 922 619 951 L 647 975 Q 668 990 694 1002 L 731 1014 L 753 1018 L 762 1018 L 763 1019 L 802 1019 L 803 1018 L 811 1018 L 833 1014 L 857 1007 Q 903 989 937 958 Q 970 927 989 883 L 998 858 L 1002 842 L 1005 825 L 1005 818 L 1006 817 L 1007 799 L 1007 1275 L 1013 1306 L 1021 1328 Q 1032 1352 1049 1372 Q 1070 1396 1100 1412 L 1117 1420 L 1138 1427 L 1167 1432 L 1199 1432 L 1228 1427 Q 1270 1415 1299 1389 Q 1322 1369 1337 1342 Q 1346 1325 1352 1306 L 1358 1276 L 1358 314 L 1353 287 L 1345 264 Q 1332 233 1311 212 Q 1288 186 1255 171 L 1222 160 L 1212 158 L 1205 158 L 1204 157 L 1192 157 L 1191 156 L 1175 156 L 1174 157 L 1154 158 L 1121 167 Q 1087 180 1063 203 Q 1044 221 1030 244 L 1020 264 L 1014 280 L 1007 314 L 1007 790 L 1006 773 L 1005 772 L 1003 752 L 992 714 Q 976 673 949 644 Q 920 611 880 591 Q 859 581 835 575 L 806 570 L 793 570 L 792 569 L 772 569 L 771 570 L 750 571 L 725 576 L 703 583 L 669 599 Q 648 611 631 627 Q 597 658 576 702 L 562 743 L 558 765 L 558 772 L 557 773 L 557 789 L 556 314 L 551 287 L 543 264 Q 530 234 509 212 Q 486 186 453 171 Q 433 162 410 158 L 390 157 L 389 156 L 373 156 Z " /><path fill="rgb(152,252,228)" stroke="rgb(152,252,228)" stroke-width="1" opacity="1" d="M 364.5 157 L 396.5 157 L 397.5 158 L 405.5 158 L 425.5 162 L 446.5 169 Q 486 185.5 512 215.5 Q 531 236.5 543 264.5 L 551 288.5 L 555 309.5 L 555 318.5 L 556 319.5 L 556 1269.5 L 555 1270.5 L 553 1291.5 L 550 1303.5 L 541 1328.5 Q 526.5 1359.5 503.5 1382 Q 478.4 1406.9 442.5 1421 L 423.5 1427 L 408.5 1430 L 391.5 1431 L 390.5 1432 L 370.5 1432 L 369.5 1431 L 359.5 1431 L 358.5 1430 L 341.5 1428 L 308.5 1417 Q 276.8 1402.2 254 1378.5 Q 233.2 1357.3 220 1328.5 L 211 1303.5 L 208 1291.5 L 208 1286.5 L 206 1279.5 L 206 1270.5 L 205 1269.5 L 205 318.5 L 206 317.5 L 207 302.5 L 212 281.5 Q 218.1 261.1 228 244.5 Q 242.9 218.9 264.5 200 Q 283.2 183.2 307.5 172 L 335.5 162 L 364.5 157 Z " /><path fill="rgb(152,252,228)" stroke="rgb(152,252,228)" stroke-width="1" opacity="1" d="M 1166.5 157 L 1198.5 157 L 1199.5 158 L 1207.5 158 L 1227.5 162 L 1248.5 169 Q 1288.7 185.8 1315 216.5 Q 1333.2 237.3 1345 264.5 L 1354 292.5 L 1357 309.5 L 1357 317.5 L 1358 318.5 L 1358 1269.5 L 1357 1270.5 L 1357 1279.5 L 1356 1280.5 L 1355 1291.5 L 1352 1303.5 L 1343 1328.5 Q 1328.3 1360.3 1304.5 1383 Q 1279.7 1407.2 1244.5 1421 L 1225.5 1427 L 1210.5 1430 L 1193.5 1431 L 1192.5 1432 L 1172.5 1432 L 1171.5 1431 L 1161.5 1431 L 1160.5 1430 L 1143.5 1428 L 1110.5 1417 Q 1078.8 1402.2 1056 1378.5 Q 1035.2 1357.3 1022 1328.5 L 1013 1303.5 L 1010 1291.5 L 1008 1270.5 L 1007 1269.5 L 1007 319.5 L 1008 318.5 L 1008 309.5 L 1011 292.5 L 1020 264.5 Q 1036.8 225.8 1066.5 200 Q 1085.2 183.2 1109.5 172 L 1137.5 162 L 1166.5 157 Z " /><path fill="rgb(152,252,228)" stroke="rgb(152,252,228)" stroke-width="1" opacity="1" d="M 762.5 570 L 800.5 570 L 801.5 571 L 816.5 572 L 840.5 577 L 869.5 587 Q 918.3 608.7 951 646.5 Q 977.6 676.4 993 717.5 L 1000 740.5 L 1004 760.5 L 1005 777.5 L 1006 778.5 L 1006 809.5 L 1005 810.5 L 1005 820.5 L 1000 848.5 L 988 883.5 Q 967.2 930.2 931.5 962 Q 901.5 989 860.5 1005 L 842.5 1011 L 814.5 1017 L 794.5 1018 L 793.5 1019 L 769.5 1019 L 768.5 1018 L 756.5 1018 L 755.5 1017 L 748.5 1017 L 732.5 1014 L 692.5 1001 Q 646.5 980.5 615 945.5 Q 585.5 913.5 569 868.5 L 563 848.5 L 559 828.5 L 558 811.5 L 557 810.5 L 557 778.5 L 558 777.5 L 558 768.5 L 559 767.5 L 559 760.5 L 562 744.5 Q 567.3 721.8 576 702.5 Q 597.4 656.4 633.5 625 Q 659.3 601.8 693.5 587 L 730.5 575 L 753.5 571 L 761.5 571 L 762.5 570 Z " /></svg>